<svg xmlns="http://www.w3.org/2000/svg" xmlns:xlink="http://www.w3.org/1999/xlink" version="1.2" width="181.98mm" height="41.49mm" viewBox="-1.1267 -0.0000 103.5567 23.6118">
<style type="text/css">
<![CDATA[
tspan { white-space: pre; }
]]>
</style>
<g transform="translate(0.0000, 8.5928)">
<line stroke-linejoin="round" stroke-linecap="round" stroke-width="0.1000" stroke="currentColor" x1="0.0500" y1="0" x2="102.3799" y2="0"/>
</g>
<g transform="translate(0.0000, 7.5928)">
<line stroke-linejoin="round" stroke-linecap="round" stroke-width="0.1000" stroke="currentColor" x1="0.0500" y1="0" x2="102.3799" y2="0"/>
</g>
<g transform="translate(0.0000, 6.5928)">
<line stroke-linejoin="round" stroke-linecap="round" stroke-width="0.1000" stroke="currentColor" x1="0.0500" y1="0" x2="102.3799" y2="0"/>
</g>
<g transform="translate(0.0000, 5.5928)">
<line stroke-linejoin="round" stroke-linecap="round" stroke-width="0.1000" stroke="currentColor" x1="0.0500" y1="0" x2="102.3799" y2="0"/>
</g>
<g transform="translate(0.0000, 4.5928)">
<line stroke-linejoin="round" stroke-linecap="round" stroke-width="0.1000" stroke="currentColor" x1="0.0500" y1="0" x2="102.3799" y2="0"/>
</g>
<g transform="translate(0.0000, 3.5928)">
<rect x="55.0859" y="-0.1000" width="1.9563" height="0.2000" ry="0.1000" fill="currentColor"/>
</g>
<g transform="translate(0.0000, 3.5928)">
<rect x="50.8462" y="-0.1000" width="1.9563" height="0.2000" ry="0.1000" fill="currentColor"/>
</g>
<g transform="translate(53.9115, 6.5928)">
<rect x="0.0000" y="-2.0000" width="0.1900" height="4.0000" ry="0.0000" fill="currentColor"/>
</g>
<g transform="translate(102.2399, 6.5928)">
<rect x="0.0000" y="-2.0000" width="0.1900" height="4.0000" ry="0.0000" fill="currentColor"/>
</g>
<g transform="translate(10.8893, 6.5928)">
<rect x="0.0000" y="-2.0000" width="0.1900" height="4.0000" ry="0.0000" fill="currentColor"/>
</g>
<g transform="translate(69.6732, 6.5928)">
<rect x="-0.0650" y="-0.3139" width="0.1300" height="3.4408" ry="0.0400" fill="currentColor"/>
</g>
<g transform="translate(69.6082, 6.0928)">
<path transform="scale(0.0040, -0.0040)" d="M218 136c66 0 108 -36 108 -89c0 -89 -113 -183 -218 -183c-66 0 -108 36 -108 89c0 89 113 183 218 183z" fill="currentColor"/>
</g>
<g transform="translate(66.9340, 6.5928)">
<rect x="-0.0650" y="-1.3139" width="0.1300" height="4.1312" ry="0.0400" fill="currentColor"/>
</g>
<g transform="translate(66.8690, 5.0928)">
<path transform="scale(0.0040, -0.0040)" d="M218 136c66 0 108 -36 108 -89c0 -89 -113 -183 -218 -183c-66 0 -108 36 -108 89c0 89 113 183 218 183z" fill="currentColor"/>
</g>
<g transform="translate(75.6517, 6.5928)">
<rect x="-0.0650" y="0.6861" width="0.1300" height="3.1165" ry="0.0400" fill="currentColor"/>
</g>
<g transform="translate(79.7969, 6.5928)">
<rect x="-0.0650" y="-3.0058" width="0.1300" height="3.8197" ry="0.0400" fill="currentColor"/>
</g>
<g transform="translate(78.5577, 7.5928)">
<path transform="scale(0.0040, -0.0040)" d="M218 136c66 0 108 -36 108 -89c0 -89 -113 -183 -218 -183c-66 0 -108 36 -108 89c0 89 113 183 218 183z" fill="currentColor"/>
</g>
<g transform="translate(75.5867, 7.0928)">
<path transform="scale(0.0040, -0.0040)" d="M218 136c66 0 108 -36 108 -89c0 -89 -113 -183 -218 -183c-66 0 -108 36 -108 89c0 89 113 183 218 183z" fill="currentColor"/>
</g>
<g transform="translate(72.6625, 6.5928)">
<rect x="-0.0650" y="0.1861" width="0.1300" height="3.2787" ry="0.0400" fill="currentColor"/>
</g>
<g transform="translate(72.5975, 6.5928)">
<path transform="scale(0.0040, -0.0040)" d="M218 136c66 0 108 -36 108 -89c0 -89 -113 -183 -218 -183c-66 0 -108 36 -108 89c0 89 113 183 218 183z" fill="currentColor"/>
</g>
<g transform="translate(90.5329, 7.7828)">
<polygon stroke-linejoin="round" stroke-linecap="round" stroke-width="0.0800" fill="currentColor" stroke="currentColor" points="9.0577 -1.2000 9.0577 -0.8000 0.0400 0.2000 0.0400 -0.2000"/>
</g>
<g transform="translate(90.5329, 8.5928)">
<polygon stroke-linejoin="round" stroke-linecap="round" stroke-width="0.0800" fill="currentColor" stroke="currentColor" points="9.0577 -1.2000 9.0577 -0.8000 0.0400 0.2000 0.0400 -0.2000"/>
</g>
<g transform="translate(55.4120, 3.0928)">
<path transform="scale(0.0040, -0.0040)" d="M218 136c66 0 108 -36 108 -89c0 -89 -113 -183 -218 -183c-66 0 -108 36 -108 89c0 89 113 183 218 183z" fill="currentColor"/>
</g>
<g transform="translate(55.4770, 6.5928)">
<rect x="-0.0650" y="-3.3139" width="0.1300" height="4.1329" ry="0.0400" fill="currentColor"/>
</g>
<g transform="translate(63.9447, 6.5928)">
<rect x="-0.0650" y="-0.8139" width="0.1300" height="2.8049" ry="0.0400" fill="currentColor"/>
</g>
<g transform="translate(58.1512, 4.0928)">
<path transform="scale(0.0040, -0.0040)" d="M218 136c66 0 108 -36 108 -89c0 -89 -113 -183 -218 -183c-66 0 -108 36 -108 89c0 89 113 183 218 183z" fill="currentColor"/>
</g>
<g transform="translate(58.2162, 6.5928)">
<rect x="-0.0650" y="-2.3139" width="0.1300" height="3.5120" ry="0.0400" fill="currentColor"/>
</g>
<g transform="translate(60.8905, 5.0928)">
<path transform="scale(0.0040, -0.0040)" d="M218 136c66 0 108 -36 108 -89c0 -89 -113 -183 -218 -183c-66 0 -108 36 -108 89c0 89 113 183 218 183z" fill="currentColor"/>
</g>
<g transform="translate(60.9555, 6.5928)">
<rect x="-0.0650" y="-1.3139" width="0.1300" height="2.8912" ry="0.0400" fill="currentColor"/>
</g>
<g transform="translate(63.8797, 5.5928)">
<path transform="scale(0.0040, -0.0040)" d="M218 136c66 0 108 -36 108 -89c0 -89 -113 -183 -218 -183c-66 0 -108 36 -108 89c0 89 113 183 218 183z" fill="currentColor"/>
</g>
<g transform="translate(99.5657, 6.5928)">
<rect x="-0.0650" y="-2.3139" width="0.1300" height="3.3210" ry="0.0400" fill="currentColor"/>
</g>
<g transform="translate(99.5007, 4.0928)">
<path transform="scale(0.0040, -0.0040)" d="M218 136c66 0 108 -36 108 -89c0 -89 -113 -183 -218 -183c-66 0 -108 36 -108 89c0 89 113 183 218 183z" fill="currentColor"/>
</g>
<g transform="translate(96.5764, 6.5928)">
<rect x="-0.0650" y="-1.8139" width="0.1300" height="3.1496" ry="0.0400" fill="currentColor"/>
</g>
<g transform="translate(96.7538, 1.9222)">
<path transform="scale(0.0022, -0.0022)" d="M194 486c16 0 29 15 41 15c13 0 24 -13 24 -31v-341c0 -47 35 -86 81 -86c14 0 21 -10 21 -21s-7 -22 -21 -22c-49 0 -97 14 -146 14s-96 -14 -145 -14c-14 0 -22 11 -22 22s8 21 22 21c46 0 80 39 80 86v137c0 23 -16 35 -30 35c-7 0 -13 -4 -17 -11l-34 -65
c-5 -10 -14 -15 -23 -15c-14 0 -28 12 -28 27c0 4 1 8 3 13l129 250c2 4 7 6 11 6c18 0 37 -20 54 -20z" fill="currentColor"/>
</g>
<g transform="translate(21.6341, 6.5928)">
<path stroke-width="0.0800" stroke-linejoin="round" stroke-linecap="round" stroke="currentColor" fill="currentColor" d="M1.2778 -5.4681C2.6805 -6.5119 6.0600 -6.2110 7.2563 -4.9358L7.2563 -4.9358C6.0493 -6.0915 2.6699 -6.3924 1.2778 -5.4681z"/>
</g>
<g transform="translate(19.8190, 1.5928)">
<polygon stroke-linejoin="round" stroke-linecap="round" stroke-width="0.0800" fill="currentColor" stroke="currentColor" points="9.0577 0.6100 9.0577 1.0100 0.0400 0.2000 0.0400 -0.2000"/>
</g>
<g transform="translate(19.8190, 2.4028)">
<polygon stroke-linejoin="round" stroke-linecap="round" stroke-width="0.0800" fill="currentColor" stroke="currentColor" points="9.0577 0.6100 9.0577 1.0100 0.0400 0.2000 0.0400 -0.2000"/>
</g>
<g transform="translate(33.2368, 6.5928)">
<path stroke-width="0.0800" stroke-linejoin="round" stroke-linecap="round" stroke="currentColor" fill="currentColor" d="M0.5839 -1.1950C2.6628 -3.2587 15.9032 -5.3626 18.5194 -4.0450L18.5194 -4.0450C15.9220 -5.2441 2.6816 -3.1402 0.5839 -1.1950z"/>
</g>
<g transform="translate(30.4976, 8.5928)">
<polygon stroke-linejoin="round" stroke-linecap="round" stroke-width="0.0800" fill="currentColor" stroke="currentColor" points="8.8077 -0.2000 8.8077 0.2000 0.0400 0.2000 0.0400 -0.2000"/>
</g>
<g transform="translate(30.4976, 9.4028)">
<polygon stroke-linejoin="round" stroke-linecap="round" stroke-width="0.0800" fill="currentColor" stroke="currentColor" points="8.8077 -0.2000 8.8077 0.2000 0.0400 0.2000 0.0400 -0.2000"/>
</g>
<g transform="translate(55.4120, 6.5928)">
<path stroke-width="0.0800" stroke-linejoin="round" stroke-linecap="round" stroke="currentColor" fill="currentColor" d="M0.7367 -4.5450C3.5250 -5.7772 18.8041 -2.7478 20.9114 -0.5450L20.9114 -0.5450C18.7807 -2.6301 3.5017 -5.6595 0.7367 -4.5450z"/>
</g>
<g transform="translate(42.2046, 7.5928)">
<polygon stroke-linejoin="round" stroke-linecap="round" stroke-width="0.0800" fill="currentColor" stroke="currentColor" points="9.0577 -1.0100 9.0577 -0.6100 0.0400 0.2000 0.0400 -0.2000"/>
</g>
<g transform="translate(42.2046, 8.4028)">
<polygon stroke-linejoin="round" stroke-linecap="round" stroke-width="0.0800" fill="currentColor" stroke="currentColor" points="9.0577 -1.0100 9.0577 -0.6100 0.0400 0.2000 0.0400 -0.2000"/>
</g>
<g transform="translate(55.4120, 6.5928)">
<polygon stroke-linejoin="round" stroke-linecap="round" stroke-width="0.0800" fill="currentColor" stroke="currentColor" points="8.5577 0.9900 8.5577 1.3900 0.0400 0.2000 0.0400 -0.2000"/>
</g>
<g transform="translate(55.4120, 7.4028)">
<polygon stroke-linejoin="round" stroke-linecap="round" stroke-width="0.0800" fill="currentColor" stroke="currentColor" points="8.5577 0.9900 8.5577 1.3900 0.0400 0.2000 0.0400 -0.2000"/>
</g>
<g transform="translate(78.5577, 6.5928)">
<path stroke-width="0.0800" stroke-linejoin="round" stroke-linecap="round" stroke="currentColor" fill="currentColor" d="M1.2435 -3.7458C3.7464 -5.4690 19.1309 -5.3173 21.5994 -3.5450L21.5994 -3.5450C19.1297 -5.1973 3.7452 -5.3491 1.2435 -3.7458z"/>
</g>
<g transform="translate(66.8690, 8.5928)">
<polygon stroke-linejoin="round" stroke-linecap="round" stroke-width="0.0800" fill="currentColor" stroke="currentColor" points="8.8077 0.8000 8.8077 1.2000 0.0400 0.2000 0.0400 -0.2000"/>
</g>
<g transform="translate(66.8690, 9.4028)">
<polygon stroke-linejoin="round" stroke-linecap="round" stroke-width="0.0800" fill="currentColor" stroke="currentColor" points="8.8077 0.8000 8.8077 1.2000 0.0400 0.2000 0.0400 -0.2000"/>
</g>
<g transform="translate(79.7319, 3.5928)">
<polygon stroke-linejoin="round" stroke-linecap="round" stroke-width="0.0800" fill="currentColor" stroke="currentColor" points="9.0577 -1.0100 9.0577 -0.6100 0.0400 0.2000 0.0400 -0.2000"/>
</g>
<g transform="translate(79.7319, 4.4028)">
<polygon stroke-linejoin="round" stroke-linecap="round" stroke-width="0.0800" fill="currentColor" stroke="currentColor" points="9.0577 -1.0100 9.0577 -0.6100 0.0400 0.2000 0.0400 -0.2000"/>
</g>
<g transform="translate(84.5362, 6.5928)">
<path transform="scale(0.0040, -0.0040)" d="M218 136c66 0 108 -36 108 -89c0 -89 -113 -183 -218 -183c-66 0 -108 36 -108 89c0 89 113 183 218 183z" fill="currentColor"/>
</g>
<g transform="translate(88.7647, 6.5928)">
<rect x="-0.0650" y="-3.8042" width="0.1300" height="3.1181" ry="0.0400" fill="currentColor"/>
</g>
<g transform="translate(87.5254, 6.0928)">
<path transform="scale(0.0040, -0.0040)" d="M218 136c66 0 108 -36 108 -89c0 -89 -113 -183 -218 -183c-66 0 -108 36 -108 89c0 89 113 183 218 183z" fill="currentColor"/>
</g>
<g transform="translate(85.7754, 6.5928)">
<rect x="-0.0650" y="-3.5381" width="0.1300" height="3.3520" ry="0.0400" fill="currentColor"/>
</g>
<g transform="translate(82.7862, 6.5928)">
<rect x="-0.0650" y="-3.2719" width="0.1300" height="3.5858" ry="0.0400" fill="currentColor"/>
</g>
<g transform="translate(81.5470, 7.0928)">
<path transform="scale(0.0040, -0.0040)" d="M218 136c66 0 108 -36 108 -89c0 -89 -113 -183 -218 -183c-66 0 -108 36 -108 89c0 89 113 183 218 183z" fill="currentColor"/>
</g>
<g transform="translate(90.5329, 5.5928)">
<path transform="scale(0.0040, -0.0040)" d="M218 136c66 0 108 -36 108 -89c0 -89 -113 -183 -218 -183c-66 0 -108 36 -108 89c0 89 113 183 218 183z" fill="currentColor"/>
</g>
<g transform="translate(90.5979, 6.5928)">
<rect x="-0.0650" y="-0.8139" width="0.1300" height="2.8067" ry="0.0400" fill="currentColor"/>
</g>
<g transform="translate(93.5222, 5.0928)">
<path transform="scale(0.0040, -0.0040)" d="M218 136c66 0 108 -36 108 -89c0 -89 -113 -183 -218 -183c-66 0 -108 36 -108 89c0 89 113 183 218 183z" fill="currentColor"/>
</g>
<g transform="translate(93.5872, 6.5928)">
<rect x="-0.0650" y="-1.3139" width="0.1300" height="2.9782" ry="0.0400" fill="currentColor"/>
</g>
<g transform="translate(96.5114, 4.5928)">
<path transform="scale(0.0040, -0.0040)" d="M218 136c66 0 108 -36 108 -89c0 -89 -113 -183 -218 -183c-66 0 -108 36 -108 89c0 89 113 183 218 183z" fill="currentColor"/>
</g>
<g transform="translate(18.7748, 9.9278)">
<path transform="scale(0.0040, -0.0040)" d="M0 205c91 51 211 131 211 233c0 24 -5 48 -14 70c-79 -89 -197 -160 -197 -282v-21zM267 663c0 -44 -16 -82 -39 -116c16 -35 25 -71 25 -109c0 -181 -253 -257 -253 -438h-16v500h16v-70c97 49 224 128 224 233c0 21 -5 42 -13 62c-3 16 10 27 23 27c32 0 33 -83 33 -89
z" fill="currentColor"/>
</g>
<g transform="translate(18.7098, 6.5928)">
<rect x="-0.0650" y="0.1861" width="0.1300" height="3.1889" ry="0.0400" fill="currentColor"/>
</g>
<g transform="translate(18.6448, 6.5928)">
<path stroke-width="0.1000" stroke-linejoin="round" stroke-linecap="round" stroke="currentColor" fill="currentColor" d="M-1.3000 0.3412C-0.9986 0.7236 -0.5014 0.7236 -0.2000 0.3412L-0.2000 0.3412C-0.5014 0.6236 -0.9986 0.6236 -1.3000 0.3412z"/>
</g>
<g transform="translate(19.8840, 6.5928)">
<rect x="-0.0650" y="-4.9942" width="0.1300" height="2.3081" ry="0.0400" fill="currentColor"/>
</g>
<g transform="translate(18.6448, 6.5928)">
<path stroke-width="0.1000" stroke-linejoin="round" stroke-linecap="round" stroke="currentColor" fill="currentColor" d="M-1.3000 -3.0000C-0.9986 -3.3824 -0.5014 -3.3824 -0.2000 -3.0000L-0.2000 -3.0000C-0.5014 -3.2824 -0.9986 -3.2824 -1.3000 -3.0000z"/>
</g>
<g transform="translate(18.6448, 6.5928)">
<path transform="scale(0.0040, -0.0040)" d="M218 136c66 0 108 -36 108 -89c0 -89 -113 -183 -218 -183c-66 0 -108 36 -108 89c0 89 113 183 218 183z" fill="currentColor"/>
</g>
<g transform="translate(18.6448, 4.0928)">
<path transform="scale(0.0040, -0.0040)" d="M218 136c66 0 108 -36 108 -89c0 -89 -113 -183 -218 -183c-66 0 -108 36 -108 89c0 89 113 183 218 183z" fill="currentColor"/>
</g>
<g transform="translate(27.6125, 5.5928)">
<path transform="scale(0.0040, -0.0040)" d="M218 136c66 0 108 -36 108 -89c0 -89 -113 -183 -218 -183c-66 0 -108 36 -108 89c0 89 113 183 218 183z" fill="currentColor"/>
</g>
<g transform="translate(24.6233, 5.0928)">
<path transform="scale(0.0040, -0.0040)" d="M218 136c66 0 108 -36 108 -89c0 -89 -113 -183 -218 -183c-66 0 -108 36 -108 89c0 89 113 183 218 183z" fill="currentColor"/>
</g>
<g transform="translate(22.8733, 6.5928)">
<rect x="-0.0650" y="-4.7281" width="0.1300" height="2.5420" ry="0.0400" fill="currentColor"/>
</g>
<g transform="translate(21.8252, 1.1248)">
<path transform="scale(0.0022, -0.0022)" d="M148 501c10 0 41 -15 72 -15c32 0 63 15 76 15c15 0 26 -11 26 -21c0 -4 -1 -7 -4 -10l-264 -291h134v4c0 60 50 41 75 85c7 11 8 24 14 36c3 7 10 10 17 10c11 0 24 -8 24 -25v-110h70c18 0 27 -14 27 -27s-9 -27 -27 -27h-70c2 -45 36 -82 80 -82c14 0 22 -10 22 -21
s-8 -22 -22 -22c-49 0 -96 14 -145 14s-97 -14 -146 -14c-14 0 -21 11 -21 22s7 21 21 21c44 0 79 37 81 82h-134c-43 0 -57 25 -57 42c0 5 1 10 3 12c73 81 123 182 123 291c0 17 11 31 25 31z" fill="currentColor"/>
</g>
<g transform="translate(21.6341, 4.5928)">
<path transform="scale(0.0040, -0.0040)" d="M218 136c66 0 108 -36 108 -89c0 -89 -113 -183 -218 -183c-66 0 -108 36 -108 89c0 89 113 183 218 183z" fill="currentColor"/>
</g>
<g transform="translate(4.3000, 5.5928)">
<path transform="scale(0.0040, -0.0040)" d="M0 119c0 8 5 15 13 18l46 17v158c0 10 8 19 18 19s19 -9 19 -19v-145l83 31v158c0 10 9 19 19 19s18 -9 18 -19v-145l32 12c2 1 5 1 7 1c11 0 20 -9 20 -20v-60c0 -8 -5 -16 -13 -19l-46 -16v-160l32 11c2 1 5 1 7 1c11 0 20 -9 20 -20v-60c0 -8 -5 -15 -13 -18l-46 -17
v-158c0 -10 -8 -19 -18 -19s-19 9 -19 19v145l-83 -31v-158c0 -10 -9 -19 -19 -19s-18 9 -18 19v145l-32 -12c-2 -1 -5 -1 -7 -1c-11 0 -20 9 -20 20v60c0 8 5 16 13 19l46 16v160l-32 -11c-2 -1 -5 -1 -7 -1c-11 0 -20 9 -20 20v60zM179 95l-83 -30v-160l83 30v160z" fill="currentColor"/>
</g>
<g transform="translate(8.0300, 7.5528)">
<path transform="scale(0.0040, -0.0040)" d="M0 205c91 51 211 131 211 233c0 24 -5 48 -14 70c-79 -89 -197 -160 -197 -282v-21zM267 663c0 -44 -16 -82 -39 -116c16 -35 25 -71 25 -109c0 -181 -253 -257 -253 -438h-16v500h16v-70c97 49 224 128 224 233c0 21 -5 42 -13 62c-3 16 10 27 23 27c32 0 33 -83 33 -89
z" fill="currentColor"/>
</g>
<g transform="translate(7.9650, 6.5928)">
<rect x="-0.0650" y="-2.3139" width="0.1300" height="3.3139" ry="0.0400" fill="currentColor"/>
</g>
<g transform="translate(0.8000, 5.5928)">
<path transform="scale(0.0040, -0.0040)" d="M557 -125c0 28 23 51 51 51s51 -23 51 -51s-23 -51 -51 -51s-51 23 -51 51zM557 125c0 28 23 51 51 51s51 -23 51 -51s-23 -51 -51 -51s-51 23 -51 51zM232 263c172 0 293 -88 293 -251c0 -263 -263 -414 -516 -521c-3 -3 -6 -4 -9 -4c-7 0 -13 6 -13 13c0 3 1 6 4 9
c202 118 412 265 412 493c0 120 -63 235 -171 235c-74 0 -129 -54 -154 -126c11 5 22 8 34 8c55 0 100 -45 100 -100c0 -58 -44 -106 -100 -106c-60 0 -112 47 -112 106c0 133 102 244 232 244z" fill="currentColor"/>
</g>
<g transform="translate(7.9205, 11.1389)">
<path transform="scale(0.0040, -0.0040)" d="M253 245l-50 -163c-30 -99 -121 -255 -218 -255c-45 0 -87 27 -87 69c0 39 17 77 52 77c24 0 44 -20 44 -44c0 -30 -38 -24 -38 -54c0 -10 11 -11 23 -11h6c48 0 61 58 73 108l68 273h-49c-11 0 -19 8 -19 19s8 19 19 19h60c32 96 118 191 213 191c45 0 87 -27 87 -69
c0 -39 -17 -77 -52 -77c-24 0 -44 19 -44 43c0 30 38 25 38 55c0 10 -10 11 -22 11h-7c-62 0 -70 -88 -86 -154h55c11 0 19 -8 19 -19s-8 -19 -19 -19h-66z" fill="currentColor"/>
</g>
<g transform="translate(7.9000, 4.0928)">
<path transform="scale(0.0040, -0.0040)" d="M218 136c66 0 108 -36 108 -89c0 -89 -113 -183 -218 -183c-66 0 -108 36 -108 89c0 89 113 183 218 183z" fill="currentColor"/>
</g>
<g transform="translate(25.8625, 6.5928)">
<rect x="-0.0650" y="-4.4619" width="0.1300" height="2.7758" ry="0.0400" fill="currentColor"/>
</g>
<g transform="translate(12.3897, 4.0928)">
<path transform="scale(0.0040, -0.0040)" d="M218 136c66 0 108 -36 108 -89c0 -89 -113 -183 -218 -183c-66 0 -108 36 -108 89c0 89 113 183 218 183z" fill="currentColor"/>
</g>
<g transform="translate(12.3897, 6.5928)">
<path transform="scale(0.0040, -0.0040)" d="M218 136c66 0 108 -36 108 -89c0 -89 -113 -183 -218 -183c-66 0 -108 36 -108 89c0 89 113 183 218 183z" fill="currentColor"/>
</g>
<g transform="translate(12.3897, 8.5928)">
<path transform="scale(0.0040, -0.0040)" d="M218 136c66 0 108 -36 108 -89c0 -89 -113 -183 -218 -183c-66 0 -108 36 -108 89c0 89 113 183 218 183z" fill="currentColor"/>
</g>
<g transform="translate(12.4547, 6.5928)">
<rect x="-0.0650" y="-2.3139" width="0.1300" height="6.9806" ry="0.0400" fill="currentColor"/>
</g>
<g transform="translate(39.2153, 5.5928)">
<path transform="scale(0.0040, -0.0040)" d="M218 136c66 0 108 -36 108 -89c0 -89 -113 -183 -218 -183c-66 0 -108 36 -108 89c0 89 113 183 218 183z" fill="currentColor"/>
</g>
<g transform="translate(39.2803, 6.5928)">
<rect x="-0.0650" y="-0.8139" width="0.1300" height="3.6239" ry="0.0400" fill="currentColor"/>
</g>
<g transform="translate(42.2046, 5.0928)">
<path transform="scale(0.0040, -0.0040)" d="M218 136c66 0 108 -36 108 -89c0 -89 -113 -183 -218 -183c-66 0 -108 36 -108 89c0 89 113 183 218 183z" fill="currentColor"/>
</g>
<g transform="translate(42.2696, 6.5928)">
<rect x="-0.0650" y="-1.3139" width="0.1300" height="3.1181" ry="0.0400" fill="currentColor"/>
</g>
<g transform="translate(45.1938, 4.5928)">
<path transform="scale(0.0040, -0.0040)" d="M218 136c66 0 108 -36 108 -89c0 -89 -113 -183 -218 -183c-66 0 -108 36 -108 89c0 89 113 183 218 183z" fill="currentColor"/>
</g>
<g transform="translate(45.2588, 6.5928)">
<rect x="-0.0650" y="-1.8139" width="0.1300" height="3.3520" ry="0.0400" fill="currentColor"/>
</g>
<g transform="translate(48.1831, 4.0928)">
<path transform="scale(0.0040, -0.0040)" d="M218 136c66 0 108 -36 108 -89c0 -89 -113 -183 -218 -183c-66 0 -108 36 -108 89c0 89 113 183 218 183z" fill="currentColor"/>
</g>
<g transform="translate(48.2481, 6.5928)">
<rect x="-0.0650" y="-2.3139" width="0.1300" height="3.5858" ry="0.0400" fill="currentColor"/>
</g>
<g transform="translate(51.1723, 3.5928)">
<path transform="scale(0.0040, -0.0040)" d="M218 136c66 0 108 -36 108 -89c0 -89 -113 -183 -218 -183c-66 0 -108 36 -108 89c0 89 113 183 218 183z" fill="currentColor"/>
</g>
<g transform="translate(51.2373, 6.5928)">
<rect x="-0.0650" y="-2.8139" width="0.1300" height="3.8197" ry="0.0400" fill="currentColor"/>
</g>
<g transform="translate(30.5626, 6.5928)">
<rect x="-0.0650" y="-1.3139" width="0.1300" height="4.1239" ry="0.0400" fill="currentColor"/>
</g>
<g transform="translate(36.2911, 6.5928)">
<rect x="-0.0650" y="-0.3139" width="0.1300" height="3.1239" ry="0.0400" fill="currentColor"/>
</g>
<g transform="translate(30.4976, 5.0928)">
<path transform="scale(0.0040, -0.0040)" d="M218 136c66 0 108 -36 108 -89c0 -89 -113 -183 -218 -183c-66 0 -108 36 -108 89c0 89 113 183 218 183z" fill="currentColor"/>
</g>
<g transform="translate(33.2368, 6.5928)">
<path transform="scale(0.0040, -0.0040)" d="M218 136c66 0 108 -36 108 -89c0 -89 -113 -183 -218 -183c-66 0 -108 36 -108 89c0 89 113 183 218 183z" fill="currentColor"/>
</g>
<g transform="translate(33.3018, 6.5928)">
<rect x="-0.0650" y="0.1861" width="0.1300" height="2.6239" ry="0.0400" fill="currentColor"/>
</g>
<g transform="translate(28.8518, 6.5928)">
<rect x="-0.0650" y="-4.1958" width="0.1300" height="3.0097" ry="0.0400" fill="currentColor"/>
</g>
<g transform="translate(36.2261, 6.0928)">
<path transform="scale(0.0040, -0.0040)" d="M218 136c66 0 108 -36 108 -89c0 -89 -113 -183 -218 -183c-66 0 -108 36 -108 89c0 89 113 183 218 183z" fill="currentColor"/>
</g>
<g transform="translate(0.0000, 20.3718)">
<line stroke-linejoin="round" stroke-linecap="round" stroke-width="0.1000" stroke="currentColor" x1="0.0500" y1="0" x2="84.6635" y2="0"/>
</g>
<g transform="translate(0.0000, 19.3718)">
<line stroke-linejoin="round" stroke-linecap="round" stroke-width="0.1000" stroke="currentColor" x1="0.0500" y1="0" x2="84.6635" y2="0"/>
</g>
<g transform="translate(0.0000, 18.3718)">
<line stroke-linejoin="round" stroke-linecap="round" stroke-width="0.1000" stroke="currentColor" x1="0.0500" y1="0" x2="84.6635" y2="0"/>
</g>
<g transform="translate(0.0000, 17.3718)">
<line stroke-linejoin="round" stroke-linecap="round" stroke-width="0.1000" stroke="currentColor" x1="0.0500" y1="0" x2="84.6635" y2="0"/>
</g>
<g transform="translate(0.0000, 16.3718)">
<line stroke-linejoin="round" stroke-linecap="round" stroke-width="0.1000" stroke="currentColor" x1="0.0500" y1="0" x2="84.6635" y2="0"/>
</g>
<g transform="translate(84.5235, 18.3718)">
<rect x="0.0000" y="-2.0000" width="0.1900" height="4.0000" ry="0.0000" fill="currentColor"/>
</g>
<g transform="translate(47.2307, 18.3718)">
<rect x="0.0000" y="-2.0000" width="0.1900" height="4.0000" ry="0.0000" fill="currentColor"/>
</g>
<g transform="translate(0.0000, 15.3718)">
<rect x="74.4173" y="-0.1000" width="1.9563" height="0.2000" ry="0.1000" fill="currentColor"/>
</g>
<g transform="translate(0.0000, 15.3718)">
<rect x="42.3829" y="-0.1000" width="1.9563" height="0.2000" ry="0.1000" fill="currentColor"/>
</g>
<g transform="translate(0.0000, 15.3718)">
<rect x="7.5740" y="-0.1000" width="1.9563" height="0.2000" ry="0.1000" fill="currentColor"/>
</g>
<g transform="translate(67.6480, 18.3718)">
<rect x="-0.0650" y="2.1861" width="0.1300" height="2.7842" ry="0.0400" fill="currentColor"/>
</g>
<g transform="translate(61.5595, 18.3718)">
<rect x="-0.0650" y="-2.6753" width="0.1300" height="3.4892" ry="0.0400" fill="currentColor"/>
</g>
<g transform="translate(60.3203, 19.3718)">
<path transform="scale(0.0040, -0.0040)" d="M218 136c66 0 108 -36 108 -89c0 -89 -113 -183 -218 -183c-66 0 -108 36 -108 89c0 89 113 183 218 183z" fill="currentColor"/>
</g>
<g transform="translate(59.3053, 18.3718)">
<rect x="-0.0650" y="-2.9909" width="0.1300" height="2.8048" ry="0.0400" fill="currentColor"/>
</g>
<g transform="translate(58.0661, 18.3718)">
<path transform="scale(0.0040, -0.0040)" d="M218 136c66 0 108 -36 108 -89c0 -89 -113 -183 -218 -183c-66 0 -108 36 -108 89c0 89 113 183 218 183z" fill="currentColor"/>
</g>
<g transform="translate(62.8245, 19.3718)">
<path transform="scale(0.0040, -0.0040)" d="M218 136c66 0 108 -36 108 -89c0 -89 -113 -183 -218 -183c-66 0 -108 36 -108 89c0 89 113 183 218 183z" fill="currentColor"/>
</g>
<g transform="translate(64.0638, 18.3718)">
<rect x="-0.0650" y="-2.3247" width="0.1300" height="3.1386" ry="0.0400" fill="currentColor"/>
</g>
<g transform="translate(65.0788, 20.3718)">
<path transform="scale(0.0040, -0.0040)" d="M218 136c66 0 108 -36 108 -89c0 -89 -113 -183 -218 -183c-66 0 -108 36 -108 89c0 89 113 183 218 183z" fill="currentColor"/>
</g>
<g transform="translate(66.3180, 18.3718)">
<rect x="-0.0650" y="-2.0091" width="0.1300" height="3.8230" ry="0.0400" fill="currentColor"/>
</g>
<g transform="translate(67.5830, 20.3718)">
<path transform="scale(0.0040, -0.0040)" d="M218 136c66 0 108 -36 108 -89c0 -89 -113 -183 -218 -183c-66 0 -108 36 -108 89c0 89 113 183 218 183z" fill="currentColor"/>
</g>
<g transform="translate(68.2351, 16.0718)">
<path transform="scale(0.0040, -0.0040)" d="M-178 333h356c6 0 10 -4 10 -10v-308c0 -8 -7 -15 -15 -15s-16 7 -16 15v185h-314v-185c0 -8 -7 -15 -15 -15s-16 7 -16 15v308c0 6 4 10 10 10z" fill="currentColor"/>
</g>
<g transform="translate(69.3372, 19.8718)">
<path transform="scale(0.0040, -0.0040)" d="M0 0c0 31 25 56 56 56s56 -25 56 -56s-25 -56 -56 -56s-56 25 -56 56z" fill="currentColor"/>
</g>
<g transform="translate(48.5493, 15.8718)">
<path transform="scale(0.0040, -0.0040)" d="M218 136c66 0 108 -36 108 -89c0 -89 -113 -183 -218 -183c-66 0 -108 36 -108 89c0 89 113 183 218 183z" fill="currentColor"/>
</g>
<g transform="translate(74.7433, 18.5618)">
<polygon stroke-linejoin="round" stroke-linecap="round" stroke-width="0.0800" fill="currentColor" stroke="currentColor" points="7.6026 0.6100 7.6026 1.0100 0.0400 0.2000 0.0400 -0.2000"/>
</g>
<g transform="translate(74.7433, 19.3718)">
<polygon stroke-linejoin="round" stroke-linecap="round" stroke-width="0.0800" fill="currentColor" stroke="currentColor" points="7.6026 0.6100 7.6026 1.0100 0.0400 0.2000 0.0400 -0.2000"/>
</g>
<g transform="translate(48.6143, 18.3718)">
<rect x="-0.0650" y="-2.3139" width="0.1300" height="4.1347" ry="0.0400" fill="currentColor"/>
</g>
<g transform="translate(50.8035, 16.8718)">
<path transform="scale(0.0040, -0.0040)" d="M218 136c66 0 108 -36 108 -89c0 -89 -113 -183 -218 -183c-66 0 -108 36 -108 89c0 89 113 183 218 183z" fill="currentColor"/>
</g>
<g transform="translate(50.8685, 18.3718)">
<rect x="-0.0650" y="-1.3139" width="0.1300" height="3.5103" ry="0.0400" fill="currentColor"/>
</g>
<g transform="translate(53.3077, 16.8718)">
<path transform="scale(0.0040, -0.0040)" d="M218 136c66 0 108 -36 108 -89c0 -89 -113 -183 -218 -183c-66 0 -108 36 -108 89c0 89 113 183 218 183z" fill="currentColor"/>
</g>
<g transform="translate(53.3727, 18.3718)">
<rect x="-0.0650" y="-1.3139" width="0.1300" height="3.9275" ry="0.0400" fill="currentColor"/>
</g>
<g transform="translate(55.5619, 18.3718)">
<path transform="scale(0.0040, -0.0040)" d="M218 136c66 0 108 -36 108 -89c0 -89 -113 -183 -218 -183c-66 0 -108 36 -108 89c0 89 113 183 218 183z" fill="currentColor"/>
</g>
<g transform="translate(55.6269, 18.3718)">
<rect x="-0.0650" y="0.1861" width="0.1300" height="2.8031" ry="0.0400" fill="currentColor"/>
</g>
<g transform="translate(7.9000, 18.3718)">
<path stroke-width="0.0800" stroke-linejoin="round" stroke-linecap="round" stroke="currentColor" fill="currentColor" d="M0.7594 -4.0450C2.5406 -4.9329 6.8827 -3.8268 8.0221 -2.1950L8.0221 -2.1950C6.8531 -3.7105 2.5109 -4.8166 0.7594 -4.0450z"/>
</g>
<g transform="translate(82.3210, 18.3718)">
<rect x="-0.0650" y="-1.3139" width="0.1300" height="3.1170" ry="0.0400" fill="currentColor"/>
</g>
<g transform="translate(82.2560, 16.8718)">
<path transform="scale(0.0040, -0.0040)" d="M218 136c66 0 108 -36 108 -89c0 -89 -113 -183 -218 -183c-66 0 -108 36 -108 89c0 89 113 183 218 183z" fill="currentColor"/>
</g>
<g transform="translate(17.6669, 18.3718)">
<path stroke-width="0.0800" stroke-linejoin="round" stroke-linecap="round" stroke="currentColor" fill="currentColor" d="M0.6521 -2.5450C2.1296 -3.8263 6.4373 -3.8263 7.9147 -2.5450L7.9147 -2.5450C6.4373 -3.7063 2.1296 -3.7063 0.6521 -2.5450z"/>
</g>
<g transform="translate(7.9000, 18.5618)">
<polygon stroke-linejoin="round" stroke-linecap="round" stroke-width="0.0800" fill="currentColor" stroke="currentColor" points="7.3526 0.8000 7.3526 1.2000 0.0400 0.2000 0.0400 -0.2000"/>
</g>
<g transform="translate(7.9000, 19.3718)">
<polygon stroke-linejoin="round" stroke-linecap="round" stroke-width="0.0800" fill="currentColor" stroke="currentColor" points="7.3526 0.8000 7.3526 1.2000 0.0400 0.2000 0.0400 -0.2000"/>
</g>
<g transform="translate(27.1837, 18.3718)">
<path stroke-width="0.0800" stroke-linejoin="round" stroke-linecap="round" stroke="currentColor" fill="currentColor" d="M0.4997 0.4550C1.5465 -1.4066 6.5003 -3.2613 8.5123 -2.5450L8.5123 -2.5450C6.5423 -3.1490 1.5886 -1.2942 0.4997 0.4550z"/>
</g>
<g transform="translate(17.6669, 19.5618)">
<polygon stroke-linejoin="round" stroke-linecap="round" stroke-width="0.0800" fill="currentColor" stroke="currentColor" points="7.3526 -0.2000 7.3526 0.2000 0.0400 0.2000 0.0400 -0.2000"/>
</g>
<g transform="translate(17.6669, 20.3718)">
<polygon stroke-linejoin="round" stroke-linecap="round" stroke-width="0.0800" fill="currentColor" stroke="currentColor" points="7.3526 -0.2000 7.3526 0.2000 0.0400 0.2000 0.0400 -0.2000"/>
</g>
<g transform="translate(37.7006, 18.3718)">
<path stroke-width="0.0800" stroke-linejoin="round" stroke-linecap="round" stroke="currentColor" fill="currentColor" d="M0.6521 -3.0450C2.1296 -4.3263 6.4373 -4.3263 7.9147 -3.0450L7.9147 -3.0450C6.4373 -4.2063 2.1296 -4.2063 0.6521 -3.0450z"/>
</g>
<g transform="translate(27.1837, 22.0618)">
<polygon stroke-linejoin="round" stroke-linecap="round" stroke-width="0.0800" fill="currentColor" stroke="currentColor" points="8.1026 -1.8900 8.1026 -1.4900 0.0400 0.2000 0.0400 -0.2000"/>
</g>
<g transform="translate(27.1837, 22.8718)">
<polygon stroke-linejoin="round" stroke-linecap="round" stroke-width="0.0800" fill="currentColor" stroke="currentColor" points="8.1026 -1.8900 8.1026 -1.4900 0.0400 0.2000 0.0400 -0.2000"/>
</g>
<g transform="translate(48.5493, 18.3718)">
<path stroke-width="0.0800" stroke-linejoin="round" stroke-linecap="round" stroke="currentColor" fill="currentColor" d="M0.8284 -3.5450C1.6921 -3.8556 2.7332 -3.3937 3.0826 -2.5450L3.0826 -2.5450C2.6846 -3.2841 1.6434 -3.7459 0.8284 -3.5450z"/>
</g>
<g transform="translate(37.7006, 18.5618)">
<polygon stroke-linejoin="round" stroke-linecap="round" stroke-width="0.0800" fill="currentColor" stroke="currentColor" points="7.3526 -0.2000 7.3526 0.2000 0.0400 0.2000 0.0400 -0.2000"/>
</g>
<g transform="translate(37.7006, 19.3718)">
<polygon stroke-linejoin="round" stroke-linecap="round" stroke-width="0.0800" fill="currentColor" stroke="currentColor" points="7.3526 -0.2000 7.3526 0.2000 0.0400 0.2000 0.0400 -0.2000"/>
</g>
<g transform="translate(53.3077, 18.3718)">
<path stroke-width="0.0800" stroke-linejoin="round" stroke-linecap="round" stroke="currentColor" fill="currentColor" d="M0.8755 -2.5450C1.8179 -2.7574 2.8721 -2.1261 3.1297 -1.1950L3.1297 -1.1950C2.8104 -2.0231 1.7562 -2.6545 0.8755 -2.5450z"/>
</g>
<g transform="translate(58.0661, 18.3718)">
<path stroke-width="0.0800" stroke-linejoin="round" stroke-linecap="round" stroke="currentColor" fill="currentColor" d="M0.4758 1.2285C0.8252 2.1390 1.8663 2.6008 2.7300 2.2285L2.7300 2.2285C1.9150 2.4911 0.8739 2.0293 0.4758 1.2285z"/>
</g>
<g transform="translate(48.5493, 19.3718)">
<polygon stroke-linejoin="round" stroke-linecap="round" stroke-width="0.0800" fill="currentColor" stroke="currentColor" points="7.1026 0.9900 7.1026 1.3900 0.0400 0.2000 0.0400 -0.2000"/>
</g>
<g transform="translate(48.5493, 20.1818)">
<polygon stroke-linejoin="round" stroke-linecap="round" stroke-width="0.0800" fill="currentColor" stroke="currentColor" points="7.1026 0.9900 7.1026 1.3900 0.0400 0.2000 0.0400 -0.2000"/>
</g>
<g transform="translate(62.8245, 18.3718)">
<path stroke-width="0.0800" stroke-linejoin="round" stroke-linecap="round" stroke="currentColor" fill="currentColor" d="M0.4987 2.1950C0.8879 3.0071 1.9244 3.3980 2.7529 3.0450L2.7529 3.0450C1.9667 3.2857 0.9303 2.8948 0.4987 2.1950z"/>
</g>
<g transform="translate(59.2403, 15.3718)">
<polygon stroke-linejoin="round" stroke-linecap="round" stroke-width="0.0800" fill="currentColor" stroke="currentColor" points="7.1026 0.8000 7.1026 1.2000 0.0400 0.2000 0.0400 -0.2000"/>
</g>
<g transform="translate(59.2403, 16.1818)">
<polygon stroke-linejoin="round" stroke-linecap="round" stroke-width="0.0800" fill="currentColor" stroke="currentColor" points="7.1026 0.8000 7.1026 1.2000 0.0400 0.2000 0.0400 -0.2000"/>
</g>
<g transform="translate(74.7433, 18.3718)">
<path stroke-width="0.0800" stroke-linejoin="round" stroke-linecap="round" stroke="currentColor" fill="currentColor" d="M0.7372 -4.0450C2.4923 -5.0335 7.0090 -4.1317 8.2499 -2.5450L8.2499 -2.5450C6.9855 -4.0140 2.4688 -4.9158 0.7372 -4.0450z"/>
</g>
<g transform="translate(71.2041, 20.9049)">
<polygon stroke-linejoin="round" stroke-linecap="round" stroke-width="0.0800" fill="currentColor" stroke="currentColor" points="1.1250 -0.7331 1.1250 -0.3331 0.0400 0.2000 0.0400 -0.2000"/>
</g>
<g transform="translate(67.5830, 23.3718)">
<polygon stroke-linejoin="round" stroke-linecap="round" stroke-width="0.0800" fill="currentColor" stroke="currentColor" points="4.7462 -2.3900 4.7462 -1.9900 0.0400 0.2000 0.0400 -0.2000"/>
</g>
<g transform="translate(72.2391, 15.8718)">
<path transform="scale(0.0040, -0.0040)" d="M218 136c66 0 108 -36 108 -89c0 -89 -113 -183 -218 -183c-66 0 -108 36 -108 89c0 89 113 183 218 183z" fill="currentColor"/>
</g>
<g transform="translate(72.8912, 15.1268)">
<path transform="scale(0.0040, -0.0040)" d="M-178 333h356c6 0 10 -4 10 -10v-308c0 -8 -7 -15 -15 -15s-16 7 -16 15v185h-314v-185c0 -8 -7 -15 -15 -15s-16 7 -16 15v308c0 6 4 10 10 10z" fill="currentColor"/>
</g>
<g transform="translate(72.3041, 18.3718)">
<rect x="-0.0650" y="-2.3139" width="0.1300" height="5.1536" ry="0.0400" fill="currentColor"/>
</g>
<g transform="translate(74.7433, 15.3718)">
<path transform="scale(0.0040, -0.0040)" d="M218 136c66 0 108 -36 108 -89c0 -89 -113 -183 -218 -183c-66 0 -108 36 -108 89c0 89 113 183 218 183z" fill="currentColor"/>
</g>
<g transform="translate(75.3954, 13.9109)">
<path transform="scale(0.0040, -0.0040)" d="M128 508c2 7 9 12 17 12c10 0 18 -7 18 -17c0 -2 -1 -4 -1 -6l-145 -485c-2 -7 -9 -12 -17 -12s-15 5 -17 12l-145 485v6c0 10 7 17 17 17c8 0 15 -5 17 -12l88 -295l40 -164l40 164z" fill="currentColor"/>
</g>
<g transform="translate(74.8083, 18.3718)">
<rect x="-0.0650" y="-2.8139" width="0.1300" height="3.8208" ry="0.0400" fill="currentColor"/>
</g>
<g transform="translate(77.2476, 15.8718)">
<path transform="scale(0.0040, -0.0040)" d="M218 136c66 0 108 -36 108 -89c0 -89 -113 -183 -218 -183c-66 0 -108 36 -108 89c0 89 113 183 218 183z" fill="currentColor"/>
</g>
<g transform="translate(77.3126, 18.3718)">
<rect x="-0.0650" y="-2.3139" width="0.1300" height="3.5862" ry="0.0400" fill="currentColor"/>
</g>
<g transform="translate(79.7518, 16.3718)">
<path transform="scale(0.0040, -0.0040)" d="M218 136c66 0 108 -36 108 -89c0 -89 -113 -183 -218 -183c-66 0 -108 36 -108 89c0 89 113 183 218 183z" fill="currentColor"/>
</g>
<g transform="translate(79.8168, 18.3718)">
<rect x="-0.0650" y="-1.8139" width="0.1300" height="3.3516" ry="0.0400" fill="currentColor"/>
</g>
<g transform="translate(15.1626, 17.3718)">
<path transform="scale(0.0040, -0.0040)" d="M218 136c66 0 108 -36 108 -89c0 -89 -113 -183 -218 -183c-66 0 -108 36 -108 89c0 89 113 183 218 183z" fill="currentColor"/>
</g>
<g transform="translate(15.2276, 18.3718)">
<rect x="-0.0650" y="-0.8139" width="0.1300" height="2.8051" ry="0.0400" fill="currentColor"/>
</g>
<g transform="translate(17.6669, 16.8718)">
<path transform="scale(0.0040, -0.0040)" d="M218 136c66 0 108 -36 108 -89c0 -89 -113 -183 -218 -183c-66 0 -108 36 -108 89c0 89 113 183 218 183z" fill="currentColor"/>
</g>
<g transform="translate(17.7319, 18.3718)">
<rect x="-0.0650" y="-1.3139" width="0.1300" height="3.3139" ry="0.0400" fill="currentColor"/>
</g>
<g transform="translate(19.9211, 17.8718)">
<path transform="scale(0.0040, -0.0040)" d="M218 136c66 0 108 -36 108 -89c0 -89 -113 -183 -218 -183c-66 0 -108 36 -108 89c0 89 113 183 218 183z" fill="currentColor"/>
</g>
<g transform="translate(19.9861, 18.3718)">
<rect x="-0.0650" y="-0.3139" width="0.1300" height="2.3139" ry="0.0400" fill="currentColor"/>
</g>
<g transform="translate(22.4253, 17.3718)">
<path transform="scale(0.0040, -0.0040)" d="M218 136c66 0 108 -36 108 -89c0 -89 -113 -183 -218 -183c-66 0 -108 36 -108 89c0 89 113 183 218 183z" fill="currentColor"/>
</g>
<g transform="translate(22.4903, 18.3718)">
<rect x="-0.0650" y="-0.8139" width="0.1300" height="2.8139" ry="0.0400" fill="currentColor"/>
</g>
<g transform="translate(24.9945, 18.3718)">
<rect x="-0.0650" y="-1.3139" width="0.1300" height="3.3139" ry="0.0400" fill="currentColor"/>
</g>
<g transform="translate(7.9000, 15.3718)">
<path transform="scale(0.0040, -0.0040)" d="M218 136c66 0 108 -36 108 -89c0 -89 -113 -183 -218 -183c-66 0 -108 36 -108 89c0 89 113 183 218 183z" fill="currentColor"/>
</g>
<g transform="translate(0.8000, 17.3718)">
<path transform="scale(0.0040, -0.0040)" d="M557 -125c0 28 23 51 51 51s51 -23 51 -51s-23 -51 -51 -51s-51 23 -51 51zM557 125c0 28 23 51 51 51s51 -23 51 -51s-23 -51 -51 -51s-51 23 -51 51zM232 263c172 0 293 -88 293 -251c0 -263 -263 -414 -516 -521c-3 -3 -6 -4 -9 -4c-7 0 -13 6 -13 13c0 3 1 6 4 9
c202 118 412 265 412 493c0 120 -63 235 -171 235c-74 0 -129 -54 -154 -126c11 5 22 8 34 8c55 0 100 -45 100 -100c0 -58 -44 -106 -100 -106c-60 0 -112 47 -112 106c0 133 102 244 232 244z" fill="currentColor"/>
</g>
<g transform="translate(4.3000, 17.3718)">
<path transform="scale(0.0040, -0.0040)" d="M0 119c0 8 5 15 13 18l46 17v158c0 10 8 19 18 19s19 -9 19 -19v-145l83 31v158c0 10 9 19 19 19s18 -9 18 -19v-145l32 12c2 1 5 1 7 1c11 0 20 -9 20 -20v-60c0 -8 -5 -16 -13 -19l-46 -16v-160l32 11c2 1 5 1 7 1c11 0 20 -9 20 -20v-60c0 -8 -5 -15 -13 -18l-46 -17
v-158c0 -10 -8 -19 -18 -19s-19 9 -19 19v145l-83 -31v-158c0 -10 -9 -19 -19 -19s-18 9 -18 19v145l-32 -12c-2 -1 -5 -1 -7 -1c-11 0 -20 9 -20 20v60c0 8 5 16 13 19l46 16v160l-32 -11c-2 -1 -5 -1 -7 -1c-11 0 -20 9 -20 20v60zM179 95l-83 -30v-160l83 30v160z" fill="currentColor"/>
</g>
<g transform="translate(-1.1267, 15.2971)">
<text font-family="serif" font-size="1.7459" text-anchor="start" fill="currentColor">
<tspan>3</tspan>
</text>
</g>
<g transform="translate(24.9295, 16.8718)">
<path transform="scale(0.0040, -0.0040)" d="M218 136c66 0 108 -36 108 -89c0 -89 -113 -183 -218 -183c-66 0 -108 36 -108 89c0 89 113 183 218 183z" fill="currentColor"/>
</g>
<g transform="translate(7.9650, 18.3718)">
<rect x="-0.0650" y="-2.8139" width="0.1300" height="3.8227" ry="0.0400" fill="currentColor"/>
</g>
<g transform="translate(10.1542, 16.3718)">
<path transform="scale(0.0040, -0.0040)" d="M218 136c66 0 108 -36 108 -89c0 -89 -113 -183 -218 -183c-66 0 -108 36 -108 89c0 89 113 183 218 183z" fill="currentColor"/>
</g>
<g transform="translate(10.2192, 18.3718)">
<rect x="-0.0650" y="-1.8139" width="0.1300" height="3.1276" ry="0.0400" fill="currentColor"/>
</g>
<g transform="translate(12.6584, 16.8718)">
<path transform="scale(0.0040, -0.0040)" d="M218 136c66 0 108 -36 108 -89c0 -89 -113 -183 -218 -183c-66 0 -108 36 -108 89c0 89 113 183 218 183z" fill="currentColor"/>
</g>
<g transform="translate(12.7234, 18.3718)">
<rect x="-0.0650" y="-1.3139" width="0.1300" height="2.9664" ry="0.0400" fill="currentColor"/>
</g>
<g transform="translate(42.7740, 18.3718)">
<rect x="-0.0650" y="-2.8139" width="0.1300" height="3.8139" ry="0.0400" fill="currentColor"/>
</g>
<g transform="translate(42.7090, 15.3718)">
<path transform="scale(0.0040, -0.0040)" d="M218 136c66 0 108 -36 108 -89c0 -89 -113 -183 -218 -183c-66 0 -108 36 -108 89c0 89 113 183 218 183z" fill="currentColor"/>
</g>
<g transform="translate(35.1963, 16.8718)">
<path transform="scale(0.0040, -0.0040)" d="M218 136c66 0 108 -36 108 -89c0 -89 -113 -183 -218 -183c-66 0 -108 36 -108 89c0 89 113 183 218 183z" fill="currentColor"/>
</g>
<g transform="translate(35.2613, 18.3718)">
<rect x="-0.0650" y="-1.3139" width="0.1300" height="4.1374" ry="0.0400" fill="currentColor"/>
</g>
<g transform="translate(27.1837, 19.8718)">
<path transform="scale(0.0040, -0.0040)" d="M218 136c66 0 108 -36 108 -89c0 -89 -113 -183 -218 -183c-66 0 -108 36 -108 89c0 89 113 183 218 183z" fill="currentColor"/>
</g>
<g transform="translate(37.7006, 16.3718)">
<path transform="scale(0.0040, -0.0040)" d="M218 136c66 0 108 -36 108 -89c0 -89 -113 -183 -218 -183c-66 0 -108 36 -108 89c0 89 113 183 218 183z" fill="currentColor"/>
</g>
<g transform="translate(37.9429, 14.8552)">
<path transform="scale(0.0022, -0.0022)" d="M194 486c16 0 29 15 41 15c13 0 24 -13 24 -31v-341c0 -47 35 -86 81 -86c14 0 21 -10 21 -21s-7 -22 -21 -22c-49 0 -97 14 -146 14s-96 -14 -145 -14c-14 0 -22 11 -22 22s8 21 22 21c46 0 80 39 80 86v137c0 23 -16 35 -30 35c-7 0 -13 -4 -17 -11l-34 -65
c-5 -10 -14 -15 -23 -15c-14 0 -28 12 -28 27c0 4 1 8 3 13l129 250c2 4 7 6 11 6c18 0 37 -20 54 -20z" fill="currentColor"/>
</g>
<g transform="translate(37.7656, 18.3718)">
<rect x="-0.0650" y="-1.8139" width="0.1300" height="2.8139" ry="0.0400" fill="currentColor"/>
</g>
<g transform="translate(40.2698, 18.3718)">
<rect x="-0.0650" y="-2.3139" width="0.1300" height="3.3139" ry="0.0400" fill="currentColor"/>
</g>
<g transform="translate(40.2048, 15.8718)">
<path transform="scale(0.0040, -0.0040)" d="M218 136c66 0 108 -36 108 -89c0 -89 -113 -183 -218 -183c-66 0 -108 36 -108 89c0 89 113 183 218 183z" fill="currentColor"/>
</g>
<g transform="translate(27.2487, 18.3718)">
<rect x="-0.0650" y="1.6861" width="0.1300" height="2.8004" ry="0.0400" fill="currentColor"/>
</g>
<g transform="translate(29.9379, 18.3718)">
<path transform="scale(0.0040, -0.0040)" d="M218 136c66 0 108 -36 108 -89c0 -89 -113 -183 -218 -183c-66 0 -108 36 -108 89c0 89 113 183 218 183z" fill="currentColor"/>
</g>
<g transform="translate(30.0029, 18.3718)">
<rect x="-0.0650" y="0.1861" width="0.1300" height="3.7288" ry="0.0400" fill="currentColor"/>
</g>
<g transform="translate(45.0282, 18.3718)">
<rect x="-0.0650" y="-1.8139" width="0.1300" height="2.8139" ry="0.0400" fill="currentColor"/>
</g>
<g transform="translate(44.9632, 16.3718)">
<path transform="scale(0.0040, -0.0040)" d="M218 136c66 0 108 -36 108 -89c0 -89 -113 -183 -218 -183c-66 0 -108 36 -108 89c0 89 113 183 218 183z" fill="currentColor"/>
</g>
<g transform="translate(32.6921, 17.3718)">
<path transform="scale(0.0040, -0.0040)" d="M218 136c66 0 108 -36 108 -89c0 -89 -113 -183 -218 -183c-66 0 -108 36 -108 89c0 89 113 183 218 183z" fill="currentColor"/>
</g>
<g transform="translate(32.7571, 18.3718)">
<rect x="-0.0650" y="-0.8139" width="0.1300" height="4.1571" ry="0.0400" fill="currentColor"/>
</g>
</svg>
