<svg xmlns="http://www.w3.org/2000/svg" xmlns:xlink="http://www.w3.org/1999/xlink" version="1.2" width="181.98mm" height="34.96mm" viewBox="-1.1267 -0.0000 103.5567 19.8934">
<style type="text/css">
<![CDATA[
tspan { white-space: pre; }
]]>
</style>
<g transform="translate(0.0000, 3.5584)">
<rect x="86.8045" y="-0.1000" width="1.9563" height="0.2000" ry="0.1000" fill="currentColor"/>
</g>
<g transform="translate(0.0000, 3.5584)">
<rect x="61.7338" y="-0.1000" width="1.9563" height="0.2000" ry="0.1000" fill="currentColor"/>
</g>
<g transform="translate(0.0000, 3.5584)">
<rect x="42.0809" y="-0.1000" width="1.9563" height="0.2000" ry="0.1000" fill="currentColor"/>
</g>
<g transform="translate(54.4185, 6.5584)">
<rect x="0.0000" y="-2.0000" width="0.1900" height="4.0000" ry="0.0000" fill="currentColor"/>
</g>
<g transform="translate(102.2399, 6.5584)">
<rect x="0.0000" y="-2.0000" width="0.1900" height="4.0000" ry="0.0000" fill="currentColor"/>
</g>
<g transform="translate(0.0000, 8.5584)">
<line stroke-linejoin="round" stroke-linecap="round" stroke-width="0.1000" stroke="currentColor" x1="0.0500" y1="0" x2="102.3799" y2="0"/>
</g>
<g transform="translate(0.0000, 7.5584)">
<line stroke-linejoin="round" stroke-linecap="round" stroke-width="0.1000" stroke="currentColor" x1="0.0500" y1="0" x2="102.3799" y2="0"/>
</g>
<g transform="translate(0.0000, 6.5584)">
<line stroke-linejoin="round" stroke-linecap="round" stroke-width="0.1000" stroke="currentColor" x1="0.0500" y1="0" x2="102.3799" y2="0"/>
</g>
<g transform="translate(0.0000, 5.5584)">
<line stroke-linejoin="round" stroke-linecap="round" stroke-width="0.1000" stroke="currentColor" x1="0.0500" y1="0" x2="102.3799" y2="0"/>
</g>
<g transform="translate(0.0000, 4.5584)">
<line stroke-linejoin="round" stroke-linecap="round" stroke-width="0.1000" stroke="currentColor" x1="0.0500" y1="0" x2="102.3799" y2="0"/>
</g>
<g transform="translate(67.9340, 5.0584)">
<path transform="scale(0.0040, -0.0040)" d="M218 136c66 0 108 -36 108 -89c0 -89 -113 -183 -218 -183c-66 0 -108 36 -108 89c0 89 113 183 218 183z" fill="currentColor"/>
</g>
<g transform="translate(68.1593, 3.5279)">
<path transform="scale(0.0022, -0.0022)" d="M94 66c-60 0 -39 -66 -72 -66c-11 0 -22 7 -22 21c0 154 232 162 232 334c0 50 -17 102 -61 102c-33 0 -66 -14 -66 -44c0 -24 31 -37 31 -61c0 -34 -27 -61 -61 -61s-61 27 -61 61c0 84 72 148 157 148c98 0 190 -55 190 -145c0 -140 -131 -154 -225 -205
c85 -2 113 -61 165 -61c45 0 28 41 57 41c11 0 22 -8 22 -21c0 -29 -48 -109 -144 -109c-92 0 -96 66 -142 66z" fill="currentColor"/>
</g>
<g transform="translate(67.9990, 6.5584)">
<rect x="-0.0650" y="-1.3139" width="0.1300" height="3.1239" ry="0.0400" fill="currentColor"/>
</g>
<g transform="translate(70.9961, 5.5584)">
<path transform="scale(0.0040, -0.0040)" d="M218 136c66 0 108 -36 108 -89c0 -89 -113 -183 -218 -183c-66 0 -108 36 -108 89c0 89 113 183 218 183z" fill="currentColor"/>
</g>
<g transform="translate(71.0611, 6.5584)">
<rect x="-0.0650" y="-0.8139" width="0.1300" height="2.6239" ry="0.0400" fill="currentColor"/>
</g>
<g transform="translate(74.0581, 5.0584)">
<path transform="scale(0.0040, -0.0040)" d="M218 136c66 0 108 -36 108 -89c0 -89 -113 -183 -218 -183c-66 0 -108 36 -108 89c0 89 113 183 218 183z" fill="currentColor"/>
</g>
<g transform="translate(74.1231, 6.5584)">
<rect x="-0.0650" y="-1.3139" width="0.1300" height="3.1239" ry="0.0400" fill="currentColor"/>
</g>
<g transform="translate(77.1202, 4.5584)">
<path transform="scale(0.0040, -0.0040)" d="M218 136c66 0 108 -36 108 -89c0 -89 -113 -183 -218 -183c-66 0 -108 36 -108 89c0 89 113 183 218 183z" fill="currentColor"/>
</g>
<g transform="translate(77.1852, 6.5584)">
<rect x="-0.0650" y="-1.8139" width="0.1300" height="3.6239" ry="0.0400" fill="currentColor"/>
</g>
<g transform="translate(81.0323, 6.5584)">
<path transform="scale(0.0040, -0.0040)" d="M218 136c66 0 108 -36 108 -89c0 -89 -113 -183 -218 -183c-66 0 -108 36 -108 89c0 89 113 183 218 183z" fill="currentColor"/>
</g>
<g transform="translate(81.6844, 4.2584)">
<path transform="scale(0.0040, -0.0040)" d="M-297 227c0 -15 8 -30 39 -30c10 0 46 2 103 28l5 24c-23 17 -50 29 -81 29c-51 0 -66 -31 -66 -51zM-26 104c0 -61 -47 -115 -98 -115c-39 0 -56 44 -56 91c0 14 1 28 4 41l15 76c-20 -8 -63 -25 -101 -25c-19 0 -60 6 -60 51c0 38 32 80 96 80c31 0 58 -10 82 -25
l46 232c6 -3 13 -5 20 -5c22 0 48 16 68 35l-53 -266l64 36c26 14 51 20 74 20c29 0 53 -10 64 -28c18 20 44 30 69 30c36 0 69 -22 69 -69c0 -49 -31 -90 -65 -90c-25 0 -38 22 -38 48c0 50 37 64 60 64h3c-8 14 -23 20 -38 20c-24 0 -50 -16 -55 -43l-54 -270
c-11 7 -24 11 -38 11s-29 -4 -43 -11l54 270v7c0 16 -12 26 -29 26c-7 0 -16 -3 -24 -7l-79 -44l-7 -31c27 -31 50 -67 50 -109zM-86 39c23 0 35 34 35 61c0 30 -14 55 -32 78l-5 -27c-4 -18 -13 -56 -13 -83c0 -17 4 -29 15 -29z" fill="currentColor"/>
</g>
<g transform="translate(87.1305, 8.6857)">
<polygon stroke-linejoin="round" stroke-linecap="round" stroke-width="0.0800" fill="currentColor" stroke="currentColor" points="12.3383 -0.3273 12.3383 0.0727 0.0400 0.2000 0.0400 -0.2000"/>
</g>
<g transform="translate(81.0323, 9.5584)">
<polygon stroke-linejoin="round" stroke-linecap="round" stroke-width="0.0800" fill="currentColor" stroke="currentColor" points="18.4365 -0.3900 18.4365 0.0100 0.0400 0.2000 0.0400 -0.2000"/>
</g>
<g transform="translate(56.0007, 6.5584)">
<rect x="-0.0650" y="-1.8139" width="0.1300" height="3.6239" ry="0.0400" fill="currentColor"/>
</g>
<g transform="translate(81.0973, 6.5584)">
<rect x="-0.0650" y="0.1861" width="0.1300" height="2.8132" ry="0.0400" fill="currentColor"/>
</g>
<g transform="translate(58.9977, 4.0584)">
<path transform="scale(0.0040, -0.0040)" d="M218 136c66 0 108 -36 108 -89c0 -89 -113 -183 -218 -183c-66 0 -108 36 -108 89c0 89 113 183 218 183z" fill="currentColor"/>
</g>
<g transform="translate(59.0627, 6.5584)">
<rect x="-0.0650" y="-2.3139" width="0.1300" height="4.1239" ry="0.0400" fill="currentColor"/>
</g>
<g transform="translate(62.0598, 3.5584)">
<path transform="scale(0.0040, -0.0040)" d="M218 136c66 0 108 -36 108 -89c0 -89 -113 -183 -218 -183c-66 0 -108 36 -108 89c0 89 113 183 218 183z" fill="currentColor"/>
</g>
<g transform="translate(62.1248, 6.5584)">
<rect x="-0.0650" y="-2.8139" width="0.1300" height="4.6239" ry="0.0400" fill="currentColor"/>
</g>
<g transform="translate(64.8719, 4.5584)">
<path transform="scale(0.0040, -0.0040)" d="M218 136c66 0 108 -36 108 -89c0 -89 -113 -183 -218 -183c-66 0 -108 36 -108 89c0 89 113 183 218 183z" fill="currentColor"/>
</g>
<g transform="translate(64.9369, 6.5584)">
<rect x="-0.0650" y="-1.8139" width="0.1300" height="3.6239" ry="0.0400" fill="currentColor"/>
</g>
<g transform="translate(99.3788, 5.5584)">
<path transform="scale(0.0040, -0.0040)" d="M218 136c66 0 108 -36 108 -89c0 -89 -113 -183 -218 -183c-66 0 -108 36 -108 89c0 89 113 183 218 183z" fill="currentColor"/>
</g>
<g transform="translate(99.4438, 6.5584)">
<rect x="-0.0650" y="-0.8139" width="0.1300" height="3.6246" ry="0.0400" fill="currentColor"/>
</g>
<g transform="translate(96.3818, 6.5584)">
<rect x="-0.0650" y="-1.3139" width="0.1300" height="4.1561" ry="0.0400" fill="currentColor"/>
</g>
<g transform="translate(9.7500, 6.5584)">
<path stroke-width="0.0800" stroke-linejoin="round" stroke-linecap="round" stroke="currentColor" fill="currentColor" d="M0.7978 -3.5450C1.7751 -3.9774 3.1249 -3.4974 3.6098 -2.5450L3.6098 -2.5450C3.0847 -3.3844 1.7349 -3.8644 0.7978 -3.5450z"/>
</g>
<g transform="translate(15.6241, 6.5584)">
<path stroke-width="0.0800" stroke-linejoin="round" stroke-linecap="round" stroke="currentColor" fill="currentColor" d="M0.8403 -2.5450C1.8938 -2.8819 3.2563 -2.2278 3.6523 -1.1950L3.6523 -1.1950C3.2044 -2.1196 1.8419 -2.7737 0.8403 -2.5450z"/>
</g>
<g transform="translate(21.4983, 6.5584)">
<path stroke-width="0.0800" stroke-linejoin="round" stroke-linecap="round" stroke="currentColor" fill="currentColor" d="M0.7978 -1.1988C1.7751 -1.6396 3.1249 -1.1596 3.6098 -0.1988L3.6098 -0.1988C3.0847 -1.0465 1.7349 -1.5265 0.7978 -1.1988z"/>
</g>
<g transform="translate(27.3725, 6.5584)">
<path stroke-width="0.0800" stroke-linejoin="round" stroke-linecap="round" stroke="currentColor" fill="currentColor" d="M0.7978 -0.1988C1.7751 -0.6396 3.1249 -0.1596 3.6098 0.8012L3.6098 0.8012C3.0847 -0.0465 1.7349 -0.5265 0.7978 -0.1988z"/>
</g>
<g transform="translate(9.7500, 7.7484)">
<polygon stroke-linejoin="round" stroke-linecap="round" stroke-width="0.0800" fill="currentColor" stroke="currentColor" points="20.5245 2.3000 20.5245 2.7000 0.0400 0.2000 0.0400 -0.2000"/>
</g>
<g transform="translate(9.7500, 8.5584)">
<polygon stroke-linejoin="round" stroke-linecap="round" stroke-width="0.0800" fill="currentColor" stroke="currentColor" points="20.5245 2.3000 20.5245 2.7000 0.0400 0.2000 0.0400 -0.2000"/>
</g>
<g transform="translate(42.4069, 6.5584)">
<path stroke-width="0.0800" stroke-linejoin="round" stroke-linecap="round" stroke="currentColor" fill="currentColor" d="M0.7222 -4.0450C2.6441 -5.1725 8.4449 -4.2253 9.9084 -2.5450L9.9084 -2.5450C8.4256 -4.1069 2.6248 -5.0541 0.7222 -4.0450z"/>
</g>
<g transform="translate(55.9357, 6.5584)">
<path stroke-width="0.0800" stroke-linejoin="round" stroke-linecap="round" stroke="currentColor" fill="currentColor" d="M0.5820 -3.0450C1.7077 -4.4295 5.1986 -4.9995 6.7062 -4.0450L6.7062 -4.0450C5.2179 -4.8810 1.7271 -4.3110 0.5820 -3.0450z"/>
</g>
<g transform="translate(39.3448, 9.6906)">
<polygon stroke-linejoin="round" stroke-linecap="round" stroke-width="0.0800" fill="currentColor" stroke="currentColor" points="12.3383 -1.3322 12.3383 -0.9322 0.0400 0.2000 0.0400 -0.2000"/>
</g>
<g transform="translate(33.2466, 11.0584)">
<polygon stroke-linejoin="round" stroke-linecap="round" stroke-width="0.0800" fill="currentColor" stroke="currentColor" points="18.4365 -1.8900 18.4365 -1.4900 0.0400 0.2000 0.0400 -0.2000"/>
</g>
<g transform="translate(67.9340, 6.5584)">
<path stroke-width="0.0800" stroke-linejoin="round" stroke-linecap="round" stroke="currentColor" fill="currentColor" d="M0.6521 -2.5450C1.9745 -3.7217 5.4538 -3.7217 6.7763 -2.5450L6.7763 -2.5450C5.4538 -3.6017 1.9745 -3.6017 0.6521 -2.5450z"/>
</g>
<g transform="translate(55.9357, 7.5584)">
<polygon stroke-linejoin="round" stroke-linecap="round" stroke-width="0.0800" fill="currentColor" stroke="currentColor" points="21.2745 -0.2000 21.2745 0.2000 0.0400 0.2000 0.0400 -0.2000"/>
</g>
<g transform="translate(55.9357, 8.3684)">
<polygon stroke-linejoin="round" stroke-linecap="round" stroke-width="0.0800" fill="currentColor" stroke="currentColor" points="21.2745 -0.2000 21.2745 0.2000 0.0400 0.2000 0.0400 -0.2000"/>
</g>
<g transform="translate(79.5823, 6.5584)">
<path transform="scale(0.0040, -0.0040)" d="M0 119c0 8 5 15 13 18l46 17v158c0 10 8 19 18 19s19 -9 19 -19v-145l83 31v158c0 10 9 19 19 19s18 -9 18 -19v-145l32 12c2 1 5 1 7 1c11 0 20 -9 20 -20v-60c0 -8 -5 -16 -13 -19l-46 -16v-160l32 11c2 1 5 1 7 1c11 0 20 -9 20 -20v-60c0 -8 -5 -15 -13 -18l-46 -17
v-158c0 -10 -8 -19 -18 -19s-19 9 -19 19v145l-83 -31v-158c0 -10 -9 -19 -19 -19s-18 9 -18 19v145l-32 -12c-2 -1 -5 -1 -7 -1c-11 0 -20 9 -20 20v60c0 8 5 16 13 19l46 16v160l-32 -11c-2 -1 -5 -1 -7 -1c-11 0 -20 9 -20 20v60zM179 95l-83 -30v-160l83 30v160z" fill="currentColor"/>
</g>
<g transform="translate(87.1305, 3.5584)">
<path transform="scale(0.0040, -0.0040)" d="M218 136c66 0 108 -36 108 -89c0 -89 -113 -183 -218 -183c-66 0 -108 36 -108 89c0 89 113 183 218 183z" fill="currentColor"/>
</g>
<g transform="translate(87.3217, 2.5134)">
<path transform="scale(0.0022, -0.0022)" d="M148 501c10 0 41 -15 72 -15c32 0 63 15 76 15c15 0 26 -11 26 -21c0 -4 -1 -7 -4 -10l-264 -291h134v4c0 60 50 41 75 85c7 11 8 24 14 36c3 7 10 10 17 10c11 0 24 -8 24 -25v-110h70c18 0 27 -14 27 -27s-9 -27 -27 -27h-70c2 -45 36 -82 80 -82c14 0 22 -10 22 -21
s-8 -22 -22 -22c-49 0 -96 14 -145 14s-97 -14 -146 -14c-14 0 -21 11 -21 22s7 21 21 21c44 0 79 37 81 82h-134c-43 0 -57 25 -57 42c0 5 1 10 3 12c73 81 123 182 123 291c0 17 11 31 25 31z" fill="currentColor"/>
</g>
<g transform="translate(87.1955, 6.5584)">
<rect x="-0.0650" y="-2.8139" width="0.1300" height="5.7505" ry="0.0400" fill="currentColor"/>
</g>
<g transform="translate(82.7865, 6.0584)">
<path transform="scale(0.0040, -0.0040)" d="M0 0c0 31 25 56 56 56s56 -25 56 -56s-25 -56 -56 -56s-56 25 -56 56z" fill="currentColor"/>
</g>
<g transform="translate(90.1926, 4.0584)">
<path transform="scale(0.0040, -0.0040)" d="M218 136c66 0 108 -36 108 -89c0 -89 -113 -183 -218 -183c-66 0 -108 36 -108 89c0 89 113 183 218 183z" fill="currentColor"/>
</g>
<g transform="translate(90.2576, 6.5584)">
<rect x="-0.0650" y="-2.3139" width="0.1300" height="5.2190" ry="0.0400" fill="currentColor"/>
</g>
<g transform="translate(93.2547, 4.5584)">
<path transform="scale(0.0040, -0.0040)" d="M218 136c66 0 108 -36 108 -89c0 -89 -113 -183 -218 -183c-66 0 -108 36 -108 89c0 89 113 183 218 183z" fill="currentColor"/>
</g>
<g transform="translate(93.3197, 6.5584)">
<rect x="-0.0650" y="-1.8139" width="0.1300" height="4.6875" ry="0.0400" fill="currentColor"/>
</g>
<g transform="translate(96.3168, 5.0584)">
<path transform="scale(0.0040, -0.0040)" d="M218 136c66 0 108 -36 108 -89c0 -89 -113 -183 -218 -183c-66 0 -108 36 -108 89c0 89 113 183 218 183z" fill="currentColor"/>
</g>
<g transform="translate(24.3754, 6.5584)">
<rect x="-0.0650" y="1.1861" width="0.1300" height="2.5919" ry="0.0400" fill="currentColor"/>
</g>
<g transform="translate(18.4362, 6.5584)">
<path transform="scale(0.0040, -0.0040)" d="M218 136c66 0 108 -36 108 -89c0 -89 -113 -183 -218 -183c-66 0 -108 36 -108 89c0 89 113 183 218 183z" fill="currentColor"/>
</g>
<g transform="translate(18.5012, 6.5584)">
<rect x="-0.0650" y="0.1861" width="0.1300" height="2.8778" ry="0.0400" fill="currentColor"/>
</g>
<g transform="translate(21.4983, 6.5584)">
<path transform="scale(0.0040, -0.0040)" d="M218 136c66 0 108 -36 108 -89c0 -89 -113 -183 -218 -183c-66 0 -108 36 -108 89c0 89 113 183 218 183z" fill="currentColor"/>
</g>
<g transform="translate(21.5633, 6.5584)">
<rect x="-0.0650" y="0.1861" width="0.1300" height="3.2500" ry="0.0400" fill="currentColor"/>
</g>
<g transform="translate(24.3104, 7.5584)">
<path transform="scale(0.0040, -0.0040)" d="M218 136c66 0 108 -36 108 -89c0 -89 -113 -183 -218 -183c-66 0 -108 36 -108 89c0 89 113 183 218 183z" fill="currentColor"/>
</g>
<g transform="translate(27.3725, 7.5584)">
<path transform="scale(0.0040, -0.0040)" d="M218 136c66 0 108 -36 108 -89c0 -89 -113 -183 -218 -183c-66 0 -108 36 -108 89c0 89 113 183 218 183z" fill="currentColor"/>
</g>
<g transform="translate(27.4375, 6.5584)">
<rect x="-0.0650" y="1.1861" width="0.1300" height="2.9641" ry="0.0400" fill="currentColor"/>
</g>
<g transform="translate(30.1845, 8.5584)">
<path transform="scale(0.0040, -0.0040)" d="M218 136c66 0 108 -36 108 -89c0 -89 -113 -183 -218 -183c-66 0 -108 36 -108 89c0 89 113 183 218 183z" fill="currentColor"/>
</g>
<g transform="translate(30.2495, 6.5584)">
<rect x="-0.0650" y="2.1861" width="0.1300" height="2.3060" ry="0.0400" fill="currentColor"/>
</g>
<g transform="translate(9.7500, 4.0584)">
<path transform="scale(0.0040, -0.0040)" d="M218 136c66 0 108 -36 108 -89c0 -89 -113 -183 -218 -183c-66 0 -108 36 -108 89c0 89 113 183 218 183z" fill="currentColor"/>
</g>
<g color="rgb(100.0000%, 100.0000%, 100.0000%)">
<g transform="translate(0.0000, 6.5584)">
<rect x="0.0000" y="-2.0812" width="3.7500" height="4.1625" ry="0.0000" fill="currentColor"/>
</g>
</g>
<g transform="translate(0.6000, 6.5584)">
<path transform="scale(0.0040, -0.0040)" d="M0 0c0 31 25 56 56 56s56 -25 56 -56s-25 -56 -56 -56s-56 25 -56 56z" fill="currentColor"/>
</g>
<g transform="translate(1.6500, 6.5584)">
<path transform="scale(0.0040, -0.0040)" d="M0 0c0 31 25 56 56 56s56 -25 56 -56s-25 -56 -56 -56s-56 25 -56 56z" fill="currentColor"/>
</g>
<g transform="translate(2.7000, 6.5584)">
<path transform="scale(0.0040, -0.0040)" d="M0 0c0 31 25 56 56 56s56 -25 56 -56s-25 -56 -56 -56s-56 25 -56 56z" fill="currentColor"/>
</g>
<g transform="translate(4.7500, 5.5584)">
<path transform="scale(0.0040, -0.0040)" d="M557 -125c0 28 23 51 51 51s51 -23 51 -51s-23 -51 -51 -51s-51 23 -51 51zM557 125c0 28 23 51 51 51s51 -23 51 -51s-23 -51 -51 -51s-51 23 -51 51zM232 263c172 0 293 -88 293 -251c0 -263 -263 -414 -516 -521c-3 -3 -6 -4 -9 -4c-7 0 -13 6 -13 13c0 3 1 6 4 9
c202 118 412 265 412 493c0 120 -63 235 -171 235c-74 0 -129 -54 -154 -126c11 5 22 8 34 8c55 0 100 -45 100 -100c0 -58 -44 -106 -100 -106c-60 0 -112 47 -112 106c0 133 102 244 232 244z" fill="currentColor"/>
</g>
<g transform="translate(9.8150, 6.5584)">
<rect x="-0.0650" y="-2.3139" width="0.1300" height="4.3218" ry="0.0400" fill="currentColor"/>
</g>
<g transform="translate(-1.1267, 3.5084)">
<text font-family="serif" font-size="1.7459" text-anchor="start" fill="currentColor">
<tspan>4</tspan>
</text>
</g>
<g transform="translate(12.5621, 5.0584)">
<path transform="scale(0.0040, -0.0040)" d="M218 136c66 0 108 -36 108 -89c0 -89 -113 -183 -218 -183c-66 0 -108 36 -108 89c0 89 113 183 218 183z" fill="currentColor"/>
</g>
<g transform="translate(12.6271, 6.5584)">
<rect x="-0.0650" y="-1.3139" width="0.1300" height="3.6637" ry="0.0400" fill="currentColor"/>
</g>
<g transform="translate(15.6241, 5.0584)">
<path transform="scale(0.0040, -0.0040)" d="M218 136c66 0 108 -36 108 -89c0 -89 -113 -183 -218 -183c-66 0 -108 36 -108 89c0 89 113 183 218 183z" fill="currentColor"/>
</g>
<g transform="translate(15.6891, 6.5584)">
<rect x="-0.0650" y="-1.3139" width="0.1300" height="4.0359" ry="0.0400" fill="currentColor"/>
</g>
<g transform="translate(48.5311, 4.5584)">
<path transform="scale(0.0040, -0.0040)" d="M218 136c66 0 108 -36 108 -89c0 -89 -113 -183 -218 -183c-66 0 -108 36 -108 89c0 89 113 183 218 183z" fill="currentColor"/>
</g>
<g transform="translate(42.4069, 3.5584)">
<path transform="scale(0.0040, -0.0040)" d="M218 136c66 0 108 -36 108 -89c0 -89 -113 -183 -218 -183c-66 0 -108 36 -108 89c0 89 113 183 218 183z" fill="currentColor"/>
</g>
<g transform="translate(43.0590, 2.0800)">
<path transform="scale(0.0040, -0.0040)" d="M128 508c2 7 9 12 17 12c10 0 18 -7 18 -17c0 -2 -1 -4 -1 -6l-145 -485c-2 -7 -9 -12 -17 -12s-15 5 -17 12l-145 485v6c0 10 7 17 17 17c8 0 15 -5 17 -12l88 -295l40 -164l40 164z" fill="currentColor"/>
</g>
<g transform="translate(42.4719, 6.5584)">
<rect x="-0.0650" y="-2.8139" width="0.1300" height="6.4701" ry="0.0400" fill="currentColor"/>
</g>
<g transform="translate(45.4690, 4.0584)">
<path transform="scale(0.0040, -0.0040)" d="M218 136c66 0 108 -36 108 -89c0 -89 -113 -183 -218 -183c-66 0 -108 36 -108 89c0 89 113 183 218 183z" fill="currentColor"/>
</g>
<g transform="translate(45.5340, 6.5584)">
<rect x="-0.0650" y="-2.3139" width="0.1300" height="5.6900" ry="0.0400" fill="currentColor"/>
</g>
<g transform="translate(48.5961, 6.5584)">
<rect x="-0.0650" y="-1.8139" width="0.1300" height="4.9099" ry="0.0400" fill="currentColor"/>
</g>
<g transform="translate(51.5932, 5.0584)">
<path transform="scale(0.0040, -0.0040)" d="M218 136c66 0 108 -36 108 -89c0 -89 -113 -183 -218 -183c-66 0 -108 36 -108 89c0 89 113 183 218 183z" fill="currentColor"/>
</g>
<g transform="translate(51.6582, 6.5584)">
<rect x="-0.0650" y="-1.3139" width="0.1300" height="4.1298" ry="0.0400" fill="currentColor"/>
</g>
<g transform="translate(55.9357, 4.5584)">
<path transform="scale(0.0040, -0.0040)" d="M218 136c66 0 108 -36 108 -89c0 -89 -113 -183 -218 -183c-66 0 -108 36 -108 89c0 89 113 183 218 183z" fill="currentColor"/>
</g>
<g transform="translate(56.1781, 2.8863)">
<path transform="scale(0.0022, -0.0022)" d="M194 486c16 0 29 15 41 15c13 0 24 -13 24 -31v-341c0 -47 35 -86 81 -86c14 0 21 -10 21 -21s-7 -22 -21 -22c-49 0 -97 14 -146 14s-96 -14 -145 -14c-14 0 -22 11 -22 22s8 21 22 21c46 0 80 39 80 86v137c0 23 -16 35 -30 35c-7 0 -13 -4 -17 -11l-34 -65
c-5 -10 -14 -15 -23 -15c-14 0 -28 12 -28 27c0 4 1 8 3 13l129 250c2 4 7 6 11 6c18 0 37 -20 54 -20z" fill="currentColor"/>
</g>
<g transform="translate(33.3116, 6.5584)">
<rect x="-0.0650" y="2.1861" width="0.1300" height="2.3079" ry="0.0400" fill="currentColor"/>
</g>
<g transform="translate(39.3448, 4.0584)">
<path transform="scale(0.0040, -0.0040)" d="M218 136c66 0 108 -36 108 -89c0 -89 -113 -183 -218 -183c-66 0 -108 36 -108 89c0 89 113 183 218 183z" fill="currentColor"/>
</g>
<g transform="translate(35.0008, 8.0584)">
<path transform="scale(0.0040, -0.0040)" d="M0 0c0 31 25 56 56 56s56 -25 56 -56s-25 -56 -56 -56s-56 25 -56 56z" fill="currentColor"/>
</g>
<g transform="translate(33.8987, 4.2584)">
<path transform="scale(0.0040, -0.0040)" d="M-178 333h356c6 0 10 -4 10 -10v-308c0 -8 -7 -15 -15 -15s-16 7 -16 15v185h-314v-185c0 -8 -7 -15 -15 -15s-16 7 -16 15v308c0 6 4 10 10 10z" fill="currentColor"/>
</g>
<g transform="translate(33.2466, 8.5584)">
<path transform="scale(0.0040, -0.0040)" d="M218 136c66 0 108 -36 108 -89c0 -89 -113 -183 -218 -183c-66 0 -108 36 -108 89c0 89 113 183 218 183z" fill="currentColor"/>
</g>
<g transform="translate(39.4098, 6.5584)">
<rect x="-0.0650" y="-2.3139" width="0.1300" height="6.2502" ry="0.0400" fill="currentColor"/>
</g>
<g transform="translate(39.9970, 3.3134)">
<path transform="scale(0.0040, -0.0040)" d="M-178 333h356c6 0 10 -4 10 -10v-308c0 -8 -7 -15 -15 -15s-16 7 -16 15v185h-314v-185c0 -8 -7 -15 -15 -15s-16 7 -16 15v308c0 6 4 10 10 10z" fill="currentColor"/>
</g>
<g transform="translate(0.0000, 19.3484)">
<rect x="26.6077" y="-0.1000" width="1.9563" height="0.2000" ry="0.1000" fill="currentColor"/>
</g>
<g transform="translate(0.0000, 19.3484)">
<rect x="24.1034" y="-0.1000" width="1.9563" height="0.2000" ry="0.1000" fill="currentColor"/>
</g>
<g transform="translate(0.0000, 18.3484)">
<line stroke-linejoin="round" stroke-linecap="round" stroke-width="0.1000" stroke="currentColor" x1="0.0500" y1="0" x2="45.0009" y2="0"/>
</g>
<g transform="translate(0.0000, 17.3484)">
<line stroke-linejoin="round" stroke-linecap="round" stroke-width="0.1000" stroke="currentColor" x1="0.0500" y1="0" x2="45.0009" y2="0"/>
</g>
<g transform="translate(0.0000, 16.3484)">
<line stroke-linejoin="round" stroke-linecap="round" stroke-width="0.1000" stroke="currentColor" x1="0.0500" y1="0" x2="45.0009" y2="0"/>
</g>
<g transform="translate(0.0000, 15.3484)">
<line stroke-linejoin="round" stroke-linecap="round" stroke-width="0.1000" stroke="currentColor" x1="0.0500" y1="0" x2="45.0009" y2="0"/>
</g>
<g transform="translate(0.0000, 14.3484)">
<line stroke-linejoin="round" stroke-linecap="round" stroke-width="0.1000" stroke="currentColor" x1="0.0500" y1="0" x2="45.0009" y2="0"/>
</g>
<g transform="translate(44.8609, 16.3484)">
<rect x="0.0000" y="-2.0000" width="0.1900" height="4.0000" ry="0.0000" fill="currentColor"/>
</g>
<g transform="translate(31.5899, 17.3484)">
<path transform="scale(0.0040, -0.0040)" d="M218 136c66 0 108 -36 108 -89c0 -89 -113 -183 -218 -183c-66 0 -108 36 -108 89c0 89 113 183 218 183z" fill="currentColor"/>
</g>
<g transform="translate(32.8291, 16.3484)">
<rect x="-0.0650" y="-2.9853" width="0.1300" height="3.7992" ry="0.0400" fill="currentColor"/>
</g>
<g transform="translate(34.3441, 15.8484)">
<path transform="scale(0.0040, -0.0040)" d="M218 136c66 0 108 -36 108 -89c0 -89 -113 -183 -218 -183c-66 0 -108 36 -108 89c0 89 113 183 218 183z" fill="currentColor"/>
</g>
<g transform="translate(35.5833, 16.3484)">
<rect x="-0.0650" y="-3.4493" width="0.1300" height="2.7632" ry="0.0400" fill="currentColor"/>
</g>
<g transform="translate(28.1729, 16.3484)">
<rect x="-0.0650" y="-2.2009" width="0.1300" height="5.0148" ry="0.0400" fill="currentColor"/>
</g>
<g transform="translate(28.6879, 18.8484)">
<path transform="scale(0.0040, -0.0040)" d="M0 0c0 31 25 56 56 56s56 -25 56 -56s-25 -56 -56 -56s-56 25 -56 56z" fill="currentColor"/>
</g>
<g transform="translate(26.9337, 19.3484)">
<path transform="scale(0.0040, -0.0040)" d="M218 136c66 0 108 -36 108 -89c0 -89 -113 -183 -218 -183c-66 0 -108 36 -108 89c0 89 113 183 218 183z" fill="currentColor"/>
</g>
<g transform="translate(25.6687, 16.3484)">
<rect x="-0.0650" y="-1.8193" width="0.1300" height="4.6332" ry="0.0400" fill="currentColor"/>
</g>
<g transform="translate(24.4295, 19.3484)">
<path transform="scale(0.0040, -0.0040)" d="M218 136c66 0 108 -36 108 -89c0 -89 -113 -183 -218 -183c-66 0 -108 36 -108 89c0 89 113 183 218 183z" fill="currentColor"/>
</g>
<g transform="translate(28.1079, 14.1584)">
<polygon stroke-linejoin="round" stroke-linecap="round" stroke-width="0.0800" fill="currentColor" stroke="currentColor" points="15.5130 -2.8200 15.5130 -2.4200 0.0400 0.2000 0.0400 -0.2000"/>
</g>
<g transform="translate(32.7641, 14.1840)">
<polygon stroke-linejoin="round" stroke-linecap="round" stroke-width="0.0800" fill="currentColor" stroke="currentColor" points="10.8568 -2.0356 10.8568 -1.6356 0.0400 0.2000 0.0400 -0.2000"/>
</g>
<g transform="translate(9.0742, 12.1584)">
<polygon stroke-linejoin="round" stroke-linecap="round" stroke-width="0.0800" fill="currentColor" stroke="currentColor" points="16.6195 2.1800 16.6195 2.5800 0.0400 0.2000 0.0400 -0.2000"/>
</g>
<g transform="translate(9.0742, 12.9684)">
<polygon stroke-linejoin="round" stroke-linecap="round" stroke-width="0.0800" fill="currentColor" stroke="currentColor" points="16.6195 2.1800 16.6195 2.5800 0.0400 0.2000 0.0400 -0.2000"/>
</g>
<g transform="translate(37.0983, 14.8484)">
<path transform="scale(0.0040, -0.0040)" d="M218 136c66 0 108 -36 108 -89c0 -89 -113 -183 -218 -183c-66 0 -108 36 -108 89c0 89 113 183 218 183z" fill="currentColor"/>
</g>
<g transform="translate(43.5959, 16.3484)">
<rect x="-0.0650" y="-4.7991" width="0.1300" height="2.6129" ry="0.0400" fill="currentColor"/>
</g>
<g transform="translate(42.3567, 14.3484)">
<path transform="scale(0.0040, -0.0040)" d="M218 136c66 0 108 -36 108 -89c0 -89 -113 -183 -218 -183c-66 0 -108 36 -108 89c0 89 113 183 218 183z" fill="currentColor"/>
</g>
<g transform="translate(40.8417, 16.3484)">
<rect x="-0.0650" y="-4.3351" width="0.1300" height="3.1490" ry="0.0400" fill="currentColor"/>
</g>
<g transform="translate(39.6025, 15.3484)">
<path transform="scale(0.0040, -0.0040)" d="M218 136c66 0 108 -36 108 -89c0 -89 -113 -183 -218 -183c-66 0 -108 36 -108 89c0 89 113 183 218 183z" fill="currentColor"/>
</g>
<g transform="translate(38.3375, 16.3484)">
<rect x="-0.0650" y="-3.9132" width="0.1300" height="2.2271" ry="0.0400" fill="currentColor"/>
</g>
<g transform="translate(7.9000, 14.8484)">
<path transform="scale(0.0040, -0.0040)" d="M218 136c66 0 108 -36 108 -89c0 -89 -113 -183 -218 -183c-66 0 -108 36 -108 89c0 89 113 183 218 183z" fill="currentColor"/>
</g>
<g transform="translate(13.8976, 16.3484)">
<rect x="-0.0650" y="-3.5009" width="0.1300" height="2.8148" ry="0.0400" fill="currentColor"/>
</g>
<g transform="translate(12.6584, 15.8484)">
<path transform="scale(0.0040, -0.0040)" d="M218 136c66 0 108 -36 108 -89c0 -89 -113 -183 -218 -183c-66 0 -108 36 -108 89c0 89 113 183 218 183z" fill="currentColor"/>
</g>
<g transform="translate(11.3934, 16.3484)">
<rect x="-0.0650" y="-3.8587" width="0.1300" height="3.1726" ry="0.0400" fill="currentColor"/>
</g>
<g transform="translate(10.1542, 15.8484)">
<path transform="scale(0.0040, -0.0040)" d="M218 136c66 0 108 -36 108 -89c0 -89 -113 -183 -218 -183c-66 0 -108 36 -108 89c0 89 113 183 218 183z" fill="currentColor"/>
</g>
<g transform="translate(9.1392, 16.3484)">
<rect x="-0.0650" y="-4.1807" width="0.1300" height="2.4946" ry="0.0400" fill="currentColor"/>
</g>
<g transform="translate(23.4145, 16.3484)">
<rect x="-0.0650" y="-2.1413" width="0.1300" height="3.9552" ry="0.0400" fill="currentColor"/>
</g>
<g transform="translate(-1.1267, 13.2737)">
<text font-family="serif" font-size="1.7459" text-anchor="start" fill="currentColor">
<tspan>6</tspan>
</text>
</g>
<g transform="translate(4.3000, 15.3484)">
<path transform="scale(0.0040, -0.0040)" d="M0 119c0 8 5 15 13 18l46 17v158c0 10 8 19 18 19s19 -9 19 -19v-145l83 31v158c0 10 9 19 19 19s18 -9 18 -19v-145l32 12c2 1 5 1 7 1c11 0 20 -9 20 -20v-60c0 -8 -5 -16 -13 -19l-46 -16v-160l32 11c2 1 5 1 7 1c11 0 20 -9 20 -20v-60c0 -8 -5 -15 -13 -18l-46 -17
v-158c0 -10 -8 -19 -18 -19s-19 9 -19 19v145l-83 -31v-158c0 -10 -9 -19 -19 -19s-18 9 -18 19v145l-32 -12c-2 -1 -5 -1 -7 -1c-11 0 -20 9 -20 20v60c0 8 5 16 13 19l46 16v160l-32 -11c-2 -1 -5 -1 -7 -1c-11 0 -20 9 -20 20v60zM179 95l-83 -30v-160l83 30v160z" fill="currentColor"/>
</g>
<g transform="translate(0.8000, 15.3484)">
<path transform="scale(0.0040, -0.0040)" d="M557 -125c0 28 23 51 51 51s51 -23 51 -51s-23 -51 -51 -51s-51 23 -51 51zM557 125c0 28 23 51 51 51s51 -23 51 -51s-23 -51 -51 -51s-51 23 -51 51zM232 263c172 0 293 -88 293 -251c0 -263 -263 -414 -516 -521c-3 -3 -6 -4 -9 -4c-7 0 -13 6 -13 13c0 3 1 6 4 9
c202 118 412 265 412 493c0 120 -63 235 -171 235c-74 0 -129 -54 -154 -126c11 5 22 8 34 8c55 0 100 -45 100 -100c0 -58 -44 -106 -100 -106c-60 0 -112 47 -112 106c0 133 102 244 232 244z" fill="currentColor"/>
</g>
<g transform="translate(22.1753, 18.3484)">
<path transform="scale(0.0040, -0.0040)" d="M218 136c66 0 108 -36 108 -89c0 -89 -113 -183 -218 -183c-66 0 -108 36 -108 89c0 89 113 183 218 183z" fill="currentColor"/>
</g>
<g transform="translate(20.9103, 16.3484)">
<rect x="-0.0650" y="-2.4991" width="0.1300" height="4.3130" ry="0.0400" fill="currentColor"/>
</g>
<g transform="translate(19.6711, 18.3484)">
<path transform="scale(0.0040, -0.0040)" d="M218 136c66 0 108 -36 108 -89c0 -89 -113 -183 -218 -183c-66 0 -108 36 -108 89c0 89 113 183 218 183z" fill="currentColor"/>
</g>
<g transform="translate(18.6561, 16.3484)">
<rect x="-0.0650" y="-2.8211" width="0.1300" height="3.6350" ry="0.0400" fill="currentColor"/>
</g>
<g transform="translate(17.4169, 17.3484)">
<path transform="scale(0.0040, -0.0040)" d="M218 136c66 0 108 -36 108 -89c0 -89 -113 -183 -218 -183c-66 0 -108 36 -108 89c0 89 113 183 218 183z" fill="currentColor"/>
</g>
<g transform="translate(16.1519, 16.3484)">
<rect x="-0.0650" y="-3.1789" width="0.1300" height="3.9928" ry="0.0400" fill="currentColor"/>
</g>
<g transform="translate(14.9126, 17.3484)">
<path transform="scale(0.0040, -0.0040)" d="M218 136c66 0 108 -36 108 -89c0 -89 -113 -183 -218 -183c-66 0 -108 36 -108 89c0 89 113 183 218 183z" fill="currentColor"/>
</g>
</svg>
