<svg xmlns="http://www.w3.org/2000/svg" xmlns:xlink="http://www.w3.org/1999/xlink" version="1.2" width="181.98mm" height="36.20mm" viewBox="-1.1267 -0.0000 103.5567 20.6003">
<style type="text/css">
<![CDATA[
tspan { white-space: pre; }
]]>
</style>
<g transform="translate(0.0000, 8.5597)">
<line stroke-linejoin="round" stroke-linecap="round" stroke-width="0.1000" stroke="currentColor" x1="0.0500" y1="0" x2="102.3799" y2="0"/>
</g>
<g transform="translate(0.0000, 7.5597)">
<line stroke-linejoin="round" stroke-linecap="round" stroke-width="0.1000" stroke="currentColor" x1="0.0500" y1="0" x2="102.3799" y2="0"/>
</g>
<g transform="translate(0.0000, 6.5597)">
<line stroke-linejoin="round" stroke-linecap="round" stroke-width="0.1000" stroke="currentColor" x1="0.0500" y1="0" x2="102.3799" y2="0"/>
</g>
<g transform="translate(0.0000, 5.5597)">
<line stroke-linejoin="round" stroke-linecap="round" stroke-width="0.1000" stroke="currentColor" x1="0.0500" y1="0" x2="102.3799" y2="0"/>
</g>
<g transform="translate(0.0000, 4.5597)">
<line stroke-linejoin="round" stroke-linecap="round" stroke-width="0.1000" stroke="currentColor" x1="0.0500" y1="0" x2="102.3799" y2="0"/>
</g>
<g transform="translate(0.0000, 3.5597)">
<rect x="86.5067" y="-0.1000" width="1.9563" height="0.2000" ry="0.1000" fill="currentColor"/>
</g>
<g transform="translate(0.0000, 3.5597)">
<rect x="60.9248" y="-0.1000" width="1.9563" height="0.2000" ry="0.1000" fill="currentColor"/>
</g>
<g transform="translate(0.0000, 3.5597)">
<rect x="40.9208" y="-0.1000" width="1.9563" height="0.2000" ry="0.1000" fill="currentColor"/>
</g>
<g transform="translate(53.4967, 6.5597)">
<rect x="0.0000" y="-2.0000" width="0.1900" height="4.0000" ry="0.0000" fill="currentColor"/>
</g>
<g transform="translate(102.2399, 6.5597)">
<rect x="0.0000" y="-2.0000" width="0.1900" height="4.0000" ry="0.0000" fill="currentColor"/>
</g>
<g transform="translate(73.4873, 5.0597)">
<path transform="scale(0.0040, -0.0040)" d="M218 136c66 0 108 -36 108 -89c0 -89 -113 -183 -218 -183c-66 0 -108 36 -108 89c0 89 113 183 218 183z" fill="currentColor"/>
</g>
<g transform="translate(67.2441, 5.0597)">
<path transform="scale(0.0040, -0.0040)" d="M218 136c66 0 108 -36 108 -89c0 -89 -113 -183 -218 -183c-66 0 -108 36 -108 89c0 89 113 183 218 183z" fill="currentColor"/>
</g>
<g transform="translate(70.4307, 6.5597)">
<rect x="-0.0650" y="-0.8139" width="0.1300" height="2.7501" ry="0.0400" fill="currentColor"/>
</g>
<g transform="translate(70.3657, 5.5597)">
<path transform="scale(0.0040, -0.0040)" d="M218 136c66 0 108 -36 108 -89c0 -89 -113 -183 -218 -183c-66 0 -108 36 -108 89c0 89 113 183 218 183z" fill="currentColor"/>
</g>
<g transform="translate(67.3091, 6.5597)">
<rect x="-0.0650" y="-1.3139" width="0.1300" height="3.3126" ry="0.0400" fill="currentColor"/>
</g>
<g transform="translate(67.4694, 3.5296)">
<path transform="scale(0.0022, -0.0022)" d="M94 66c-60 0 -39 -66 -72 -66c-11 0 -22 7 -22 21c0 154 232 162 232 334c0 50 -17 102 -61 102c-33 0 -66 -14 -66 -44c0 -24 31 -37 31 -61c0 -34 -27 -61 -61 -61s-61 27 -61 61c0 84 72 148 157 148c98 0 190 -55 190 -145c0 -140 -131 -154 -225 -205
c85 -2 113 -61 165 -61c45 0 28 41 57 41c11 0 22 -8 22 -21c0 -29 -48 -109 -144 -109c-92 0 -96 66 -142 66z" fill="currentColor"/>
</g>
<g transform="translate(73.5523, 6.5597)">
<rect x="-0.0650" y="-1.3139" width="0.1300" height="3.1877" ry="0.0400" fill="currentColor"/>
</g>
<g transform="translate(76.6090, 4.5597)">
<path transform="scale(0.0040, -0.0040)" d="M218 136c66 0 108 -36 108 -89c0 -89 -113 -183 -218 -183c-66 0 -108 36 -108 89c0 89 113 183 218 183z" fill="currentColor"/>
</g>
<g transform="translate(76.6740, 6.5597)">
<rect x="-0.0650" y="-1.8139" width="0.1300" height="3.6252" ry="0.0400" fill="currentColor"/>
</g>
<g transform="translate(80.5806, 6.5597)">
<path transform="scale(0.0040, -0.0040)" d="M218 136c66 0 108 -36 108 -89c0 -89 -113 -183 -218 -183c-66 0 -108 36 -108 89c0 89 113 183 218 183z" fill="currentColor"/>
</g>
<g transform="translate(81.2327, 4.2597)">
<path transform="scale(0.0040, -0.0040)" d="M-297 227c0 -15 8 -30 39 -30c10 0 46 2 103 28l5 24c-23 17 -50 29 -81 29c-51 0 -66 -31 -66 -51zM-26 104c0 -61 -47 -115 -98 -115c-39 0 -56 44 -56 91c0 14 1 28 4 41l15 76c-20 -8 -63 -25 -101 -25c-19 0 -60 6 -60 51c0 38 32 80 96 80c31 0 58 -10 82 -25
l46 232c6 -3 13 -5 20 -5c22 0 48 16 68 35l-53 -266l64 36c26 14 51 20 74 20c29 0 53 -10 64 -28c18 20 44 30 69 30c36 0 69 -22 69 -69c0 -49 -31 -90 -65 -90c-25 0 -38 22 -38 48c0 50 37 64 60 64h3c-8 14 -23 20 -38 20c-24 0 -50 -16 -55 -43l-54 -270
c-11 7 -24 11 -38 11s-29 -4 -43 -11l54 270v7c0 16 -12 26 -29 26c-7 0 -16 -3 -24 -7l-79 -44l-7 -31c27 -31 50 -67 50 -109zM-86 39c23 0 35 34 35 61c0 30 -14 55 -32 78l-5 -27c-4 -18 -13 -56 -13 -83c0 -17 4 -29 15 -29z" fill="currentColor"/>
</g>
<g transform="translate(82.3348, 6.0597)">
<path transform="scale(0.0040, -0.0040)" d="M0 0c0 31 25 56 56 56s56 -25 56 -56s-25 -56 -56 -56s-56 25 -56 56z" fill="currentColor"/>
</g>
<g transform="translate(80.6456, 6.5597)">
<rect x="-0.0650" y="0.1861" width="0.1300" height="3.2967" ry="0.0400" fill="currentColor"/>
</g>
<g transform="translate(55.0726, 6.5597)">
<rect x="-0.0650" y="-1.8139" width="0.1300" height="2.8139" ry="0.0400" fill="currentColor"/>
</g>
<g transform="translate(89.9544, 6.7497)">
<polygon stroke-linejoin="round" stroke-linecap="round" stroke-width="0.0800" fill="currentColor" stroke="currentColor" points="9.4549 0.8000 9.4549 1.2000 0.0400 0.2000 0.0400 -0.2000"/>
</g>
<g transform="translate(89.9544, 7.5597)">
<polygon stroke-linejoin="round" stroke-linecap="round" stroke-width="0.0800" fill="currentColor" stroke="currentColor" points="9.4549 0.8000 9.4549 1.2000 0.0400 0.2000 0.0400 -0.2000"/>
</g>
<g transform="translate(58.1292, 4.0597)">
<path transform="scale(0.0040, -0.0040)" d="M218 136c66 0 108 -36 108 -89c0 -89 -113 -183 -218 -183c-66 0 -108 36 -108 89c0 89 113 183 218 183z" fill="currentColor"/>
</g>
<g transform="translate(58.1942, 6.5597)">
<rect x="-0.0650" y="-2.3139" width="0.1300" height="3.3139" ry="0.0400" fill="currentColor"/>
</g>
<g transform="translate(61.2508, 3.5597)">
<path transform="scale(0.0040, -0.0040)" d="M218 136c66 0 108 -36 108 -89c0 -89 -113 -183 -218 -183c-66 0 -108 36 -108 89c0 89 113 183 218 183z" fill="currentColor"/>
</g>
<g transform="translate(61.3158, 6.5597)">
<rect x="-0.0650" y="-2.8139" width="0.1300" height="3.8139" ry="0.0400" fill="currentColor"/>
</g>
<g transform="translate(64.1224, 4.5597)">
<path transform="scale(0.0040, -0.0040)" d="M218 136c66 0 108 -36 108 -89c0 -89 -113 -183 -218 -183c-66 0 -108 36 -108 89c0 89 113 183 218 183z" fill="currentColor"/>
</g>
<g transform="translate(64.1874, 6.5597)">
<rect x="-0.0650" y="-1.8139" width="0.1300" height="2.8139" ry="0.0400" fill="currentColor"/>
</g>
<g transform="translate(99.3193, 5.5597)">
<path transform="scale(0.0040, -0.0040)" d="M218 136c66 0 108 -36 108 -89c0 -89 -113 -183 -218 -183c-66 0 -108 36 -108 89c0 89 113 183 218 183z" fill="currentColor"/>
</g>
<g transform="translate(99.3843, 6.5597)">
<rect x="-0.0650" y="-0.8139" width="0.1300" height="2.8070" ry="0.0400" fill="currentColor"/>
</g>
<g transform="translate(7.9000, 6.5597)">
<path stroke-width="0.0800" stroke-linejoin="round" stroke-linecap="round" stroke="currentColor" fill="currentColor" d="M0.7951 -3.5450C1.7841 -3.9898 3.1679 -3.5079 3.6667 -2.5450L3.6667 -2.5450C3.1284 -3.3946 1.7446 -3.8765 0.7951 -3.5450z"/>
</g>
<g transform="translate(13.8933, 6.5597)">
<path stroke-width="0.0800" stroke-linejoin="round" stroke-linecap="round" stroke="currentColor" fill="currentColor" d="M0.8371 -2.5450C1.9020 -2.8946 3.2985 -2.2381 3.7087 -1.1950L3.7087 -1.1950C3.2474 -2.1295 1.8510 -2.7860 0.8371 -2.5450z"/>
</g>
<g transform="translate(19.8865, 6.5597)">
<path stroke-width="0.0800" stroke-linejoin="round" stroke-linecap="round" stroke="currentColor" fill="currentColor" d="M0.5091 1.1961C1.0079 2.1613 2.3917 2.6432 3.3808 2.1961L3.3808 2.1961C2.4312 2.5298 1.0474 2.0479 0.5091 1.1961z"/>
</g>
<g transform="translate(7.9000, 7.5597)">
<polygon stroke-linejoin="round" stroke-linecap="round" stroke-width="0.0800" fill="currentColor" stroke="currentColor" points="8.9549 0.9900 8.9549 1.3900 0.0400 0.2000 0.0400 -0.2000"/>
</g>
<g transform="translate(7.9000, 8.3697)">
<polygon stroke-linejoin="round" stroke-linecap="round" stroke-width="0.0800" fill="currentColor" stroke="currentColor" points="8.9549 0.9900 8.9549 1.3900 0.0400 0.2000 0.0400 -0.2000"/>
</g>
<g transform="translate(25.8798, 6.5597)">
<path stroke-width="0.0800" stroke-linejoin="round" stroke-linecap="round" stroke="currentColor" fill="currentColor" d="M0.5287 2.1950C1.0657 3.1224 2.4451 3.5307 3.4003 3.0450L3.4003 3.0450C2.4791 3.4156 1.0998 3.0073 0.5287 2.1950z"/>
</g>
<g transform="translate(21.0607, 3.5597)">
<polygon stroke-linejoin="round" stroke-linecap="round" stroke-width="0.0800" fill="currentColor" stroke="currentColor" points="8.9549 0.8000 8.9549 1.2000 0.0400 0.2000 0.0400 -0.2000"/>
</g>
<g transform="translate(21.0607, 4.3697)">
<polygon stroke-linejoin="round" stroke-linecap="round" stroke-width="0.0800" fill="currentColor" stroke="currentColor" points="8.9549 0.8000 8.9549 1.2000 0.0400 0.2000 0.0400 -0.2000"/>
</g>
<g transform="translate(41.2468, 6.5597)">
<path stroke-width="0.0800" stroke-linejoin="round" stroke-linecap="round" stroke="currentColor" fill="currentColor" d="M0.7209 -4.0450C2.6591 -5.1854 8.6006 -4.2337 10.0858 -2.5450L10.0858 -2.5450C8.5816 -4.1152 2.6402 -5.0669 0.7209 -4.0450z"/>
</g>
<g transform="translate(37.0902, 8.9941)">
<polygon stroke-linejoin="round" stroke-linecap="round" stroke-width="0.0800" fill="currentColor" stroke="currentColor" points="1.1250 -0.6344 1.1250 -0.2344 0.0400 0.2000 0.0400 -0.2000"/>
</g>
<g transform="translate(31.8730, 11.7497)">
<polygon stroke-linejoin="round" stroke-linecap="round" stroke-width="0.0800" fill="currentColor" stroke="currentColor" points="6.3422 -2.5800 6.3422 -2.1800 0.0400 0.2000 0.0400 -0.2000"/>
</g>
<g transform="translate(55.0076, 6.5597)">
<path stroke-width="0.0800" stroke-linejoin="round" stroke-linecap="round" stroke="currentColor" fill="currentColor" d="M0.5833 -3.0450C1.7279 -4.4402 5.3035 -5.0129 6.8266 -4.0450L6.8266 -4.0450C5.3225 -4.8945 1.7469 -4.3217 0.5833 -3.0450z"/>
</g>
<g transform="translate(41.2468, 6.7497)">
<polygon stroke-linejoin="round" stroke-linecap="round" stroke-width="0.0800" fill="currentColor" stroke="currentColor" points="9.4549 0.6100 9.4549 1.0100 0.0400 0.2000 0.0400 -0.2000"/>
</g>
<g transform="translate(41.2468, 7.5597)">
<polygon stroke-linejoin="round" stroke-linecap="round" stroke-width="0.0800" fill="currentColor" stroke="currentColor" points="9.4549 0.6100 9.4549 1.0100 0.0400 0.2000 0.0400 -0.2000"/>
</g>
<g transform="translate(67.2441, 6.5597)">
<path stroke-width="0.0800" stroke-linejoin="round" stroke-linecap="round" stroke="currentColor" fill="currentColor" d="M0.6521 -2.5450C1.9916 -3.7338 5.5558 -3.7338 6.8954 -2.5450L6.8954 -2.5450C5.5558 -3.6138 1.9916 -3.6138 0.6521 -2.5450z"/>
</g>
<g transform="translate(55.0076, 6.7497)">
<polygon stroke-linejoin="round" stroke-linecap="round" stroke-width="0.0800" fill="currentColor" stroke="currentColor" points="9.2049 -0.2000 9.2049 0.2000 0.0400 0.2000 0.0400 -0.2000"/>
</g>
<g transform="translate(55.0076, 7.5597)">
<polygon stroke-linejoin="round" stroke-linecap="round" stroke-width="0.0800" fill="currentColor" stroke="currentColor" points="9.2049 -0.2000 9.2049 0.2000 0.0400 0.2000 0.0400 -0.2000"/>
</g>
<g transform="translate(67.2441, 7.7497)">
<polygon stroke-linejoin="round" stroke-linecap="round" stroke-width="0.0800" fill="currentColor" stroke="currentColor" points="9.4549 -0.3900 9.4549 0.0100 0.0400 0.2000 0.0400 -0.2000"/>
</g>
<g transform="translate(67.2441, 8.5597)">
<polygon stroke-linejoin="round" stroke-linecap="round" stroke-width="0.0800" fill="currentColor" stroke="currentColor" points="9.4549 -0.3900 9.4549 0.0100 0.0400 0.2000 0.0400 -0.2000"/>
</g>
<g transform="translate(85.7978, 7.8682)">
<polygon stroke-linejoin="round" stroke-linecap="round" stroke-width="0.0800" fill="currentColor" stroke="currentColor" points="1.1250 -0.5085 1.1250 -0.1085 0.0400 0.2000 0.0400 -0.2000"/>
</g>
<g transform="translate(80.5806, 10.0597)">
<polygon stroke-linejoin="round" stroke-linecap="round" stroke-width="0.0800" fill="currentColor" stroke="currentColor" points="6.3422 -1.8900 6.3422 -1.4900 0.0400 0.2000 0.0400 -0.2000"/>
</g>
<g transform="translate(79.1306, 6.5597)">
<path transform="scale(0.0040, -0.0040)" d="M0 119c0 8 5 15 13 18l46 17v158c0 10 8 19 18 19s19 -9 19 -19v-145l83 31v158c0 10 9 19 19 19s18 -9 18 -19v-145l32 12c2 1 5 1 7 1c11 0 20 -9 20 -20v-60c0 -8 -5 -16 -13 -19l-46 -16v-160l32 11c2 1 5 1 7 1c11 0 20 -9 20 -20v-60c0 -8 -5 -15 -13 -18l-46 -17
v-158c0 -10 -8 -19 -18 -19s-19 9 -19 19v145l-83 -31v-158c0 -10 -9 -19 -19 -19s-18 9 -18 19v145l-32 -12c-2 -1 -5 -1 -7 -1c-11 0 -20 9 -20 20v60c0 8 5 16 13 19l46 16v160l-32 -11c-2 -1 -5 -1 -7 -1c-11 0 -20 9 -20 20v60zM179 95l-83 -30v-160l83 30v160z" fill="currentColor"/>
</g>
<g transform="translate(86.8328, 3.5597)">
<path transform="scale(0.0040, -0.0040)" d="M218 136c66 0 108 -36 108 -89c0 -89 -113 -183 -218 -183c-66 0 -108 36 -108 89c0 89 113 183 218 183z" fill="currentColor"/>
</g>
<g transform="translate(87.0239, 2.5147)">
<path transform="scale(0.0022, -0.0022)" d="M148 501c10 0 41 -15 72 -15c32 0 63 15 76 15c15 0 26 -11 26 -21c0 -4 -1 -7 -4 -10l-264 -291h134v4c0 60 50 41 75 85c7 11 8 24 14 36c3 7 10 10 17 10c11 0 24 -8 24 -25v-110h70c18 0 27 -14 27 -27s-9 -27 -27 -27h-70c2 -45 36 -82 80 -82c14 0 22 -10 22 -21
s-8 -22 -22 -22c-49 0 -96 14 -145 14s-97 -14 -146 -14c-14 0 -21 11 -21 22s7 21 21 21c44 0 79 37 81 82h-134c-43 0 -57 25 -57 42c0 5 1 10 3 12c73 81 123 182 123 291c0 17 11 31 25 31z" fill="currentColor"/>
</g>
<g transform="translate(86.8978, 6.5597)">
<rect x="-0.0650" y="-2.8139" width="0.1300" height="4.6411" ry="0.0400" fill="currentColor"/>
</g>
<g transform="translate(89.9544, 4.0597)">
<path transform="scale(0.0040, -0.0040)" d="M218 136c66 0 108 -36 108 -89c0 -89 -113 -183 -218 -183c-66 0 -108 36 -108 89c0 89 113 183 218 183z" fill="currentColor"/>
</g>
<g transform="translate(90.0194, 6.5597)">
<rect x="-0.0650" y="-2.3139" width="0.1300" height="3.3207" ry="0.0400" fill="currentColor"/>
</g>
<g transform="translate(93.0760, 4.5597)">
<path transform="scale(0.0040, -0.0040)" d="M218 136c66 0 108 -36 108 -89c0 -89 -113 -183 -218 -183c-66 0 -108 36 -108 89c0 89 113 183 218 183z" fill="currentColor"/>
</g>
<g transform="translate(93.1410, 6.5597)">
<rect x="-0.0650" y="-1.8139" width="0.1300" height="3.1495" ry="0.0400" fill="currentColor"/>
</g>
<g transform="translate(96.1977, 5.0597)">
<path transform="scale(0.0040, -0.0040)" d="M218 136c66 0 108 -36 108 -89c0 -89 -113 -183 -218 -183c-66 0 -108 36 -108 89c0 89 113 183 218 183z" fill="currentColor"/>
</g>
<g transform="translate(96.2627, 6.5597)">
<rect x="-0.0650" y="-1.3139" width="0.1300" height="2.9783" ry="0.0400" fill="currentColor"/>
</g>
<g transform="translate(16.7649, 6.5597)">
<path transform="scale(0.0040, -0.0040)" d="M218 136c66 0 108 -36 108 -89c0 -89 -113 -183 -218 -183c-66 0 -108 36 -108 89c0 89 113 183 218 183z" fill="currentColor"/>
</g>
<g transform="translate(16.8299, 6.5597)">
<rect x="-0.0650" y="0.1861" width="0.1300" height="2.8053" ry="0.0400" fill="currentColor"/>
</g>
<g transform="translate(19.8865, 6.5597)">
<path transform="scale(0.0040, -0.0040)" d="M218 136c66 0 108 -36 108 -89c0 -89 -113 -183 -218 -183c-66 0 -108 36 -108 89c0 89 113 183 218 183z" fill="currentColor"/>
</g>
<g transform="translate(21.1257, 6.5597)">
<rect x="-0.0650" y="-2.9928" width="0.1300" height="2.8067" ry="0.0400" fill="currentColor"/>
</g>
<g transform="translate(22.7582, 7.5597)">
<path transform="scale(0.0040, -0.0040)" d="M218 136c66 0 108 -36 108 -89c0 -89 -113 -183 -218 -183c-66 0 -108 36 -108 89c0 89 113 183 218 183z" fill="currentColor"/>
</g>
<g transform="translate(23.9974, 6.5597)">
<rect x="-0.0650" y="-2.6735" width="0.1300" height="3.4874" ry="0.0400" fill="currentColor"/>
</g>
<g transform="translate(25.8798, 7.5597)">
<path transform="scale(0.0040, -0.0040)" d="M218 136c66 0 108 -36 108 -89c0 -89 -113 -183 -218 -183c-66 0 -108 36 -108 89c0 89 113 183 218 183z" fill="currentColor"/>
</g>
<g transform="translate(27.1190, 6.5597)">
<rect x="-0.0650" y="-2.3265" width="0.1300" height="3.1404" ry="0.0400" fill="currentColor"/>
</g>
<g transform="translate(28.7514, 8.5597)">
<path transform="scale(0.0040, -0.0040)" d="M218 136c66 0 108 -36 108 -89c0 -89 -113 -183 -218 -183c-66 0 -108 36 -108 89c0 89 113 183 218 183z" fill="currentColor"/>
</g>
<g transform="translate(29.9906, 6.5597)">
<rect x="-0.0650" y="-2.0072" width="0.1300" height="3.8211" ry="0.0400" fill="currentColor"/>
</g>
<g transform="translate(7.9000, 4.0597)">
<path transform="scale(0.0040, -0.0040)" d="M218 136c66 0 108 -36 108 -89c0 -89 -113 -183 -218 -183c-66 0 -108 36 -108 89c0 89 113 183 218 183z" fill="currentColor"/>
</g>
<g transform="translate(0.8000, 5.5597)">
<path transform="scale(0.0040, -0.0040)" d="M557 -125c0 28 23 51 51 51s51 -23 51 -51s-23 -51 -51 -51s-51 23 -51 51zM557 125c0 28 23 51 51 51s51 -23 51 -51s-23 -51 -51 -51s-51 23 -51 51zM232 263c172 0 293 -88 293 -251c0 -263 -263 -414 -516 -521c-3 -3 -6 -4 -9 -4c-7 0 -13 6 -13 13c0 3 1 6 4 9
c202 118 412 265 412 493c0 120 -63 235 -171 235c-74 0 -129 -54 -154 -126c11 5 22 8 34 8c55 0 100 -45 100 -100c0 -58 -44 -106 -100 -106c-60 0 -112 47 -112 106c0 133 102 244 232 244z" fill="currentColor"/>
</g>
<g transform="translate(4.3000, 5.5597)">
<path transform="scale(0.0040, -0.0040)" d="M0 119c0 8 5 15 13 18l46 17v158c0 10 8 19 18 19s19 -9 19 -19v-145l83 31v158c0 10 9 19 19 19s18 -9 18 -19v-145l32 12c2 1 5 1 7 1c11 0 20 -9 20 -20v-60c0 -8 -5 -16 -13 -19l-46 -16v-160l32 11c2 1 5 1 7 1c11 0 20 -9 20 -20v-60c0 -8 -5 -15 -13 -18l-46 -17
v-158c0 -10 -8 -19 -18 -19s-19 9 -19 19v145l-83 -31v-158c0 -10 -9 -19 -19 -19s-18 9 -18 19v145l-32 -12c-2 -1 -5 -1 -7 -1c-11 0 -20 9 -20 20v60c0 8 5 16 13 19l46 16v160l-32 -11c-2 -1 -5 -1 -7 -1c-11 0 -20 9 -20 20v60zM179 95l-83 -30v-160l83 30v160z" fill="currentColor"/>
</g>
<g transform="translate(7.9650, 6.5597)">
<rect x="-0.0650" y="-2.3139" width="0.1300" height="4.1325" ry="0.0400" fill="currentColor"/>
</g>
<g transform="translate(-1.1267, 3.5097)">
<text font-family="serif" font-size="1.7459" text-anchor="start" fill="currentColor">
<tspan>4</tspan>
</text>
</g>
<g transform="translate(10.7716, 5.0597)">
<path transform="scale(0.0040, -0.0040)" d="M218 136c66 0 108 -36 108 -89c0 -89 -113 -183 -218 -183c-66 0 -108 36 -108 89c0 89 113 183 218 183z" fill="currentColor"/>
</g>
<g transform="translate(10.8366, 6.5597)">
<rect x="-0.0650" y="-1.3139" width="0.1300" height="3.5124" ry="0.0400" fill="currentColor"/>
</g>
<g transform="translate(13.8933, 5.0597)">
<path transform="scale(0.0040, -0.0040)" d="M218 136c66 0 108 -36 108 -89c0 -89 -113 -183 -218 -183c-66 0 -108 36 -108 89c0 89 113 183 218 183z" fill="currentColor"/>
</g>
<g transform="translate(13.9583, 6.5597)">
<rect x="-0.0650" y="-1.3139" width="0.1300" height="3.9254" ry="0.0400" fill="currentColor"/>
</g>
<g transform="translate(47.5551, 6.5597)">
<rect x="-0.0650" y="-1.8139" width="0.1300" height="3.3520" ry="0.0400" fill="currentColor"/>
</g>
<g transform="translate(41.2468, 3.5597)">
<path transform="scale(0.0040, -0.0040)" d="M218 136c66 0 108 -36 108 -89c0 -89 -113 -183 -218 -183c-66 0 -108 36 -108 89c0 89 113 183 218 183z" fill="currentColor"/>
</g>
<g transform="translate(41.8990, 2.0800)">
<path transform="scale(0.0040, -0.0040)" d="M128 508c2 7 9 12 17 12c10 0 18 -7 18 -17c0 -2 -1 -4 -1 -6l-145 -485c-2 -7 -9 -12 -17 -12s-15 5 -17 12l-145 485v6c0 10 7 17 17 17c8 0 15 -5 17 -12l88 -295l40 -164l40 164z" fill="currentColor"/>
</g>
<g transform="translate(41.3118, 6.5597)">
<rect x="-0.0650" y="-2.8139" width="0.1300" height="3.8194" ry="0.0400" fill="currentColor"/>
</g>
<g transform="translate(44.3685, 4.0597)">
<path transform="scale(0.0040, -0.0040)" d="M218 136c66 0 108 -36 108 -89c0 -89 -113 -183 -218 -183c-66 0 -108 36 -108 89c0 89 113 183 218 183z" fill="currentColor"/>
</g>
<g transform="translate(44.4335, 6.5597)">
<rect x="-0.0650" y="-2.3139" width="0.1300" height="3.5857" ry="0.0400" fill="currentColor"/>
</g>
<g transform="translate(47.4901, 4.5597)">
<path transform="scale(0.0040, -0.0040)" d="M218 136c66 0 108 -36 108 -89c0 -89 -113 -183 -218 -183c-66 0 -108 36 -108 89c0 89 113 183 218 183z" fill="currentColor"/>
</g>
<g transform="translate(50.6117, 5.0597)">
<path transform="scale(0.0040, -0.0040)" d="M218 136c66 0 108 -36 108 -89c0 -89 -113 -183 -218 -183c-66 0 -108 36 -108 89c0 89 113 183 218 183z" fill="currentColor"/>
</g>
<g transform="translate(50.6767, 6.5597)">
<rect x="-0.0650" y="-1.3139" width="0.1300" height="3.1183" ry="0.0400" fill="currentColor"/>
</g>
<g transform="translate(55.0076, 4.5597)">
<path transform="scale(0.0040, -0.0040)" d="M218 136c66 0 108 -36 108 -89c0 -89 -113 -183 -218 -183c-66 0 -108 36 -108 89c0 89 113 183 218 183z" fill="currentColor"/>
</g>
<g transform="translate(55.2499, 2.8914)">
<path transform="scale(0.0022, -0.0022)" d="M194 486c16 0 29 15 41 15c13 0 24 -13 24 -31v-341c0 -47 35 -86 81 -86c14 0 21 -10 21 -21s-7 -22 -21 -22c-49 0 -97 14 -146 14s-96 -14 -145 -14c-14 0 -22 11 -22 22s8 21 22 21c46 0 80 39 80 86v137c0 23 -16 35 -30 35c-7 0 -13 -4 -17 -11l-34 -65
c-5 -10 -14 -15 -23 -15c-14 0 -28 12 -28 27c0 4 1 8 3 13l129 250c2 4 7 6 11 6c18 0 37 -20 54 -20z" fill="currentColor"/>
</g>
<g transform="translate(31.9380, 6.5597)">
<rect x="-0.0650" y="2.1861" width="0.1300" height="2.9797" ry="0.0400" fill="currentColor"/>
</g>
<g transform="translate(38.1252, 4.0597)">
<path transform="scale(0.0040, -0.0040)" d="M218 136c66 0 108 -36 108 -89c0 -89 -113 -183 -218 -183c-66 0 -108 36 -108 89c0 89 113 183 218 183z" fill="currentColor"/>
</g>
<g transform="translate(38.7773, 3.3147)">
<path transform="scale(0.0040, -0.0040)" d="M-178 333h356c6 0 10 -4 10 -10v-308c0 -8 -7 -15 -15 -15s-16 7 -16 15v185h-314v-185c0 -8 -7 -15 -15 -15s-16 7 -16 15v308c0 6 4 10 10 10z" fill="currentColor"/>
</g>
<g transform="translate(38.1902, 6.5597)">
<rect x="-0.0650" y="-2.3139" width="0.1300" height="5.1481" ry="0.0400" fill="currentColor"/>
</g>
<g transform="translate(33.6273, 8.0597)">
<path transform="scale(0.0040, -0.0040)" d="M0 0c0 31 25 56 56 56s56 -25 56 -56s-25 -56 -56 -56s-56 25 -56 56z" fill="currentColor"/>
</g>
<g transform="translate(32.5252, 4.2597)">
<path transform="scale(0.0040, -0.0040)" d="M-178 333h356c6 0 10 -4 10 -10v-308c0 -8 -7 -15 -15 -15s-16 7 -16 15v185h-314v-185c0 -8 -7 -15 -15 -15s-16 7 -16 15v308c0 6 4 10 10 10z" fill="currentColor"/>
</g>
<g transform="translate(31.8730, 8.5597)">
<path transform="scale(0.0040, -0.0040)" d="M218 136c66 0 108 -36 108 -89c0 -89 -113 -183 -218 -183c-66 0 -108 36 -108 89c0 89 113 183 218 183z" fill="currentColor"/>
</g>
<g transform="translate(0.0000, 18.3603)">
<line stroke-linejoin="round" stroke-linecap="round" stroke-width="0.1000" stroke="currentColor" x1="0.0500" y1="0" x2="44.6620" y2="0"/>
</g>
<g transform="translate(0.0000, 17.3603)">
<line stroke-linejoin="round" stroke-linecap="round" stroke-width="0.1000" stroke="currentColor" x1="0.0500" y1="0" x2="44.6620" y2="0"/>
</g>
<g transform="translate(0.0000, 16.3603)">
<line stroke-linejoin="round" stroke-linecap="round" stroke-width="0.1000" stroke="currentColor" x1="0.0500" y1="0" x2="44.6620" y2="0"/>
</g>
<g transform="translate(0.0000, 15.3603)">
<line stroke-linejoin="round" stroke-linecap="round" stroke-width="0.1000" stroke="currentColor" x1="0.0500" y1="0" x2="44.6620" y2="0"/>
</g>
<g transform="translate(0.0000, 14.3603)">
<line stroke-linejoin="round" stroke-linecap="round" stroke-width="0.1000" stroke="currentColor" x1="0.0500" y1="0" x2="44.6620" y2="0"/>
</g>
<g transform="translate(0.0000, 19.3603)">
<rect x="26.6077" y="-0.1000" width="1.9563" height="0.2000" ry="0.1000" fill="currentColor"/>
</g>
<g transform="translate(0.0000, 19.3603)">
<rect x="24.1034" y="-0.1000" width="1.9563" height="0.2000" ry="0.1000" fill="currentColor"/>
</g>
<g transform="translate(44.5220, 16.3603)">
<rect x="0.0000" y="-2.0000" width="0.1900" height="4.0000" ry="0.0000" fill="currentColor"/>
</g>
<g transform="translate(37.0094, 14.8603)">
<path transform="scale(0.0040, -0.0040)" d="M218 136c66 0 108 -36 108 -89c0 -89 -113 -183 -218 -183c-66 0 -108 36 -108 89c0 89 113 183 218 183z" fill="currentColor"/>
</g>
<g transform="translate(31.5899, 17.3603)">
<path transform="scale(0.0040, -0.0040)" d="M218 136c66 0 108 -36 108 -89c0 -89 -113 -183 -218 -183c-66 0 -108 36 -108 89c0 89 113 183 218 183z" fill="currentColor"/>
</g>
<g transform="translate(32.8291, 16.3603)">
<rect x="-0.0650" y="-1.9838" width="0.1300" height="2.7977" ry="0.0400" fill="currentColor"/>
</g>
<g transform="translate(34.2552, 15.8603)">
<path transform="scale(0.0040, -0.0040)" d="M218 136c66 0 108 -36 108 -89c0 -89 -113 -183 -218 -183c-66 0 -108 36 -108 89c0 89 113 183 218 183z" fill="currentColor"/>
</g>
<g transform="translate(34.3202, 16.3603)">
<rect x="-0.0650" y="-0.3139" width="0.1300" height="3.1174" ry="0.0400" fill="currentColor"/>
</g>
<g transform="translate(28.1729, 16.3603)">
<rect x="-0.0650" y="-0.8262" width="0.1300" height="3.6401" ry="0.0400" fill="currentColor"/>
</g>
<g transform="translate(28.6879, 18.8603)">
<path transform="scale(0.0040, -0.0040)" d="M0 0c0 31 25 56 56 56s56 -25 56 -56s-25 -56 -56 -56s-56 25 -56 56z" fill="currentColor"/>
</g>
<g transform="translate(26.9337, 19.3603)">
<path transform="scale(0.0040, -0.0040)" d="M218 136c66 0 108 -36 108 -89c0 -89 -113 -183 -218 -183c-66 0 -108 36 -108 89c0 89 113 183 218 183z" fill="currentColor"/>
</g>
<g transform="translate(25.6687, 16.3603)">
<rect x="-0.0650" y="-1.0091" width="0.1300" height="3.8230" ry="0.0400" fill="currentColor"/>
</g>
<g transform="translate(24.4295, 19.3603)">
<path transform="scale(0.0040, -0.0040)" d="M218 136c66 0 108 -36 108 -89c0 -89 -113 -183 -218 -183c-66 0 -108 36 -108 89c0 89 113 183 218 183z" fill="currentColor"/>
</g>
<g transform="translate(34.2552, 18.3603)">
<polygon stroke-linejoin="round" stroke-linecap="round" stroke-width="0.0800" fill="currentColor" stroke="currentColor" points="8.1026 -1.0100 8.1026 -0.6100 0.0400 0.2000 0.0400 -0.2000"/>
</g>
<g transform="translate(34.2552, 19.1703)">
<polygon stroke-linejoin="round" stroke-linecap="round" stroke-width="0.0800" fill="currentColor" stroke="currentColor" points="8.1026 -1.0100 8.1026 -0.6100 0.0400 0.2000 0.0400 -0.2000"/>
</g>
<g transform="translate(28.1079, 15.5503)">
<polygon stroke-linejoin="round" stroke-linecap="round" stroke-width="0.0800" fill="currentColor" stroke="currentColor" points="4.7462 -1.3900 4.7462 -0.9900 0.0400 0.2000 0.0400 -0.2000"/>
</g>
<g transform="translate(31.7291, 15.4600)">
<polygon stroke-linejoin="round" stroke-linecap="round" stroke-width="0.0800" fill="currentColor" stroke="currentColor" points="1.1250 -0.4897 1.1250 -0.0897 0.0400 0.2000 0.0400 -0.2000"/>
</g>
<g transform="translate(18.5911, 14.3603)">
<polygon stroke-linejoin="round" stroke-linecap="round" stroke-width="0.0800" fill="currentColor" stroke="currentColor" points="7.1026 0.8000 7.1026 1.2000 0.0400 0.2000 0.0400 -0.2000"/>
</g>
<g transform="translate(18.5911, 15.1703)">
<polygon stroke-linejoin="round" stroke-linecap="round" stroke-width="0.0800" fill="currentColor" stroke="currentColor" points="7.1026 0.8000 7.1026 1.2000 0.0400 0.2000 0.0400 -0.2000"/>
</g>
<g transform="translate(7.9000, 18.3603)">
<polygon stroke-linejoin="round" stroke-linecap="round" stroke-width="0.0800" fill="currentColor" stroke="currentColor" points="7.1026 0.9900 7.1026 1.3900 0.0400 0.2000 0.0400 -0.2000"/>
</g>
<g transform="translate(7.9000, 19.1703)">
<polygon stroke-linejoin="round" stroke-linecap="round" stroke-width="0.0800" fill="currentColor" stroke="currentColor" points="7.1026 0.9900 7.1026 1.3900 0.0400 0.2000 0.0400 -0.2000"/>
</g>
<g transform="translate(37.0744, 16.3603)">
<rect x="-0.0650" y="-1.3139" width="0.1300" height="3.8434" ry="0.0400" fill="currentColor"/>
</g>
<g transform="translate(42.3328, 16.3603)">
<rect x="-0.0650" y="-1.8139" width="0.1300" height="3.8204" ry="0.0400" fill="currentColor"/>
</g>
<g transform="translate(42.2678, 14.3603)">
<path transform="scale(0.0040, -0.0040)" d="M218 136c66 0 108 -36 108 -89c0 -89 -113 -183 -218 -183c-66 0 -108 36 -108 89c0 89 113 183 218 183z" fill="currentColor"/>
</g>
<g transform="translate(39.5786, 16.3603)">
<rect x="-0.0650" y="-0.8139" width="0.1300" height="3.0943" ry="0.0400" fill="currentColor"/>
</g>
<g transform="translate(39.5136, 15.3603)">
<path transform="scale(0.0040, -0.0040)" d="M218 136c66 0 108 -36 108 -89c0 -89 -113 -183 -218 -183c-66 0 -108 36 -108 89c0 89 113 183 218 183z" fill="currentColor"/>
</g>
<g transform="translate(12.7234, 16.3603)">
<rect x="-0.0650" y="-0.3139" width="0.1300" height="3.9275" ry="0.0400" fill="currentColor"/>
</g>
<g transform="translate(10.2192, 16.3603)">
<rect x="-0.0650" y="-0.3139" width="0.1300" height="3.5103" ry="0.0400" fill="currentColor"/>
</g>
<g transform="translate(10.1542, 15.8603)">
<path transform="scale(0.0040, -0.0040)" d="M218 136c66 0 108 -36 108 -89c0 -89 -113 -183 -218 -183c-66 0 -108 36 -108 89c0 89 113 183 218 183z" fill="currentColor"/>
</g>
<g transform="translate(7.9650, 16.3603)">
<rect x="-0.0650" y="-1.3139" width="0.1300" height="4.1347" ry="0.0400" fill="currentColor"/>
</g>
<g transform="translate(7.9000, 14.8603)">
<path transform="scale(0.0040, -0.0040)" d="M218 136c66 0 108 -36 108 -89c0 -89 -113 -183 -218 -183c-66 0 -108 36 -108 89c0 89 113 183 218 183z" fill="currentColor"/>
</g>
<g transform="translate(12.6584, 15.8603)">
<path transform="scale(0.0040, -0.0040)" d="M218 136c66 0 108 -36 108 -89c0 -89 -113 -183 -218 -183c-66 0 -108 36 -108 89c0 89 113 183 218 183z" fill="currentColor"/>
</g>
<g transform="translate(-1.1267, 13.2856)">
<text font-family="serif" font-size="1.7459" text-anchor="start" fill="currentColor">
<tspan>6</tspan>
</text>
</g>
<g transform="translate(4.3000, 15.3603)">
<path transform="scale(0.0040, -0.0040)" d="M0 119c0 8 5 15 13 18l46 17v158c0 10 8 19 18 19s19 -9 19 -19v-145l83 31v158c0 10 9 19 19 19s18 -9 18 -19v-145l32 12c2 1 5 1 7 1c11 0 20 -9 20 -20v-60c0 -8 -5 -16 -13 -19l-46 -16v-160l32 11c2 1 5 1 7 1c11 0 20 -9 20 -20v-60c0 -8 -5 -15 -13 -18l-46 -17
v-158c0 -10 -8 -19 -18 -19s-19 9 -19 19v145l-83 -31v-158c0 -10 -9 -19 -19 -19s-18 9 -18 19v145l-32 -12c-2 -1 -5 -1 -7 -1c-11 0 -20 9 -20 20v60c0 8 5 16 13 19l46 16v160l-32 -11c-2 -1 -5 -1 -7 -1c-11 0 -20 9 -20 20v60zM179 95l-83 -30v-160l83 30v160z" fill="currentColor"/>
</g>
<g transform="translate(0.8000, 15.3603)">
<path transform="scale(0.0040, -0.0040)" d="M557 -125c0 28 23 51 51 51s51 -23 51 -51s-23 -51 -51 -51s-51 23 -51 51zM557 125c0 28 23 51 51 51s51 -23 51 -51s-23 -51 -51 -51s-51 23 -51 51zM232 263c172 0 293 -88 293 -251c0 -263 -263 -414 -516 -521c-3 -3 -6 -4 -9 -4c-7 0 -13 6 -13 13c0 3 1 6 4 9
c202 118 412 265 412 493c0 120 -63 235 -171 235c-74 0 -129 -54 -154 -126c11 5 22 8 34 8c55 0 100 -45 100 -100c0 -58 -44 -106 -100 -106c-60 0 -112 47 -112 106c0 133 102 244 232 244z" fill="currentColor"/>
</g>
<g transform="translate(18.6561, 16.3603)">
<rect x="-0.0650" y="-1.9909" width="0.1300" height="2.8048" ry="0.0400" fill="currentColor"/>
</g>
<g transform="translate(23.4145, 16.3603)">
<rect x="-0.0650" y="-1.3247" width="0.1300" height="3.1386" ry="0.0400" fill="currentColor"/>
</g>
<g transform="translate(22.1753, 18.3603)">
<path transform="scale(0.0040, -0.0040)" d="M218 136c66 0 108 -36 108 -89c0 -89 -113 -183 -218 -183c-66 0 -108 36 -108 89c0 89 113 183 218 183z" fill="currentColor"/>
</g>
<g transform="translate(20.9103, 16.3603)">
<rect x="-0.0650" y="-1.6753" width="0.1300" height="3.4892" ry="0.0400" fill="currentColor"/>
</g>
<g transform="translate(19.6711, 18.3603)">
<path transform="scale(0.0040, -0.0040)" d="M218 136c66 0 108 -36 108 -89c0 -89 -113 -183 -218 -183c-66 0 -108 36 -108 89c0 89 113 183 218 183z" fill="currentColor"/>
</g>
<g transform="translate(17.4169, 17.3603)">
<path transform="scale(0.0040, -0.0040)" d="M218 136c66 0 108 -36 108 -89c0 -89 -113 -183 -218 -183c-66 0 -108 36 -108 89c0 89 113 183 218 183z" fill="currentColor"/>
</g>
<g transform="translate(14.9776, 16.3603)">
<rect x="-0.0650" y="1.1861" width="0.1300" height="2.8031" ry="0.0400" fill="currentColor"/>
</g>
<g transform="translate(14.9126, 17.3603)">
<path transform="scale(0.0040, -0.0040)" d="M218 136c66 0 108 -36 108 -89c0 -89 -113 -183 -218 -183c-66 0 -108 36 -108 89c0 89 113 183 218 183z" fill="currentColor"/>
</g>
</svg>
