<svg xmlns="http://www.w3.org/2000/svg" xmlns:xlink="http://www.w3.org/1999/xlink" version="1.2" width="210.00mm" height="297.00mm" viewBox="0.0000 -0.0000 119.5016 169.0094">
<style type="text/css">
<![CDATA[
tspan { white-space: pre; }
]]>
</style>
<g transform="translate(8.5358, 9.8903)">
<line stroke-linejoin="round" stroke-linecap="round" stroke-width="0.1000" stroke="currentColor" x1="0.0500" y1="0" x2="102.3799" y2="0"/>
</g>
<g transform="translate(8.5358, 8.8903)">
<line stroke-linejoin="round" stroke-linecap="round" stroke-width="0.1000" stroke="currentColor" x1="0.0500" y1="0" x2="102.3799" y2="0"/>
</g>
<g transform="translate(8.5358, 7.8903)">
<line stroke-linejoin="round" stroke-linecap="round" stroke-width="0.1000" stroke="currentColor" x1="0.0500" y1="0" x2="102.3799" y2="0"/>
</g>
<g transform="translate(8.5358, 6.8903)">
<line stroke-linejoin="round" stroke-linecap="round" stroke-width="0.1000" stroke="currentColor" x1="0.0500" y1="0" x2="102.3799" y2="0"/>
</g>
<g transform="translate(8.5358, 5.8903)">
<line stroke-linejoin="round" stroke-linecap="round" stroke-width="0.1000" stroke="currentColor" x1="0.0500" y1="0" x2="102.3799" y2="0"/>
</g>
<g transform="translate(19.4187, 7.8903)">
<rect x="0.0000" y="-2.0000" width="0.1900" height="4.0000" ry="0.0000" fill="currentColor"/>
</g>
<g transform="translate(110.7757, 7.8903)">
<rect x="0.0000" y="-2.0000" width="0.1900" height="4.0000" ry="0.0000" fill="currentColor"/>
</g>
<g transform="translate(62.5516, 7.8903)">
<rect x="0.0000" y="-2.0000" width="0.1900" height="4.0000" ry="0.0000" fill="currentColor"/>
</g>
<g transform="translate(8.5358, 4.8903)">
<rect x="55.1878" y="-0.1000" width="1.9563" height="0.2000" ry="0.1000" fill="currentColor"/>
</g>
<g transform="translate(8.5358, 4.8903)">
<rect x="50.9568" y="-0.1000" width="1.9563" height="0.2000" ry="0.1000" fill="currentColor"/>
</g>
<g transform="translate(78.2791, 7.8903)">
<rect x="-0.0650" y="-0.3139" width="0.1300" height="2.7186" ry="0.0400" fill="currentColor"/>
</g>
<g transform="translate(78.2141, 7.3903)">
<path transform="scale(0.0040, -0.0040)" d="M218 136c66 0 108 -36 108 -89c0 -89 -113 -183 -218 -183c-66 0 -108 36 -108 89c0 89 113 183 218 183z" fill="currentColor"/>
</g>
<g transform="translate(87.2277, 7.8903)">
<rect x="-0.0650" y="1.1861" width="0.1300" height="2.6177" ry="0.0400" fill="currentColor"/>
</g>
<g transform="translate(75.5462, 7.8903)">
<rect x="-0.0650" y="-1.3139" width="0.1300" height="3.4488" ry="0.0400" fill="currentColor"/>
</g>
<g transform="translate(75.4812, 6.3903)">
<path transform="scale(0.0040, -0.0040)" d="M218 136c66 0 108 -36 108 -89c0 -89 -113 -183 -218 -183c-66 0 -108 36 -108 89c0 89 113 183 218 183z" fill="currentColor"/>
</g>
<g transform="translate(64.0497, 4.3903)">
<path transform="scale(0.0040, -0.0040)" d="M218 136c66 0 108 -36 108 -89c0 -89 -113 -183 -218 -183c-66 0 -108 36 -108 89c0 89 113 183 218 183z" fill="currentColor"/>
</g>
<g transform="translate(81.1969, 7.8903)">
<path transform="scale(0.0040, -0.0040)" d="M218 136c66 0 108 -36 108 -89c0 -89 -113 -183 -218 -183c-66 0 -108 36 -108 89c0 89 113 183 218 183z" fill="currentColor"/>
</g>
<g transform="translate(81.2619, 7.8903)">
<rect x="-0.0650" y="0.1861" width="0.1300" height="2.5130" ry="0.0400" fill="currentColor"/>
</g>
<g transform="translate(84.1798, 8.3903)">
<path transform="scale(0.0040, -0.0040)" d="M218 136c66 0 108 -36 108 -89c0 -89 -113 -183 -218 -183c-66 0 -108 36 -108 89c0 89 113 183 218 183z" fill="currentColor"/>
</g>
<g transform="translate(84.2448, 7.8903)">
<rect x="-0.0650" y="0.6861" width="0.1300" height="2.3075" ry="0.0400" fill="currentColor"/>
</g>
<g transform="translate(87.1627, 8.8903)">
<path transform="scale(0.0040, -0.0040)" d="M218 136c66 0 108 -36 108 -89c0 -89 -113 -183 -218 -183c-66 0 -108 36 -108 89c0 89 113 183 218 183z" fill="currentColor"/>
</g>
<g transform="translate(87.1627, 10.8903)">
<polygon stroke-linejoin="round" stroke-linecap="round" stroke-width="0.0800" fill="currentColor" stroke="currentColor" points="20.9702 -2.2000 20.9702 -1.8000 0.0400 0.2000 0.0400 -0.2000"/>
</g>
<g transform="translate(87.1627, 11.7003)">
<polygon stroke-linejoin="round" stroke-linecap="round" stroke-width="0.0800" fill="currentColor" stroke="currentColor" points="20.9702 -2.2000 20.9702 -1.8000 0.0400 0.2000 0.0400 -0.2000"/>
</g>
<g transform="translate(64.1147, 7.8903)">
<rect x="-0.0650" y="-3.3139" width="0.1300" height="4.3203" ry="0.0400" fill="currentColor"/>
</g>
<g transform="translate(72.5633, 7.8903)">
<rect x="-0.0650" y="-0.8139" width="0.1300" height="2.6543" ry="0.0400" fill="currentColor"/>
</g>
<g transform="translate(66.7825, 5.3903)">
<path transform="scale(0.0040, -0.0040)" d="M218 136c66 0 108 -36 108 -89c0 -89 -113 -183 -218 -183c-66 0 -108 36 -108 89c0 89 113 183 218 183z" fill="currentColor"/>
</g>
<g transform="translate(66.8475, 7.8903)">
<rect x="-0.0650" y="-2.3139" width="0.1300" height="3.5901" ry="0.0400" fill="currentColor"/>
</g>
<g transform="translate(69.5154, 6.3903)">
<path transform="scale(0.0040, -0.0040)" d="M218 136c66 0 108 -36 108 -89c0 -89 -113 -183 -218 -183c-66 0 -108 36 -108 89c0 89 113 183 218 183z" fill="currentColor"/>
</g>
<g transform="translate(69.5804, 7.8903)">
<rect x="-0.0650" y="-1.3139" width="0.1300" height="2.8599" ry="0.0400" fill="currentColor"/>
</g>
<g transform="translate(72.4983, 6.8903)">
<path transform="scale(0.0040, -0.0040)" d="M218 136c66 0 108 -36 108 -89c0 -89 -113 -183 -218 -183c-66 0 -108 36 -108 89c0 89 113 183 218 183z" fill="currentColor"/>
</g>
<g transform="translate(105.0600, 5.8903)">
<path transform="scale(0.0040, -0.0040)" d="M218 136c66 0 108 -36 108 -89c0 -89 -113 -183 -218 -183c-66 0 -108 36 -108 89c0 89 113 183 218 183z" fill="currentColor"/>
</g>
<g transform="translate(105.1250, 7.8903)">
<rect x="-0.0650" y="-1.8139" width="0.1300" height="3.9140" ry="0.0400" fill="currentColor"/>
</g>
<g transform="translate(108.0429, 5.3903)">
<path transform="scale(0.0040, -0.0040)" d="M218 136c66 0 108 -36 108 -89c0 -89 -113 -183 -218 -183c-66 0 -108 36 -108 89c0 89 113 183 218 183z" fill="currentColor"/>
</g>
<g transform="translate(108.1079, 7.8903)">
<rect x="-0.0650" y="-2.3139" width="0.1300" height="4.1301" ry="0.0400" fill="currentColor"/>
</g>
<g transform="translate(20.9168, 7.8903)">
<path stroke-width="0.0800" stroke-linejoin="round" stroke-linecap="round" stroke="currentColor" fill="currentColor" d="M1.5042 -3.0000C2.3599 -3.8110 5.2846 -3.8110 6.1402 -3.0000L6.1402 -3.0000C5.2846 -3.6910 2.3599 -3.6910 1.5042 -3.0000z"/>
</g>
<g transform="translate(27.2570, 8.0803)">
<polygon stroke-linejoin="round" stroke-linecap="round" stroke-width="0.0800" fill="currentColor" stroke="currentColor" points="9.0386 0.8000 9.0386 1.2000 0.0400 0.2000 0.0400 -0.2000"/>
</g>
<g transform="translate(27.2570, 8.8903)">
<polygon stroke-linejoin="round" stroke-linecap="round" stroke-width="0.0800" fill="currentColor" stroke="currentColor" points="9.0386 0.8000 9.0386 1.2000 0.0400 0.2000 0.0400 -0.2000"/>
</g>
<g transform="translate(39.1885, 9.8903)">
<polygon stroke-linejoin="round" stroke-linecap="round" stroke-width="0.0800" fill="currentColor" stroke="currentColor" points="20.7202 -1.2000 20.7202 -0.8000 0.0400 0.2000 0.0400 -0.2000"/>
</g>
<g transform="translate(39.1885, 10.7003)">
<polygon stroke-linejoin="round" stroke-linecap="round" stroke-width="0.0800" fill="currentColor" stroke="currentColor" points="20.7202 -1.2000 20.7202 -0.8000 0.0400 0.2000 0.0400 -0.2000"/>
</g>
<g transform="translate(64.0497, 8.0803)">
<polygon stroke-linejoin="round" stroke-linecap="round" stroke-width="0.0800" fill="currentColor" stroke="currentColor" points="20.2202 1.8000 20.2202 2.2000 0.0400 0.2000 0.0400 -0.2000"/>
</g>
<g transform="translate(64.0497, 8.8903)">
<polygon stroke-linejoin="round" stroke-linecap="round" stroke-width="0.0800" fill="currentColor" stroke="currentColor" points="20.2202 1.8000 20.2202 2.2000 0.0400 0.2000 0.0400 -0.2000"/>
</g>
<g transform="translate(90.1456, 8.3903)">
<path transform="scale(0.0040, -0.0040)" d="M218 136c66 0 108 -36 108 -89c0 -89 -113 -183 -218 -183c-66 0 -108 36 -108 89c0 89 113 183 218 183z" fill="currentColor"/>
</g>
<g transform="translate(90.2106, 7.8903)">
<rect x="-0.0650" y="0.6861" width="0.1300" height="2.8338" ry="0.0400" fill="currentColor"/>
</g>
<g transform="translate(93.1285, 7.8903)">
<path transform="scale(0.0040, -0.0040)" d="M218 136c66 0 108 -36 108 -89c0 -89 -113 -183 -218 -183c-66 0 -108 36 -108 89c0 89 113 183 218 183z" fill="currentColor"/>
</g>
<g transform="translate(93.1935, 7.8903)">
<rect x="-0.0650" y="0.1861" width="0.1300" height="3.0498" ry="0.0400" fill="currentColor"/>
</g>
<g transform="translate(96.1113, 7.3903)">
<path transform="scale(0.0040, -0.0040)" d="M218 136c66 0 108 -36 108 -89c0 -89 -113 -183 -218 -183c-66 0 -108 36 -108 89c0 89 113 183 218 183z" fill="currentColor"/>
</g>
<g transform="translate(96.1763, 7.8903)">
<rect x="-0.0650" y="-0.3139" width="0.1300" height="3.2659" ry="0.0400" fill="currentColor"/>
</g>
<g transform="translate(99.0942, 6.8903)">
<path transform="scale(0.0040, -0.0040)" d="M218 136c66 0 108 -36 108 -89c0 -89 -113 -183 -218 -183c-66 0 -108 36 -108 89c0 89 113 183 218 183z" fill="currentColor"/>
</g>
<g transform="translate(99.1592, 7.8903)">
<rect x="-0.0650" y="-0.8139" width="0.1300" height="3.4819" ry="0.0400" fill="currentColor"/>
</g>
<g transform="translate(102.0771, 6.3903)">
<path transform="scale(0.0040, -0.0040)" d="M218 136c66 0 108 -36 108 -89c0 -89 -113 -183 -218 -183c-66 0 -108 36 -108 89c0 89 113 183 218 183z" fill="currentColor"/>
</g>
<g transform="translate(102.1421, 7.8903)">
<rect x="-0.0650" y="-1.3139" width="0.1300" height="3.6980" ry="0.0400" fill="currentColor"/>
</g>
<g transform="translate(27.2570, 5.3903)">
<path transform="scale(0.0040, -0.0040)" d="M218 136c66 0 108 -36 108 -89c0 -89 -113 -183 -218 -183c-66 0 -108 36 -108 89c0 89 113 183 218 183z" fill="currentColor"/>
</g>
<g transform="translate(27.3220, 7.8903)">
<rect x="-0.0650" y="-2.3139" width="0.1300" height="3.3211" ry="0.0400" fill="currentColor"/>
</g>
<g transform="translate(30.2399, 5.8903)">
<path transform="scale(0.0040, -0.0040)" d="M218 136c66 0 108 -36 108 -89c0 -89 -113 -183 -218 -183c-66 0 -108 36 -108 89c0 89 113 183 218 183z" fill="currentColor"/>
</g>
<g transform="translate(30.3049, 7.8903)">
<rect x="-0.0650" y="-1.8139" width="0.1300" height="3.1496" ry="0.0400" fill="currentColor"/>
</g>
<g transform="translate(33.2228, 6.3903)">
<path transform="scale(0.0040, -0.0040)" d="M218 136c66 0 108 -36 108 -89c0 -89 -113 -183 -218 -183c-66 0 -108 36 -108 89c0 89 113 183 218 183z" fill="currentColor"/>
</g>
<g transform="translate(33.2878, 7.8903)">
<rect x="-0.0650" y="-1.3139" width="0.1300" height="2.9782" ry="0.0400" fill="currentColor"/>
</g>
<g transform="translate(36.2707, 7.8903)">
<rect x="-0.0650" y="-0.8139" width="0.1300" height="2.8067" ry="0.0400" fill="currentColor"/>
</g>
<g transform="translate(39.1885, 6.3903)">
<path transform="scale(0.0040, -0.0040)" d="M218 136c66 0 108 -36 108 -89c0 -89 -113 -183 -218 -183c-66 0 -108 36 -108 89c0 89 113 183 218 183z" fill="currentColor"/>
</g>
<g transform="translate(39.2535, 7.8903)">
<rect x="-0.0650" y="-1.3139" width="0.1300" height="4.1208" ry="0.0400" fill="currentColor"/>
</g>
<g transform="translate(16.4358, 5.3903)">
<path transform="scale(0.0040, -0.0040)" d="M218 136c66 0 108 -36 108 -89c0 -89 -113 -183 -218 -183c-66 0 -108 36 -108 89c0 89 113 183 218 183z" fill="currentColor"/>
</g>
<g transform="translate(9.3358, 6.8903)">
<path transform="scale(0.0040, -0.0040)" d="M557 -125c0 28 23 51 51 51s51 -23 51 -51s-23 -51 -51 -51s-51 23 -51 51zM557 125c0 28 23 51 51 51s51 -23 51 -51s-23 -51 -51 -51s-51 23 -51 51zM232 263c172 0 293 -88 293 -251c0 -263 -263 -414 -516 -521c-3 -3 -6 -4 -9 -4c-7 0 -13 6 -13 13c0 3 1 6 4 9
c202 118 412 265 412 493c0 120 -63 235 -171 235c-74 0 -129 -54 -154 -126c11 5 22 8 34 8c55 0 100 -45 100 -100c0 -58 -44 -106 -100 -106c-60 0 -112 47 -112 106c0 133 102 244 232 244z" fill="currentColor"/>
</g>
<g transform="translate(12.8358, 6.8903)">
<path transform="scale(0.0040, -0.0040)" d="M0 119c0 8 5 15 13 18l46 17v158c0 10 8 19 18 19s19 -9 19 -19v-145l83 31v158c0 10 9 19 19 19s18 -9 18 -19v-145l32 12c2 1 5 1 7 1c11 0 20 -9 20 -20v-60c0 -8 -5 -16 -13 -19l-46 -16v-160l32 11c2 1 5 1 7 1c11 0 20 -9 20 -20v-60c0 -8 -5 -15 -13 -18l-46 -17
v-158c0 -10 -8 -19 -18 -19s-19 9 -19 19v145l-83 -31v-158c0 -10 -9 -19 -19 -19s-18 9 -18 19v145l-32 -12c-2 -1 -5 -1 -7 -1c-11 0 -20 9 -20 20v60c0 8 5 16 13 19l46 16v160l-32 -11c-2 -1 -5 -1 -7 -1c-11 0 -20 9 -20 20v60zM179 95l-83 -30v-160l83 30v160z" fill="currentColor"/>
</g>
<g transform="translate(16.5008, 7.8903)">
<rect x="-0.0650" y="-2.3139" width="0.1300" height="3.3139" ry="0.0400" fill="currentColor"/>
</g>
<g transform="translate(16.5658, 8.8503)">
<path transform="scale(0.0040, -0.0040)" d="M0 205c91 51 211 131 211 233c0 24 -5 48 -14 70c-79 -89 -197 -160 -197 -282v-21zM267 663c0 -44 -16 -82 -39 -116c16 -35 25 -71 25 -109c0 -181 -253 -257 -253 -438h-16v500h16v-70c97 49 224 128 224 233c0 21 -5 42 -13 62c-3 16 10 27 23 27c32 0 33 -83 33 -89
z" fill="currentColor"/>
</g>
<g transform="translate(36.2057, 6.8903)">
<path transform="scale(0.0040, -0.0040)" d="M218 136c66 0 108 -36 108 -89c0 -89 -113 -183 -218 -183c-66 0 -108 36 -108 89c0 89 113 183 218 183z" fill="currentColor"/>
</g>
<g transform="translate(20.9168, 5.3903)">
<path transform="scale(0.0040, -0.0040)" d="M218 136c66 0 108 -36 108 -89c0 -89 -113 -183 -218 -183c-66 0 -108 36 -108 89c0 89 113 183 218 183z" fill="currentColor"/>
</g>
<g transform="translate(20.9168, 7.8903)">
<path transform="scale(0.0040, -0.0040)" d="M218 136c66 0 108 -36 108 -89c0 -89 -113 -183 -218 -183c-66 0 -108 36 -108 89c0 89 113 183 218 183z" fill="currentColor"/>
</g>
<g transform="translate(20.9168, 9.8903)">
<path transform="scale(0.0040, -0.0040)" d="M218 136c66 0 108 -36 108 -89c0 -89 -113 -183 -218 -183c-66 0 -108 36 -108 89c0 89 113 183 218 183z" fill="currentColor"/>
</g>
<g transform="translate(20.9818, 7.8903)">
<rect x="-0.0650" y="-2.3139" width="0.1300" height="6.9806" ry="0.0400" fill="currentColor"/>
</g>
<g transform="translate(47.8872, 6.8903)">
<path transform="scale(0.0040, -0.0040)" d="M218 136c66 0 108 -36 108 -89c0 -89 -113 -183 -218 -183c-66 0 -108 36 -108 89c0 89 113 183 218 183z" fill="currentColor"/>
</g>
<g transform="translate(47.9522, 7.8903)">
<rect x="-0.0650" y="-0.8139" width="0.1300" height="3.2018" ry="0.0400" fill="currentColor"/>
</g>
<g transform="translate(50.8701, 6.3903)">
<path transform="scale(0.0040, -0.0040)" d="M218 136c66 0 108 -36 108 -89c0 -89 -113 -183 -218 -183c-66 0 -108 36 -108 89c0 89 113 183 218 183z" fill="currentColor"/>
</g>
<g transform="translate(50.9351, 7.8903)">
<rect x="-0.0650" y="-1.3139" width="0.1300" height="3.5581" ry="0.0400" fill="currentColor"/>
</g>
<g transform="translate(53.8529, 5.8903)">
<path transform="scale(0.0040, -0.0040)" d="M218 136c66 0 108 -36 108 -89c0 -89 -113 -183 -218 -183c-66 0 -108 36 -108 89c0 89 113 183 218 183z" fill="currentColor"/>
</g>
<g transform="translate(53.9179, 7.8903)">
<rect x="-0.0650" y="-1.8139" width="0.1300" height="3.9144" ry="0.0400" fill="currentColor"/>
</g>
<g transform="translate(56.8358, 5.3903)">
<path transform="scale(0.0040, -0.0040)" d="M218 136c66 0 108 -36 108 -89c0 -89 -113 -183 -218 -183c-66 0 -108 36 -108 89c0 89 113 183 218 183z" fill="currentColor"/>
</g>
<g transform="translate(56.9008, 7.8903)">
<rect x="-0.0650" y="-2.3139" width="0.1300" height="4.2707" ry="0.0400" fill="currentColor"/>
</g>
<g transform="translate(59.8187, 4.8903)">
<path transform="scale(0.0040, -0.0040)" d="M218 136c66 0 108 -36 108 -89c0 -89 -113 -183 -218 -183c-66 0 -108 36 -108 89c0 89 113 183 218 183z" fill="currentColor"/>
</g>
<g transform="translate(59.8837, 7.8903)">
<rect x="-0.0650" y="-2.8139" width="0.1300" height="4.6270" ry="0.0400" fill="currentColor"/>
</g>
<g transform="translate(41.9214, 7.8903)">
<path transform="scale(0.0040, -0.0040)" d="M218 136c66 0 108 -36 108 -89c0 -89 -113 -183 -218 -183c-66 0 -108 36 -108 89c0 89 113 183 218 183z" fill="currentColor"/>
</g>
<g transform="translate(41.9864, 7.8903)">
<rect x="-0.0650" y="0.1861" width="0.1300" height="2.4891" ry="0.0400" fill="currentColor"/>
</g>
<g transform="translate(44.9043, 7.3903)">
<path transform="scale(0.0040, -0.0040)" d="M218 136c66 0 108 -36 108 -89c0 -89 -113 -183 -218 -183c-66 0 -108 36 -108 89c0 89 113 183 218 183z" fill="currentColor"/>
</g>
<g transform="translate(44.9693, 7.8903)">
<rect x="-0.0650" y="-0.3139" width="0.1300" height="2.8454" ry="0.0400" fill="currentColor"/>
</g>
<g transform="translate(8.5358, 21.8903)">
<line stroke-linejoin="round" stroke-linecap="round" stroke-width="0.1000" stroke="currentColor" x1="0.0500" y1="0" x2="47.3574" y2="0"/>
</g>
<g transform="translate(8.5358, 20.8903)">
<line stroke-linejoin="round" stroke-linecap="round" stroke-width="0.1000" stroke="currentColor" x1="0.0500" y1="0" x2="47.3574" y2="0"/>
</g>
<g transform="translate(8.5358, 19.8903)">
<line stroke-linejoin="round" stroke-linecap="round" stroke-width="0.1000" stroke="currentColor" x1="0.0500" y1="0" x2="47.3574" y2="0"/>
</g>
<g transform="translate(8.5358, 18.8903)">
<line stroke-linejoin="round" stroke-linecap="round" stroke-width="0.1000" stroke="currentColor" x1="0.0500" y1="0" x2="47.3574" y2="0"/>
</g>
<g transform="translate(8.5358, 17.8903)">
<line stroke-linejoin="round" stroke-linecap="round" stroke-width="0.1000" stroke="currentColor" x1="0.0500" y1="0" x2="47.3574" y2="0"/>
</g>
<g transform="translate(8.5358, 16.8903)">
<rect x="42.3829" y="-0.1000" width="1.9563" height="0.2000" ry="0.1000" fill="currentColor"/>
</g>
<g transform="translate(8.5358, 16.8903)">
<rect x="7.5740" y="-0.1000" width="1.9563" height="0.2000" ry="0.1000" fill="currentColor"/>
</g>
<g transform="translate(55.7532, 19.8903)">
<rect x="0.0000" y="-2.0000" width="0.1900" height="4.0000" ry="0.0000" fill="currentColor"/>
</g>
<g transform="translate(41.2280, 18.8903)">
<path transform="scale(0.0040, -0.0040)" d="M218 136c66 0 108 -36 108 -89c0 -89 -113 -183 -218 -183c-66 0 -108 36 -108 89c0 89 113 183 218 183z" fill="currentColor"/>
</g>
<g transform="translate(41.2930, 19.8903)">
<rect x="-0.0650" y="-0.8139" width="0.1300" height="4.1324" ry="0.0400" fill="currentColor"/>
</g>
<g transform="translate(43.7322, 18.3903)">
<path transform="scale(0.0040, -0.0040)" d="M218 136c66 0 108 -36 108 -89c0 -89 -113 -183 -218 -183c-66 0 -108 36 -108 89c0 89 113 183 218 183z" fill="currentColor"/>
</g>
<g transform="translate(43.7972, 19.8903)">
<rect x="-0.0650" y="-1.3139" width="0.1300" height="4.3261" ry="0.0400" fill="currentColor"/>
</g>
<g transform="translate(46.2364, 17.8903)">
<path transform="scale(0.0040, -0.0040)" d="M218 136c66 0 108 -36 108 -89c0 -89 -113 -183 -218 -183c-66 0 -108 36 -108 89c0 89 113 183 218 183z" fill="currentColor"/>
</g>
<g transform="translate(46.3014, 19.8903)">
<rect x="-0.0650" y="-1.8139" width="0.1300" height="4.5199" ry="0.0400" fill="currentColor"/>
</g>
<g transform="translate(33.5303, 19.8903)">
<rect x="-0.0650" y="-1.3139" width="0.1300" height="3.1239" ry="0.0400" fill="currentColor"/>
</g>
<g transform="translate(38.5387, 19.8903)">
<rect x="-0.0650" y="0.1861" width="0.1300" height="3.4692" ry="0.0400" fill="currentColor"/>
</g>
<g transform="translate(38.4737, 19.8903)">
<path transform="scale(0.0040, -0.0040)" d="M218 136c66 0 108 -36 108 -89c0 -89 -113 -183 -218 -183c-66 0 -108 36 -108 89c0 89 113 183 218 183z" fill="currentColor"/>
</g>
<g transform="translate(35.7845, 19.8903)">
<rect x="-0.0650" y="1.6861" width="0.1300" height="2.3059" ry="0.0400" fill="currentColor"/>
</g>
<g transform="translate(35.7195, 21.3903)">
<path transform="scale(0.0040, -0.0040)" d="M218 136c66 0 108 -36 108 -89c0 -89 -113 -183 -218 -183c-66 0 -108 36 -108 89c0 89 113 183 218 183z" fill="currentColor"/>
</g>
<g transform="translate(35.7195, 23.0803)">
<polygon stroke-linejoin="round" stroke-linecap="round" stroke-width="0.0800" fill="currentColor" stroke="currentColor" points="17.8695 -2.3900 17.8695 -1.9900 0.0400 0.2000 0.0400 -0.2000"/>
</g>
<g transform="translate(35.7195, 23.8903)">
<polygon stroke-linejoin="round" stroke-linecap="round" stroke-width="0.0800" fill="currentColor" stroke="currentColor" points="17.8695 -2.3900 17.8695 -1.9900 0.0400 0.2000 0.0400 -0.2000"/>
</g>
<g transform="translate(53.5640, 19.8903)">
<rect x="-0.0650" y="-1.8139" width="0.1300" height="3.6318" ry="0.0400" fill="currentColor"/>
</g>
<g transform="translate(16.4358, 20.8903)">
<polygon stroke-linejoin="round" stroke-linecap="round" stroke-width="0.0800" fill="currentColor" stroke="currentColor" points="17.1195 -0.2000 17.1195 0.2000 0.0400 0.2000 0.0400 -0.2000"/>
</g>
<g transform="translate(16.4358, 21.7003)">
<polygon stroke-linejoin="round" stroke-linecap="round" stroke-width="0.0800" fill="currentColor" stroke="currentColor" points="17.1195 -0.2000 17.1195 0.2000 0.0400 0.2000 0.0400 -0.2000"/>
</g>
<g transform="translate(53.4990, 17.8903)">
<path transform="scale(0.0040, -0.0040)" d="M218 136c66 0 108 -36 108 -89c0 -89 -113 -183 -218 -183c-66 0 -108 36 -108 89c0 89 113 183 218 183z" fill="currentColor"/>
</g>
<g transform="translate(51.3098, 19.8903)">
<rect x="-0.0650" y="-2.8139" width="0.1300" height="4.9075" ry="0.0400" fill="currentColor"/>
</g>
<g transform="translate(51.2448, 16.8903)">
<path transform="scale(0.0040, -0.0040)" d="M218 136c66 0 108 -36 108 -89c0 -89 -113 -183 -218 -183c-66 0 -108 36 -108 89c0 89 113 183 218 183z" fill="currentColor"/>
</g>
<g transform="translate(48.8056, 19.8903)">
<rect x="-0.0650" y="-2.3139" width="0.1300" height="4.7137" ry="0.0400" fill="currentColor"/>
</g>
<g transform="translate(48.7406, 17.3903)">
<path transform="scale(0.0040, -0.0040)" d="M218 136c66 0 108 -36 108 -89c0 -89 -113 -183 -218 -183c-66 0 -108 36 -108 89c0 89 113 183 218 183z" fill="currentColor"/>
</g>
<g transform="translate(18.6900, 17.8903)">
<path transform="scale(0.0040, -0.0040)" d="M218 136c66 0 108 -36 108 -89c0 -89 -113 -183 -218 -183c-66 0 -108 36 -108 89c0 89 113 183 218 183z" fill="currentColor"/>
</g>
<g transform="translate(18.7550, 19.8903)">
<rect x="-0.0650" y="-1.8139" width="0.1300" height="3.6239" ry="0.0400" fill="currentColor"/>
</g>
<g transform="translate(16.5008, 19.8903)">
<rect x="-0.0650" y="-2.8139" width="0.1300" height="4.6239" ry="0.0400" fill="currentColor"/>
</g>
<g transform="translate(21.1943, 18.3903)">
<path transform="scale(0.0040, -0.0040)" d="M218 136c66 0 108 -36 108 -89c0 -89 -113 -183 -218 -183c-66 0 -108 36 -108 89c0 89 113 183 218 183z" fill="currentColor"/>
</g>
<g transform="translate(21.2593, 19.8903)">
<rect x="-0.0650" y="-1.3139" width="0.1300" height="3.1239" ry="0.0400" fill="currentColor"/>
</g>
<g transform="translate(33.4653, 18.3903)">
<path transform="scale(0.0040, -0.0040)" d="M218 136c66 0 108 -36 108 -89c0 -89 -113 -183 -218 -183c-66 0 -108 36 -108 89c0 89 113 183 218 183z" fill="currentColor"/>
</g>
<g transform="translate(9.3358, 18.8903)">
<path transform="scale(0.0040, -0.0040)" d="M557 -125c0 28 23 51 51 51s51 -23 51 -51s-23 -51 -51 -51s-51 23 -51 51zM557 125c0 28 23 51 51 51s51 -23 51 -51s-23 -51 -51 -51s-51 23 -51 51zM232 263c172 0 293 -88 293 -251c0 -263 -263 -414 -516 -521c-3 -3 -6 -4 -9 -4c-7 0 -13 6 -13 13c0 3 1 6 4 9
c202 118 412 265 412 493c0 120 -63 235 -171 235c-74 0 -129 -54 -154 -126c11 5 22 8 34 8c55 0 100 -45 100 -100c0 -58 -44 -106 -100 -106c-60 0 -112 47 -112 106c0 133 102 244 232 244z" fill="currentColor"/>
</g>
<g transform="translate(12.8358, 18.8903)">
<path transform="scale(0.0040, -0.0040)" d="M0 119c0 8 5 15 13 18l46 17v158c0 10 8 19 18 19s19 -9 19 -19v-145l83 31v158c0 10 9 19 19 19s18 -9 18 -19v-145l32 12c2 1 5 1 7 1c11 0 20 -9 20 -20v-60c0 -8 -5 -16 -13 -19l-46 -16v-160l32 11c2 1 5 1 7 1c11 0 20 -9 20 -20v-60c0 -8 -5 -15 -13 -18l-46 -17
v-158c0 -10 -8 -19 -18 -19s-19 9 -19 19v145l-83 -31v-158c0 -10 -9 -19 -19 -19s-18 9 -18 19v145l-32 -12c-2 -1 -5 -1 -7 -1c-11 0 -20 9 -20 20v60c0 8 5 16 13 19l46 16v160l-32 -11c-2 -1 -5 -1 -7 -1c-11 0 -20 9 -20 20v60zM179 95l-83 -30v-160l83 30v160z" fill="currentColor"/>
</g>
<g transform="translate(7.4091, 16.8156)">
<text font-family="serif" font-size="1.7459" text-anchor="start" fill="currentColor">
<tspan>3</tspan>
</text>
</g>
<g transform="translate(16.4358, 16.8903)">
<path transform="scale(0.0040, -0.0040)" d="M218 136c66 0 108 -36 108 -89c0 -89 -113 -183 -218 -183c-66 0 -108 36 -108 89c0 89 113 183 218 183z" fill="currentColor"/>
</g>
<g transform="translate(28.5219, 19.8903)">
<rect x="-0.0650" y="-0.3139" width="0.1300" height="2.1239" ry="0.0400" fill="currentColor"/>
</g>
<g transform="translate(28.4569, 19.3903)">
<path transform="scale(0.0040, -0.0040)" d="M218 136c66 0 108 -36 108 -89c0 -89 -113 -183 -218 -183c-66 0 -108 36 -108 89c0 89 113 183 218 183z" fill="currentColor"/>
</g>
<g transform="translate(30.9611, 18.8903)">
<path transform="scale(0.0040, -0.0040)" d="M218 136c66 0 108 -36 108 -89c0 -89 -113 -183 -218 -183c-66 0 -108 36 -108 89c0 89 113 183 218 183z" fill="currentColor"/>
</g>
<g transform="translate(31.0261, 19.8903)">
<rect x="-0.0650" y="-0.8139" width="0.1300" height="2.6239" ry="0.0400" fill="currentColor"/>
</g>
<g transform="translate(26.2677, 19.8903)">
<rect x="-0.0650" y="-1.3139" width="0.1300" height="3.1239" ry="0.0400" fill="currentColor"/>
</g>
<g transform="translate(26.2027, 18.3903)">
<path transform="scale(0.0040, -0.0040)" d="M218 136c66 0 108 -36 108 -89c0 -89 -113 -183 -218 -183c-66 0 -108 36 -108 89c0 89 113 183 218 183z" fill="currentColor"/>
</g>
<g transform="translate(23.7635, 19.8903)">
<rect x="-0.0650" y="-0.8139" width="0.1300" height="2.6239" ry="0.0400" fill="currentColor"/>
</g>
<g transform="translate(23.6985, 18.8903)">
<path transform="scale(0.0040, -0.0040)" d="M218 136c66 0 108 -36 108 -89c0 -89 -113 -183 -218 -183c-66 0 -108 36 -108 89c0 89 113 183 218 183z" fill="currentColor"/>
</g>
</svg>
