<svg xmlns="http://www.w3.org/2000/svg" xmlns:xlink="http://www.w3.org/1999/xlink" version="1.2" width="181.98mm" height="31.32mm" viewBox="-1.1267 -0.0000 103.5567 17.8223">
<style type="text/css">
<![CDATA[
tspan { white-space: pre; }
]]>
</style>
<g transform="translate(0.0000, 6.0450)">
<line stroke-linejoin="round" stroke-linecap="round" stroke-width="0.1000" stroke="currentColor" x1="0.0500" y1="0" x2="102.3799" y2="0"/>
</g>
<g transform="translate(0.0000, 5.0450)">
<line stroke-linejoin="round" stroke-linecap="round" stroke-width="0.1000" stroke="currentColor" x1="0.0500" y1="0" x2="102.3799" y2="0"/>
</g>
<g transform="translate(0.0000, 4.0450)">
<line stroke-linejoin="round" stroke-linecap="round" stroke-width="0.1000" stroke="currentColor" x1="0.0500" y1="0" x2="102.3799" y2="0"/>
</g>
<g transform="translate(0.0000, 3.0450)">
<line stroke-linejoin="round" stroke-linecap="round" stroke-width="0.1000" stroke="currentColor" x1="0.0500" y1="0" x2="102.3799" y2="0"/>
</g>
<g transform="translate(0.0000, 2.0450)">
<line stroke-linejoin="round" stroke-linecap="round" stroke-width="0.1000" stroke="currentColor" x1="0.0500" y1="0" x2="102.3799" y2="0"/>
</g>
<g transform="translate(10.8829, 4.0450)">
<rect x="0.0000" y="-2.0000" width="0.1900" height="4.0000" ry="0.0000" fill="currentColor"/>
</g>
<g transform="translate(102.2399, 4.0450)">
<rect x="0.0000" y="-2.0000" width="0.1900" height="4.0000" ry="0.0000" fill="currentColor"/>
</g>
<g transform="translate(54.0158, 4.0450)">
<rect x="0.0000" y="-2.0000" width="0.1900" height="4.0000" ry="0.0000" fill="currentColor"/>
</g>
<g transform="translate(0.0000, 1.0450)">
<rect x="55.1878" y="-0.1000" width="1.9563" height="0.2000" ry="0.1000" fill="currentColor"/>
</g>
<g transform="translate(0.0000, 1.0450)">
<rect x="50.9568" y="-0.1000" width="1.9563" height="0.2000" ry="0.1000" fill="currentColor"/>
</g>
<g transform="translate(69.7432, 4.0450)">
<rect x="-0.0650" y="-0.3139" width="0.1300" height="2.7186" ry="0.0400" fill="currentColor"/>
</g>
<g transform="translate(69.6782, 3.5450)">
<path transform="scale(0.0040, -0.0040)" d="M218 136c66 0 108 -36 108 -89c0 -89 -113 -183 -218 -183c-66 0 -108 36 -108 89c0 89 113 183 218 183z" fill="currentColor"/>
</g>
<g transform="translate(78.6919, 4.0450)">
<rect x="-0.0650" y="1.1861" width="0.1300" height="2.6177" ry="0.0400" fill="currentColor"/>
</g>
<g transform="translate(67.0103, 4.0450)">
<rect x="-0.0650" y="-1.3139" width="0.1300" height="3.4488" ry="0.0400" fill="currentColor"/>
</g>
<g transform="translate(66.9453, 2.5450)">
<path transform="scale(0.0040, -0.0040)" d="M218 136c66 0 108 -36 108 -89c0 -89 -113 -183 -218 -183c-66 0 -108 36 -108 89c0 89 113 183 218 183z" fill="currentColor"/>
</g>
<g transform="translate(55.5138, 0.5450)">
<path transform="scale(0.0040, -0.0040)" d="M218 136c66 0 108 -36 108 -89c0 -89 -113 -183 -218 -183c-66 0 -108 36 -108 89c0 89 113 183 218 183z" fill="currentColor"/>
</g>
<g transform="translate(72.6611, 4.0450)">
<path transform="scale(0.0040, -0.0040)" d="M218 136c66 0 108 -36 108 -89c0 -89 -113 -183 -218 -183c-66 0 -108 36 -108 89c0 89 113 183 218 183z" fill="currentColor"/>
</g>
<g transform="translate(72.7261, 4.0450)">
<rect x="-0.0650" y="0.1861" width="0.1300" height="2.5130" ry="0.0400" fill="currentColor"/>
</g>
<g transform="translate(75.6440, 4.5450)">
<path transform="scale(0.0040, -0.0040)" d="M218 136c66 0 108 -36 108 -89c0 -89 -113 -183 -218 -183c-66 0 -108 36 -108 89c0 89 113 183 218 183z" fill="currentColor"/>
</g>
<g transform="translate(75.7090, 4.0450)">
<rect x="-0.0650" y="0.6861" width="0.1300" height="2.3075" ry="0.0400" fill="currentColor"/>
</g>
<g transform="translate(78.6269, 5.0450)">
<path transform="scale(0.0040, -0.0040)" d="M218 136c66 0 108 -36 108 -89c0 -89 -113 -183 -218 -183c-66 0 -108 36 -108 89c0 89 113 183 218 183z" fill="currentColor"/>
</g>
<g transform="translate(78.6269, 7.0450)">
<polygon stroke-linejoin="round" stroke-linecap="round" stroke-width="0.0800" fill="currentColor" stroke="currentColor" points="20.9702 -2.2000 20.9702 -1.8000 0.0400 0.2000 0.0400 -0.2000"/>
</g>
<g transform="translate(78.6269, 7.8550)">
<polygon stroke-linejoin="round" stroke-linecap="round" stroke-width="0.0800" fill="currentColor" stroke="currentColor" points="20.9702 -2.2000 20.9702 -1.8000 0.0400 0.2000 0.0400 -0.2000"/>
</g>
<g transform="translate(55.5788, 4.0450)">
<rect x="-0.0650" y="-3.3139" width="0.1300" height="4.3203" ry="0.0400" fill="currentColor"/>
</g>
<g transform="translate(64.0275, 4.0450)">
<rect x="-0.0650" y="-0.8139" width="0.1300" height="2.6543" ry="0.0400" fill="currentColor"/>
</g>
<g transform="translate(58.2467, 1.5450)">
<path transform="scale(0.0040, -0.0040)" d="M218 136c66 0 108 -36 108 -89c0 -89 -113 -183 -218 -183c-66 0 -108 36 -108 89c0 89 113 183 218 183z" fill="currentColor"/>
</g>
<g transform="translate(58.3117, 4.0450)">
<rect x="-0.0650" y="-2.3139" width="0.1300" height="3.5901" ry="0.0400" fill="currentColor"/>
</g>
<g transform="translate(60.9796, 2.5450)">
<path transform="scale(0.0040, -0.0040)" d="M218 136c66 0 108 -36 108 -89c0 -89 -113 -183 -218 -183c-66 0 -108 36 -108 89c0 89 113 183 218 183z" fill="currentColor"/>
</g>
<g transform="translate(61.0446, 4.0450)">
<rect x="-0.0650" y="-1.3139" width="0.1300" height="2.8599" ry="0.0400" fill="currentColor"/>
</g>
<g transform="translate(63.9625, 3.0450)">
<path transform="scale(0.0040, -0.0040)" d="M218 136c66 0 108 -36 108 -89c0 -89 -113 -183 -218 -183c-66 0 -108 36 -108 89c0 89 113 183 218 183z" fill="currentColor"/>
</g>
<g transform="translate(96.5242, 2.0450)">
<path transform="scale(0.0040, -0.0040)" d="M218 136c66 0 108 -36 108 -89c0 -89 -113 -183 -218 -183c-66 0 -108 36 -108 89c0 89 113 183 218 183z" fill="currentColor"/>
</g>
<g transform="translate(96.5892, 4.0450)">
<rect x="-0.0650" y="-1.8139" width="0.1300" height="3.9140" ry="0.0400" fill="currentColor"/>
</g>
<g transform="translate(99.5070, 1.5450)">
<path transform="scale(0.0040, -0.0040)" d="M218 136c66 0 108 -36 108 -89c0 -89 -113 -183 -218 -183c-66 0 -108 36 -108 89c0 89 113 183 218 183z" fill="currentColor"/>
</g>
<g transform="translate(99.5720, 4.0450)">
<rect x="-0.0650" y="-2.3139" width="0.1300" height="4.1301" ry="0.0400" fill="currentColor"/>
</g>
<g transform="translate(12.3810, 4.0450)">
<path stroke-width="0.0800" stroke-linejoin="round" stroke-linecap="round" stroke="currentColor" fill="currentColor" d="M1.5042 -3.0000C2.3599 -3.8110 5.2846 -3.8110 6.1402 -3.0000L6.1402 -3.0000C5.2846 -3.6910 2.3599 -3.6910 1.5042 -3.0000z"/>
</g>
<g transform="translate(18.7212, 4.2350)">
<polygon stroke-linejoin="round" stroke-linecap="round" stroke-width="0.0800" fill="currentColor" stroke="currentColor" points="9.0386 0.8000 9.0386 1.2000 0.0400 0.2000 0.0400 -0.2000"/>
</g>
<g transform="translate(18.7212, 5.0450)">
<polygon stroke-linejoin="round" stroke-linecap="round" stroke-width="0.0800" fill="currentColor" stroke="currentColor" points="9.0386 0.8000 9.0386 1.2000 0.0400 0.2000 0.0400 -0.2000"/>
</g>
<g transform="translate(30.6527, 6.0450)">
<polygon stroke-linejoin="round" stroke-linecap="round" stroke-width="0.0800" fill="currentColor" stroke="currentColor" points="20.7202 -1.2000 20.7202 -0.8000 0.0400 0.2000 0.0400 -0.2000"/>
</g>
<g transform="translate(30.6527, 6.8550)">
<polygon stroke-linejoin="round" stroke-linecap="round" stroke-width="0.0800" fill="currentColor" stroke="currentColor" points="20.7202 -1.2000 20.7202 -0.8000 0.0400 0.2000 0.0400 -0.2000"/>
</g>
<g transform="translate(55.5138, 4.2350)">
<polygon stroke-linejoin="round" stroke-linecap="round" stroke-width="0.0800" fill="currentColor" stroke="currentColor" points="20.2202 1.8000 20.2202 2.2000 0.0400 0.2000 0.0400 -0.2000"/>
</g>
<g transform="translate(55.5138, 5.0450)">
<polygon stroke-linejoin="round" stroke-linecap="round" stroke-width="0.0800" fill="currentColor" stroke="currentColor" points="20.2202 1.8000 20.2202 2.2000 0.0400 0.2000 0.0400 -0.2000"/>
</g>
<g transform="translate(81.6098, 4.5450)">
<path transform="scale(0.0040, -0.0040)" d="M218 136c66 0 108 -36 108 -89c0 -89 -113 -183 -218 -183c-66 0 -108 36 -108 89c0 89 113 183 218 183z" fill="currentColor"/>
</g>
<g transform="translate(81.6748, 4.0450)">
<rect x="-0.0650" y="0.6861" width="0.1300" height="2.8338" ry="0.0400" fill="currentColor"/>
</g>
<g transform="translate(84.5926, 4.0450)">
<path transform="scale(0.0040, -0.0040)" d="M218 136c66 0 108 -36 108 -89c0 -89 -113 -183 -218 -183c-66 0 -108 36 -108 89c0 89 113 183 218 183z" fill="currentColor"/>
</g>
<g transform="translate(84.6576, 4.0450)">
<rect x="-0.0650" y="0.1861" width="0.1300" height="3.0498" ry="0.0400" fill="currentColor"/>
</g>
<g transform="translate(87.5755, 3.5450)">
<path transform="scale(0.0040, -0.0040)" d="M218 136c66 0 108 -36 108 -89c0 -89 -113 -183 -218 -183c-66 0 -108 36 -108 89c0 89 113 183 218 183z" fill="currentColor"/>
</g>
<g transform="translate(87.6405, 4.0450)">
<rect x="-0.0650" y="-0.3139" width="0.1300" height="3.2659" ry="0.0400" fill="currentColor"/>
</g>
<g transform="translate(90.5584, 3.0450)">
<path transform="scale(0.0040, -0.0040)" d="M218 136c66 0 108 -36 108 -89c0 -89 -113 -183 -218 -183c-66 0 -108 36 -108 89c0 89 113 183 218 183z" fill="currentColor"/>
</g>
<g transform="translate(90.6234, 4.0450)">
<rect x="-0.0650" y="-0.8139" width="0.1300" height="3.4819" ry="0.0400" fill="currentColor"/>
</g>
<g transform="translate(93.5413, 2.5450)">
<path transform="scale(0.0040, -0.0040)" d="M218 136c66 0 108 -36 108 -89c0 -89 -113 -183 -218 -183c-66 0 -108 36 -108 89c0 89 113 183 218 183z" fill="currentColor"/>
</g>
<g transform="translate(93.6063, 4.0450)">
<rect x="-0.0650" y="-1.3139" width="0.1300" height="3.6980" ry="0.0400" fill="currentColor"/>
</g>
<g transform="translate(18.7212, 1.5450)">
<path transform="scale(0.0040, -0.0040)" d="M218 136c66 0 108 -36 108 -89c0 -89 -113 -183 -218 -183c-66 0 -108 36 -108 89c0 89 113 183 218 183z" fill="currentColor"/>
</g>
<g transform="translate(18.7862, 4.0450)">
<rect x="-0.0650" y="-2.3139" width="0.1300" height="3.3211" ry="0.0400" fill="currentColor"/>
</g>
<g transform="translate(21.7041, 2.0450)">
<path transform="scale(0.0040, -0.0040)" d="M218 136c66 0 108 -36 108 -89c0 -89 -113 -183 -218 -183c-66 0 -108 36 -108 89c0 89 113 183 218 183z" fill="currentColor"/>
</g>
<g transform="translate(21.7691, 4.0450)">
<rect x="-0.0650" y="-1.8139" width="0.1300" height="3.1496" ry="0.0400" fill="currentColor"/>
</g>
<g transform="translate(24.6869, 2.5450)">
<path transform="scale(0.0040, -0.0040)" d="M218 136c66 0 108 -36 108 -89c0 -89 -113 -183 -218 -183c-66 0 -108 36 -108 89c0 89 113 183 218 183z" fill="currentColor"/>
</g>
<g transform="translate(24.7519, 4.0450)">
<rect x="-0.0650" y="-1.3139" width="0.1300" height="2.9782" ry="0.0400" fill="currentColor"/>
</g>
<g transform="translate(27.7348, 4.0450)">
<rect x="-0.0650" y="-0.8139" width="0.1300" height="2.8067" ry="0.0400" fill="currentColor"/>
</g>
<g transform="translate(30.6527, 2.5450)">
<path transform="scale(0.0040, -0.0040)" d="M218 136c66 0 108 -36 108 -89c0 -89 -113 -183 -218 -183c-66 0 -108 36 -108 89c0 89 113 183 218 183z" fill="currentColor"/>
</g>
<g transform="translate(30.7177, 4.0450)">
<rect x="-0.0650" y="-1.3139" width="0.1300" height="4.1208" ry="0.0400" fill="currentColor"/>
</g>
<g transform="translate(7.9000, 1.5450)">
<path transform="scale(0.0040, -0.0040)" d="M218 136c66 0 108 -36 108 -89c0 -89 -113 -183 -218 -183c-66 0 -108 36 -108 89c0 89 113 183 218 183z" fill="currentColor"/>
</g>
<g transform="translate(0.8000, 3.0450)">
<path transform="scale(0.0040, -0.0040)" d="M557 -125c0 28 23 51 51 51s51 -23 51 -51s-23 -51 -51 -51s-51 23 -51 51zM557 125c0 28 23 51 51 51s51 -23 51 -51s-23 -51 -51 -51s-51 23 -51 51zM232 263c172 0 293 -88 293 -251c0 -263 -263 -414 -516 -521c-3 -3 -6 -4 -9 -4c-7 0 -13 6 -13 13c0 3 1 6 4 9
c202 118 412 265 412 493c0 120 -63 235 -171 235c-74 0 -129 -54 -154 -126c11 5 22 8 34 8c55 0 100 -45 100 -100c0 -58 -44 -106 -100 -106c-60 0 -112 47 -112 106c0 133 102 244 232 244z" fill="currentColor"/>
</g>
<g transform="translate(4.3000, 3.0450)">
<path transform="scale(0.0040, -0.0040)" d="M0 119c0 8 5 15 13 18l46 17v158c0 10 8 19 18 19s19 -9 19 -19v-145l83 31v158c0 10 9 19 19 19s18 -9 18 -19v-145l32 12c2 1 5 1 7 1c11 0 20 -9 20 -20v-60c0 -8 -5 -16 -13 -19l-46 -16v-160l32 11c2 1 5 1 7 1c11 0 20 -9 20 -20v-60c0 -8 -5 -15 -13 -18l-46 -17
v-158c0 -10 -8 -19 -18 -19s-19 9 -19 19v145l-83 -31v-158c0 -10 -9 -19 -19 -19s-18 9 -18 19v145l-32 -12c-2 -1 -5 -1 -7 -1c-11 0 -20 9 -20 20v60c0 8 5 16 13 19l46 16v160l-32 -11c-2 -1 -5 -1 -7 -1c-11 0 -20 9 -20 20v60zM179 95l-83 -30v-160l83 30v160z" fill="currentColor"/>
</g>
<g transform="translate(7.9650, 4.0450)">
<rect x="-0.0650" y="-2.3139" width="0.1300" height="3.3139" ry="0.0400" fill="currentColor"/>
</g>
<g transform="translate(8.0300, 5.0050)">
<path transform="scale(0.0040, -0.0040)" d="M0 205c91 51 211 131 211 233c0 24 -5 48 -14 70c-79 -89 -197 -160 -197 -282v-21zM267 663c0 -44 -16 -82 -39 -116c16 -35 25 -71 25 -109c0 -181 -253 -257 -253 -438h-16v500h16v-70c97 49 224 128 224 233c0 21 -5 42 -13 62c-3 16 10 27 23 27c32 0 33 -83 33 -89
z" fill="currentColor"/>
</g>
<g transform="translate(27.6698, 3.0450)">
<path transform="scale(0.0040, -0.0040)" d="M218 136c66 0 108 -36 108 -89c0 -89 -113 -183 -218 -183c-66 0 -108 36 -108 89c0 89 113 183 218 183z" fill="currentColor"/>
</g>
<g transform="translate(12.3810, 1.5450)">
<path transform="scale(0.0040, -0.0040)" d="M218 136c66 0 108 -36 108 -89c0 -89 -113 -183 -218 -183c-66 0 -108 36 -108 89c0 89 113 183 218 183z" fill="currentColor"/>
</g>
<g transform="translate(12.3810, 4.0450)">
<path transform="scale(0.0040, -0.0040)" d="M218 136c66 0 108 -36 108 -89c0 -89 -113 -183 -218 -183c-66 0 -108 36 -108 89c0 89 113 183 218 183z" fill="currentColor"/>
</g>
<g transform="translate(12.3810, 6.0450)">
<path transform="scale(0.0040, -0.0040)" d="M218 136c66 0 108 -36 108 -89c0 -89 -113 -183 -218 -183c-66 0 -108 36 -108 89c0 89 113 183 218 183z" fill="currentColor"/>
</g>
<g transform="translate(12.4460, 4.0450)">
<rect x="-0.0650" y="-2.3139" width="0.1300" height="6.9806" ry="0.0400" fill="currentColor"/>
</g>
<g transform="translate(39.3513, 3.0450)">
<path transform="scale(0.0040, -0.0040)" d="M218 136c66 0 108 -36 108 -89c0 -89 -113 -183 -218 -183c-66 0 -108 36 -108 89c0 89 113 183 218 183z" fill="currentColor"/>
</g>
<g transform="translate(39.4163, 4.0450)">
<rect x="-0.0650" y="-0.8139" width="0.1300" height="3.2018" ry="0.0400" fill="currentColor"/>
</g>
<g transform="translate(42.3342, 2.5450)">
<path transform="scale(0.0040, -0.0040)" d="M218 136c66 0 108 -36 108 -89c0 -89 -113 -183 -218 -183c-66 0 -108 36 -108 89c0 89 113 183 218 183z" fill="currentColor"/>
</g>
<g transform="translate(42.3992, 4.0450)">
<rect x="-0.0650" y="-1.3139" width="0.1300" height="3.5581" ry="0.0400" fill="currentColor"/>
</g>
<g transform="translate(45.3171, 2.0450)">
<path transform="scale(0.0040, -0.0040)" d="M218 136c66 0 108 -36 108 -89c0 -89 -113 -183 -218 -183c-66 0 -108 36 -108 89c0 89 113 183 218 183z" fill="currentColor"/>
</g>
<g transform="translate(45.3821, 4.0450)">
<rect x="-0.0650" y="-1.8139" width="0.1300" height="3.9144" ry="0.0400" fill="currentColor"/>
</g>
<g transform="translate(48.3000, 1.5450)">
<path transform="scale(0.0040, -0.0040)" d="M218 136c66 0 108 -36 108 -89c0 -89 -113 -183 -218 -183c-66 0 -108 36 -108 89c0 89 113 183 218 183z" fill="currentColor"/>
</g>
<g transform="translate(48.3650, 4.0450)">
<rect x="-0.0650" y="-2.3139" width="0.1300" height="4.2707" ry="0.0400" fill="currentColor"/>
</g>
<g transform="translate(51.2829, 1.0450)">
<path transform="scale(0.0040, -0.0040)" d="M218 136c66 0 108 -36 108 -89c0 -89 -113 -183 -218 -183c-66 0 -108 36 -108 89c0 89 113 183 218 183z" fill="currentColor"/>
</g>
<g transform="translate(51.3479, 4.0450)">
<rect x="-0.0650" y="-2.8139" width="0.1300" height="4.6270" ry="0.0400" fill="currentColor"/>
</g>
<g transform="translate(33.3856, 4.0450)">
<path transform="scale(0.0040, -0.0040)" d="M218 136c66 0 108 -36 108 -89c0 -89 -113 -183 -218 -183c-66 0 -108 36 -108 89c0 89 113 183 218 183z" fill="currentColor"/>
</g>
<g transform="translate(33.4506, 4.0450)">
<rect x="-0.0650" y="0.1861" width="0.1300" height="2.4891" ry="0.0400" fill="currentColor"/>
</g>
<g transform="translate(36.3685, 3.5450)">
<path transform="scale(0.0040, -0.0040)" d="M218 136c66 0 108 -36 108 -89c0 -89 -113 -183 -218 -183c-66 0 -108 36 -108 89c0 89 113 183 218 183z" fill="currentColor"/>
</g>
<g transform="translate(36.4335, 4.0450)">
<rect x="-0.0650" y="-0.3139" width="0.1300" height="2.8454" ry="0.0400" fill="currentColor"/>
</g>
<g transform="translate(0.0000, 15.0823)">
<line stroke-linejoin="round" stroke-linecap="round" stroke-width="0.1000" stroke="currentColor" x1="0.0500" y1="0" x2="84.6502" y2="0"/>
</g>
<g transform="translate(0.0000, 14.0823)">
<line stroke-linejoin="round" stroke-linecap="round" stroke-width="0.1000" stroke="currentColor" x1="0.0500" y1="0" x2="84.6502" y2="0"/>
</g>
<g transform="translate(0.0000, 13.0823)">
<line stroke-linejoin="round" stroke-linecap="round" stroke-width="0.1000" stroke="currentColor" x1="0.0500" y1="0" x2="84.6502" y2="0"/>
</g>
<g transform="translate(0.0000, 12.0823)">
<line stroke-linejoin="round" stroke-linecap="round" stroke-width="0.1000" stroke="currentColor" x1="0.0500" y1="0" x2="84.6502" y2="0"/>
</g>
<g transform="translate(0.0000, 11.0823)">
<line stroke-linejoin="round" stroke-linecap="round" stroke-width="0.1000" stroke="currentColor" x1="0.0500" y1="0" x2="84.6502" y2="0"/>
</g>
<g transform="translate(84.5102, 13.0823)">
<rect x="0.0000" y="-2.0000" width="0.1900" height="4.0000" ry="0.0000" fill="currentColor"/>
</g>
<g transform="translate(47.2174, 13.0823)">
<rect x="0.0000" y="-2.0000" width="0.1900" height="4.0000" ry="0.0000" fill="currentColor"/>
</g>
<g transform="translate(0.0000, 10.0823)">
<rect x="74.4040" y="-0.1000" width="1.9563" height="0.2000" ry="0.1000" fill="currentColor"/>
</g>
<g transform="translate(0.0000, 10.0823)">
<rect x="42.3829" y="-0.1000" width="1.9563" height="0.2000" ry="0.1000" fill="currentColor"/>
</g>
<g transform="translate(0.0000, 10.0823)">
<rect x="7.5740" y="-0.1000" width="1.9563" height="0.2000" ry="0.1000" fill="currentColor"/>
</g>
<g transform="translate(53.2944, 11.5823)">
<path transform="scale(0.0040, -0.0040)" d="M218 136c66 0 108 -36 108 -89c0 -89 -113 -183 -218 -183c-66 0 -108 36 -108 89c0 89 113 183 218 183z" fill="currentColor"/>
</g>
<g transform="translate(53.3594, 13.0823)">
<rect x="-0.0650" y="-1.3139" width="0.1300" height="4.0377" ry="0.0400" fill="currentColor"/>
</g>
<g transform="translate(55.5486, 13.0823)">
<path transform="scale(0.0040, -0.0040)" d="M218 136c66 0 108 -36 108 -89c0 -89 -113 -183 -218 -183c-66 0 -108 36 -108 89c0 89 113 183 218 183z" fill="currentColor"/>
</g>
<g transform="translate(55.6136, 13.0823)">
<rect x="-0.0650" y="0.1861" width="0.1300" height="2.8760" ry="0.0400" fill="currentColor"/>
</g>
<g transform="translate(58.0528, 13.0823)">
<path transform="scale(0.0040, -0.0040)" d="M218 136c66 0 108 -36 108 -89c0 -89 -113 -183 -218 -183c-66 0 -108 36 -108 89c0 89 113 183 218 183z" fill="currentColor"/>
</g>
<g transform="translate(58.1178, 13.0823)">
<rect x="-0.0650" y="0.1861" width="0.1300" height="3.2518" ry="0.0400" fill="currentColor"/>
</g>
<g transform="translate(60.3070, 14.0823)">
<path transform="scale(0.0040, -0.0040)" d="M218 136c66 0 108 -36 108 -89c0 -89 -113 -183 -218 -183c-66 0 -108 36 -108 89c0 89 113 183 218 183z" fill="currentColor"/>
</g>
<g transform="translate(60.3720, 13.0823)">
<rect x="-0.0650" y="1.1861" width="0.1300" height="2.5901" ry="0.0400" fill="currentColor"/>
</g>
<g transform="translate(62.8112, 14.0823)">
<path transform="scale(0.0040, -0.0040)" d="M218 136c66 0 108 -36 108 -89c0 -89 -113 -183 -218 -183c-66 0 -108 36 -108 89c0 89 113 183 218 183z" fill="currentColor"/>
</g>
<g transform="translate(62.8762, 13.0823)">
<rect x="-0.0650" y="1.1861" width="0.1300" height="2.9659" ry="0.0400" fill="currentColor"/>
</g>
<g transform="translate(72.2258, 16.2407)">
<polygon stroke-linejoin="round" stroke-linecap="round" stroke-width="0.0800" fill="currentColor" stroke="currentColor" points="10.1068 -1.3584 10.1068 -0.9584 0.0400 0.2000 0.0400 -0.2000"/>
</g>
<g transform="translate(67.5697, 17.5823)">
<polygon stroke-linejoin="round" stroke-linecap="round" stroke-width="0.0800" fill="currentColor" stroke="currentColor" points="14.7630 -1.8900 14.7630 -1.4900 0.0400 0.2000 0.0400 -0.2000"/>
</g>
<g transform="translate(44.9632, 11.0823)">
<path transform="scale(0.0040, -0.0040)" d="M218 136c66 0 108 -36 108 -89c0 -89 -113 -183 -218 -183c-66 0 -108 36 -108 89c0 89 113 183 218 183z" fill="currentColor"/>
</g>
<g transform="translate(45.0282, 13.0823)">
<rect x="-0.0650" y="-1.8139" width="0.1300" height="3.6318" ry="0.0400" fill="currentColor"/>
</g>
<g transform="translate(48.5360, 10.5823)">
<path transform="scale(0.0040, -0.0040)" d="M218 136c66 0 108 -36 108 -89c0 -89 -113 -183 -218 -183c-66 0 -108 36 -108 89c0 89 113 183 218 183z" fill="currentColor"/>
</g>
<g transform="translate(48.6010, 13.0823)">
<rect x="-0.0650" y="-2.3139" width="0.1300" height="4.3236" ry="0.0400" fill="currentColor"/>
</g>
<g transform="translate(50.7902, 11.5823)">
<path transform="scale(0.0040, -0.0040)" d="M218 136c66 0 108 -36 108 -89c0 -89 -113 -183 -218 -183c-66 0 -108 36 -108 89c0 89 113 183 218 183z" fill="currentColor"/>
</g>
<g transform="translate(50.8552, 13.0823)">
<rect x="-0.0650" y="-1.3139" width="0.1300" height="3.6619" ry="0.0400" fill="currentColor"/>
</g>
<g transform="translate(79.7385, 11.0823)">
<path transform="scale(0.0040, -0.0040)" d="M218 136c66 0 108 -36 108 -89c0 -89 -113 -183 -218 -183c-66 0 -108 36 -108 89c0 89 113 183 218 183z" fill="currentColor"/>
</g>
<g transform="translate(79.8035, 13.0823)">
<rect x="-0.0650" y="-1.8139" width="0.1300" height="4.9172" ry="0.0400" fill="currentColor"/>
</g>
<g transform="translate(82.2427, 11.5823)">
<path transform="scale(0.0040, -0.0040)" d="M218 136c66 0 108 -36 108 -89c0 -89 -113 -183 -218 -183c-66 0 -108 36 -108 89c0 89 113 183 218 183z" fill="currentColor"/>
</g>
<g transform="translate(82.3077, 13.0823)">
<rect x="-0.0650" y="-1.3139" width="0.1300" height="4.1313" ry="0.0400" fill="currentColor"/>
</g>
<g transform="translate(77.2993, 13.0823)">
<rect x="-0.0650" y="-2.3139" width="0.1300" height="5.7031" ry="0.0400" fill="currentColor"/>
</g>
<g transform="translate(7.9000, 14.0823)">
<polygon stroke-linejoin="round" stroke-linecap="round" stroke-width="0.0800" fill="currentColor" stroke="currentColor" points="17.1195 -0.2000 17.1195 0.2000 0.0400 0.2000 0.0400 -0.2000"/>
</g>
<g transform="translate(7.9000, 14.8923)">
<polygon stroke-linejoin="round" stroke-linecap="round" stroke-width="0.0800" fill="currentColor" stroke="currentColor" points="17.1195 -0.2000 17.1195 0.2000 0.0400 0.2000 0.0400 -0.2000"/>
</g>
<g transform="translate(27.1837, 16.2723)">
<polygon stroke-linejoin="round" stroke-linecap="round" stroke-width="0.0800" fill="currentColor" stroke="currentColor" points="17.8695 -2.3900 17.8695 -1.9900 0.0400 0.2000 0.0400 -0.2000"/>
</g>
<g transform="translate(27.1837, 17.0823)">
<polygon stroke-linejoin="round" stroke-linecap="round" stroke-width="0.0800" fill="currentColor" stroke="currentColor" points="17.8695 -2.3900 17.8695 -1.9900 0.0400 0.2000 0.0400 -0.2000"/>
</g>
<g transform="translate(48.5360, 14.2723)">
<polygon stroke-linejoin="round" stroke-linecap="round" stroke-width="0.0800" fill="currentColor" stroke="currentColor" points="16.6195 2.3000 16.6195 2.7000 0.0400 0.2000 0.0400 -0.2000"/>
</g>
<g transform="translate(48.5360, 15.0823)">
<polygon stroke-linejoin="round" stroke-linecap="round" stroke-width="0.0800" fill="currentColor" stroke="currentColor" points="16.6195 2.3000 16.6195 2.7000 0.0400 0.2000 0.0400 -0.2000"/>
</g>
<g transform="translate(65.0655, 15.0823)">
<path transform="scale(0.0040, -0.0040)" d="M218 136c66 0 108 -36 108 -89c0 -89 -113 -183 -218 -183c-66 0 -108 36 -108 89c0 89 113 183 218 183z" fill="currentColor"/>
</g>
<g transform="translate(65.1305, 13.0823)">
<rect x="-0.0650" y="2.1861" width="0.1300" height="2.3041" ry="0.0400" fill="currentColor"/>
</g>
<g transform="translate(67.5697, 15.0823)">
<path transform="scale(0.0040, -0.0040)" d="M218 136c66 0 108 -36 108 -89c0 -89 -113 -183 -218 -183c-66 0 -108 36 -108 89c0 89 113 183 218 183z" fill="currentColor"/>
</g>
<g transform="translate(69.3239, 14.5823)">
<path transform="scale(0.0040, -0.0040)" d="M0 0c0 31 25 56 56 56s56 -25 56 -56s-25 -56 -56 -56s-56 25 -56 56z" fill="currentColor"/>
</g>
<g transform="translate(67.6347, 13.0823)">
<rect x="-0.0650" y="2.1861" width="0.1300" height="2.3065" ry="0.0400" fill="currentColor"/>
</g>
<g transform="translate(72.2258, 10.5823)">
<path transform="scale(0.0040, -0.0040)" d="M218 136c66 0 108 -36 108 -89c0 -89 -113 -183 -218 -183c-66 0 -108 36 -108 89c0 89 113 183 218 183z" fill="currentColor"/>
</g>
<g transform="translate(72.2908, 13.0823)">
<rect x="-0.0650" y="-2.3139" width="0.1300" height="6.2749" ry="0.0400" fill="currentColor"/>
</g>
<g transform="translate(74.7300, 10.0823)">
<path transform="scale(0.0040, -0.0040)" d="M218 136c66 0 108 -36 108 -89c0 -89 -113 -183 -218 -183c-66 0 -108 36 -108 89c0 89 113 183 218 183z" fill="currentColor"/>
</g>
<g transform="translate(74.7950, 13.0823)">
<rect x="-0.0650" y="-2.8139" width="0.1300" height="6.4890" ry="0.0400" fill="currentColor"/>
</g>
<g transform="translate(77.2343, 10.5823)">
<path transform="scale(0.0040, -0.0040)" d="M218 136c66 0 108 -36 108 -89c0 -89 -113 -183 -218 -183c-66 0 -108 36 -108 89c0 89 113 183 218 183z" fill="currentColor"/>
</g>
<g transform="translate(15.1626, 12.0823)">
<path transform="scale(0.0040, -0.0040)" d="M218 136c66 0 108 -36 108 -89c0 -89 -113 -183 -218 -183c-66 0 -108 36 -108 89c0 89 113 183 218 183z" fill="currentColor"/>
</g>
<g transform="translate(15.2276, 13.0823)">
<rect x="-0.0650" y="-0.8139" width="0.1300" height="2.6239" ry="0.0400" fill="currentColor"/>
</g>
<g transform="translate(17.6669, 11.5823)">
<path transform="scale(0.0040, -0.0040)" d="M218 136c66 0 108 -36 108 -89c0 -89 -113 -183 -218 -183c-66 0 -108 36 -108 89c0 89 113 183 218 183z" fill="currentColor"/>
</g>
<g transform="translate(17.7319, 13.0823)">
<rect x="-0.0650" y="-1.3139" width="0.1300" height="3.1239" ry="0.0400" fill="currentColor"/>
</g>
<g transform="translate(19.9211, 12.5823)">
<path transform="scale(0.0040, -0.0040)" d="M218 136c66 0 108 -36 108 -89c0 -89 -113 -183 -218 -183c-66 0 -108 36 -108 89c0 89 113 183 218 183z" fill="currentColor"/>
</g>
<g transform="translate(19.9861, 13.0823)">
<rect x="-0.0650" y="-0.3139" width="0.1300" height="2.1239" ry="0.0400" fill="currentColor"/>
</g>
<g transform="translate(22.4253, 12.0823)">
<path transform="scale(0.0040, -0.0040)" d="M218 136c66 0 108 -36 108 -89c0 -89 -113 -183 -218 -183c-66 0 -108 36 -108 89c0 89 113 183 218 183z" fill="currentColor"/>
</g>
<g transform="translate(24.9295, 11.5823)">
<path transform="scale(0.0040, -0.0040)" d="M218 136c66 0 108 -36 108 -89c0 -89 -113 -183 -218 -183c-66 0 -108 36 -108 89c0 89 113 183 218 183z" fill="currentColor"/>
</g>
<g transform="translate(24.9945, 13.0823)">
<rect x="-0.0650" y="-1.3139" width="0.1300" height="3.1239" ry="0.0400" fill="currentColor"/>
</g>
<g transform="translate(0.8000, 12.0823)">
<path transform="scale(0.0040, -0.0040)" d="M557 -125c0 28 23 51 51 51s51 -23 51 -51s-23 -51 -51 -51s-51 23 -51 51zM557 125c0 28 23 51 51 51s51 -23 51 -51s-23 -51 -51 -51s-51 23 -51 51zM232 263c172 0 293 -88 293 -251c0 -263 -263 -414 -516 -521c-3 -3 -6 -4 -9 -4c-7 0 -13 6 -13 13c0 3 1 6 4 9
c202 118 412 265 412 493c0 120 -63 235 -171 235c-74 0 -129 -54 -154 -126c11 5 22 8 34 8c55 0 100 -45 100 -100c0 -58 -44 -106 -100 -106c-60 0 -112 47 -112 106c0 133 102 244 232 244z" fill="currentColor"/>
</g>
<g transform="translate(4.3000, 12.0823)">
<path transform="scale(0.0040, -0.0040)" d="M0 119c0 8 5 15 13 18l46 17v158c0 10 8 19 18 19s19 -9 19 -19v-145l83 31v158c0 10 9 19 19 19s18 -9 18 -19v-145l32 12c2 1 5 1 7 1c11 0 20 -9 20 -20v-60c0 -8 -5 -16 -13 -19l-46 -16v-160l32 11c2 1 5 1 7 1c11 0 20 -9 20 -20v-60c0 -8 -5 -15 -13 -18l-46 -17
v-158c0 -10 -8 -19 -18 -19s-19 9 -19 19v145l-83 -31v-158c0 -10 -9 -19 -19 -19s-18 9 -18 19v145l-32 -12c-2 -1 -5 -1 -7 -1c-11 0 -20 9 -20 20v60c0 8 5 16 13 19l46 16v160l-32 -11c-2 -1 -5 -1 -7 -1c-11 0 -20 9 -20 20v60zM179 95l-83 -30v-160l83 30v160z" fill="currentColor"/>
</g>
<g transform="translate(-1.1267, 10.0076)">
<text font-family="serif" font-size="1.7459" text-anchor="start" fill="currentColor">
<tspan>3</tspan>
</text>
</g>
<g transform="translate(22.4903, 13.0823)">
<rect x="-0.0650" y="-0.8139" width="0.1300" height="2.6239" ry="0.0400" fill="currentColor"/>
</g>
<g transform="translate(7.9000, 10.0823)">
<path transform="scale(0.0040, -0.0040)" d="M218 136c66 0 108 -36 108 -89c0 -89 -113 -183 -218 -183c-66 0 -108 36 -108 89c0 89 113 183 218 183z" fill="currentColor"/>
</g>
<g transform="translate(7.9650, 13.0823)">
<rect x="-0.0650" y="-2.8139" width="0.1300" height="4.6239" ry="0.0400" fill="currentColor"/>
</g>
<g transform="translate(10.1542, 11.0823)">
<path transform="scale(0.0040, -0.0040)" d="M218 136c66 0 108 -36 108 -89c0 -89 -113 -183 -218 -183c-66 0 -108 36 -108 89c0 89 113 183 218 183z" fill="currentColor"/>
</g>
<g transform="translate(10.2192, 13.0823)">
<rect x="-0.0650" y="-1.8139" width="0.1300" height="3.6239" ry="0.0400" fill="currentColor"/>
</g>
<g transform="translate(12.6584, 11.5823)">
<path transform="scale(0.0040, -0.0040)" d="M218 136c66 0 108 -36 108 -89c0 -89 -113 -183 -218 -183c-66 0 -108 36 -108 89c0 89 113 183 218 183z" fill="currentColor"/>
</g>
<g transform="translate(12.7234, 13.0823)">
<rect x="-0.0650" y="-1.3139" width="0.1300" height="3.1239" ry="0.0400" fill="currentColor"/>
</g>
<g transform="translate(32.6921, 12.0823)">
<path transform="scale(0.0040, -0.0040)" d="M218 136c66 0 108 -36 108 -89c0 -89 -113 -183 -218 -183c-66 0 -108 36 -108 89c0 89 113 183 218 183z" fill="currentColor"/>
</g>
<g transform="translate(32.7571, 13.0823)">
<rect x="-0.0650" y="-0.8139" width="0.1300" height="4.1324" ry="0.0400" fill="currentColor"/>
</g>
<g transform="translate(35.1963, 11.5823)">
<path transform="scale(0.0040, -0.0040)" d="M218 136c66 0 108 -36 108 -89c0 -89 -113 -183 -218 -183c-66 0 -108 36 -108 89c0 89 113 183 218 183z" fill="currentColor"/>
</g>
<g transform="translate(35.2613, 13.0823)">
<rect x="-0.0650" y="-1.3139" width="0.1300" height="4.3261" ry="0.0400" fill="currentColor"/>
</g>
<g transform="translate(37.7006, 11.0823)">
<path transform="scale(0.0040, -0.0040)" d="M218 136c66 0 108 -36 108 -89c0 -89 -113 -183 -218 -183c-66 0 -108 36 -108 89c0 89 113 183 218 183z" fill="currentColor"/>
</g>
<g transform="translate(37.7656, 13.0823)">
<rect x="-0.0650" y="-1.8139" width="0.1300" height="4.5199" ry="0.0400" fill="currentColor"/>
</g>
<g transform="translate(40.2048, 10.5823)">
<path transform="scale(0.0040, -0.0040)" d="M218 136c66 0 108 -36 108 -89c0 -89 -113 -183 -218 -183c-66 0 -108 36 -108 89c0 89 113 183 218 183z" fill="currentColor"/>
</g>
<g transform="translate(40.2698, 13.0823)">
<rect x="-0.0650" y="-2.3139" width="0.1300" height="4.7137" ry="0.0400" fill="currentColor"/>
</g>
<g transform="translate(42.7090, 10.0823)">
<path transform="scale(0.0040, -0.0040)" d="M218 136c66 0 108 -36 108 -89c0 -89 -113 -183 -218 -183c-66 0 -108 36 -108 89c0 89 113 183 218 183z" fill="currentColor"/>
</g>
<g transform="translate(42.7740, 13.0823)">
<rect x="-0.0650" y="-2.8139" width="0.1300" height="4.9075" ry="0.0400" fill="currentColor"/>
</g>
<g transform="translate(27.1837, 14.5823)">
<path transform="scale(0.0040, -0.0040)" d="M218 136c66 0 108 -36 108 -89c0 -89 -113 -183 -218 -183c-66 0 -108 36 -108 89c0 89 113 183 218 183z" fill="currentColor"/>
</g>
<g transform="translate(27.2487, 13.0823)">
<rect x="-0.0650" y="1.6861" width="0.1300" height="2.3059" ry="0.0400" fill="currentColor"/>
</g>
<g transform="translate(29.9379, 13.0823)">
<path transform="scale(0.0040, -0.0040)" d="M218 136c66 0 108 -36 108 -89c0 -89 -113 -183 -218 -183c-66 0 -108 36 -108 89c0 89 113 183 218 183z" fill="currentColor"/>
</g>
<g transform="translate(30.0029, 13.0823)">
<rect x="-0.0650" y="0.1861" width="0.1300" height="3.4692" ry="0.0400" fill="currentColor"/>
</g>
</svg>
