<svg xmlns="http://www.w3.org/2000/svg" xmlns:xlink="http://www.w3.org/1999/xlink" version="1.2" width="181.98mm" height="31.07mm" viewBox="-1.1267 -0.0000 103.5567 17.6809">
<style type="text/css">
<![CDATA[
tspan { white-space: pre; }
]]>
</style>
<g transform="translate(0.0000, 1.3459)">
<rect x="86.8045" y="-0.1000" width="1.9563" height="0.2000" ry="0.1000" fill="currentColor"/>
</g>
<g transform="translate(0.0000, 1.3459)">
<rect x="61.7338" y="-0.1000" width="1.9563" height="0.2000" ry="0.1000" fill="currentColor"/>
</g>
<g transform="translate(0.0000, 1.3459)">
<rect x="42.0809" y="-0.1000" width="1.9563" height="0.2000" ry="0.1000" fill="currentColor"/>
</g>
<g transform="translate(102.2399, 4.3459)">
<rect x="0.0000" y="-2.0000" width="0.1900" height="4.0000" ry="0.0000" fill="currentColor"/>
</g>
<g transform="translate(54.4185, 4.3459)">
<rect x="0.0000" y="-2.0000" width="0.1900" height="4.0000" ry="0.0000" fill="currentColor"/>
</g>
<g transform="translate(0.0000, 6.3459)">
<line stroke-linejoin="round" stroke-linecap="round" stroke-width="0.1000" stroke="currentColor" x1="0.0500" y1="0" x2="102.3799" y2="0"/>
</g>
<g transform="translate(0.0000, 5.3459)">
<line stroke-linejoin="round" stroke-linecap="round" stroke-width="0.1000" stroke="currentColor" x1="0.0500" y1="0" x2="102.3799" y2="0"/>
</g>
<g transform="translate(0.0000, 4.3459)">
<line stroke-linejoin="round" stroke-linecap="round" stroke-width="0.1000" stroke="currentColor" x1="0.0500" y1="0" x2="102.3799" y2="0"/>
</g>
<g transform="translate(0.0000, 3.3459)">
<line stroke-linejoin="round" stroke-linecap="round" stroke-width="0.1000" stroke="currentColor" x1="0.0500" y1="0" x2="102.3799" y2="0"/>
</g>
<g transform="translate(0.0000, 2.3459)">
<line stroke-linejoin="round" stroke-linecap="round" stroke-width="0.1000" stroke="currentColor" x1="0.0500" y1="0" x2="102.3799" y2="0"/>
</g>
<g transform="translate(64.9369, 4.3459)">
<rect x="-0.0650" y="-1.8139" width="0.1300" height="3.6239" ry="0.0400" fill="currentColor"/>
</g>
<g transform="translate(67.9340, 2.8459)">
<path transform="scale(0.0040, -0.0040)" d="M218 136c66 0 108 -36 108 -89c0 -89 -113 -183 -218 -183c-66 0 -108 36 -108 89c0 89 113 183 218 183z" fill="currentColor"/>
</g>
<g transform="translate(67.9990, 4.3459)">
<rect x="-0.0650" y="-1.3139" width="0.1300" height="3.1239" ry="0.0400" fill="currentColor"/>
</g>
<g transform="translate(70.9961, 3.3459)">
<path transform="scale(0.0040, -0.0040)" d="M218 136c66 0 108 -36 108 -89c0 -89 -113 -183 -218 -183c-66 0 -108 36 -108 89c0 89 113 183 218 183z" fill="currentColor"/>
</g>
<g transform="translate(64.8719, 2.3459)">
<path transform="scale(0.0040, -0.0040)" d="M218 136c66 0 108 -36 108 -89c0 -89 -113 -183 -218 -183c-66 0 -108 36 -108 89c0 89 113 183 218 183z" fill="currentColor"/>
</g>
<g transform="translate(71.0611, 4.3459)">
<rect x="-0.0650" y="-0.8139" width="0.1300" height="2.6239" ry="0.0400" fill="currentColor"/>
</g>
<g transform="translate(74.0581, 2.8459)">
<path transform="scale(0.0040, -0.0040)" d="M218 136c66 0 108 -36 108 -89c0 -89 -113 -183 -218 -183c-66 0 -108 36 -108 89c0 89 113 183 218 183z" fill="currentColor"/>
</g>
<g transform="translate(74.1231, 4.3459)">
<rect x="-0.0650" y="-1.3139" width="0.1300" height="3.1239" ry="0.0400" fill="currentColor"/>
</g>
<g transform="translate(77.1202, 2.3459)">
<path transform="scale(0.0040, -0.0040)" d="M218 136c66 0 108 -36 108 -89c0 -89 -113 -183 -218 -183c-66 0 -108 36 -108 89c0 89 113 183 218 183z" fill="currentColor"/>
</g>
<g transform="translate(77.1852, 4.3459)">
<rect x="-0.0650" y="-1.8139" width="0.1300" height="3.6239" ry="0.0400" fill="currentColor"/>
</g>
<g transform="translate(55.9357, 2.3459)">
<path transform="scale(0.0040, -0.0040)" d="M218 136c66 0 108 -36 108 -89c0 -89 -113 -183 -218 -183c-66 0 -108 36 -108 89c0 89 113 183 218 183z" fill="currentColor"/>
</g>
<g transform="translate(87.1305, 6.4732)">
<polygon stroke-linejoin="round" stroke-linecap="round" stroke-width="0.0800" fill="currentColor" stroke="currentColor" points="12.3383 -0.3273 12.3383 0.0727 0.0400 0.2000 0.0400 -0.2000"/>
</g>
<g transform="translate(81.0323, 7.3459)">
<polygon stroke-linejoin="round" stroke-linecap="round" stroke-width="0.0800" fill="currentColor" stroke="currentColor" points="18.4365 -0.3900 18.4365 0.0100 0.0400 0.2000 0.0400 -0.2000"/>
</g>
<g transform="translate(56.0007, 4.3459)">
<rect x="-0.0650" y="-1.8139" width="0.1300" height="3.6239" ry="0.0400" fill="currentColor"/>
</g>
<g transform="translate(58.9977, 1.8459)">
<path transform="scale(0.0040, -0.0040)" d="M218 136c66 0 108 -36 108 -89c0 -89 -113 -183 -218 -183c-66 0 -108 36 -108 89c0 89 113 183 218 183z" fill="currentColor"/>
</g>
<g transform="translate(59.0627, 4.3459)">
<rect x="-0.0650" y="-2.3139" width="0.1300" height="4.1239" ry="0.0400" fill="currentColor"/>
</g>
<g transform="translate(62.0598, 1.3459)">
<path transform="scale(0.0040, -0.0040)" d="M218 136c66 0 108 -36 108 -89c0 -89 -113 -183 -218 -183c-66 0 -108 36 -108 89c0 89 113 183 218 183z" fill="currentColor"/>
</g>
<g transform="translate(62.1248, 4.3459)">
<rect x="-0.0650" y="-2.8139" width="0.1300" height="4.6239" ry="0.0400" fill="currentColor"/>
</g>
<g transform="translate(96.3168, 2.8459)">
<path transform="scale(0.0040, -0.0040)" d="M218 136c66 0 108 -36 108 -89c0 -89 -113 -183 -218 -183c-66 0 -108 36 -108 89c0 89 113 183 218 183z" fill="currentColor"/>
</g>
<g transform="translate(96.3818, 4.3459)">
<rect x="-0.0650" y="-1.3139" width="0.1300" height="4.1561" ry="0.0400" fill="currentColor"/>
</g>
<g transform="translate(99.3788, 3.3459)">
<path transform="scale(0.0040, -0.0040)" d="M218 136c66 0 108 -36 108 -89c0 -89 -113 -183 -218 -183c-66 0 -108 36 -108 89c0 89 113 183 218 183z" fill="currentColor"/>
</g>
<g transform="translate(99.4438, 4.3459)">
<rect x="-0.0650" y="-0.8139" width="0.1300" height="3.6246" ry="0.0400" fill="currentColor"/>
</g>
<g transform="translate(9.7500, 5.5359)">
<polygon stroke-linejoin="round" stroke-linecap="round" stroke-width="0.0800" fill="currentColor" stroke="currentColor" points="20.5245 2.3000 20.5245 2.7000 0.0400 0.2000 0.0400 -0.2000"/>
</g>
<g transform="translate(9.7500, 6.3459)">
<polygon stroke-linejoin="round" stroke-linecap="round" stroke-width="0.0800" fill="currentColor" stroke="currentColor" points="20.5245 2.3000 20.5245 2.7000 0.0400 0.2000 0.0400 -0.2000"/>
</g>
<g transform="translate(39.3448, 7.4781)">
<polygon stroke-linejoin="round" stroke-linecap="round" stroke-width="0.0800" fill="currentColor" stroke="currentColor" points="12.3383 -1.3322 12.3383 -0.9322 0.0400 0.2000 0.0400 -0.2000"/>
</g>
<g transform="translate(33.2466, 8.8459)">
<polygon stroke-linejoin="round" stroke-linecap="round" stroke-width="0.0800" fill="currentColor" stroke="currentColor" points="18.4365 -1.8900 18.4365 -1.4900 0.0400 0.2000 0.0400 -0.2000"/>
</g>
<g transform="translate(55.9357, 5.3459)">
<polygon stroke-linejoin="round" stroke-linecap="round" stroke-width="0.0800" fill="currentColor" stroke="currentColor" points="21.2745 -0.2000 21.2745 0.2000 0.0400 0.2000 0.0400 -0.2000"/>
</g>
<g transform="translate(55.9357, 6.1559)">
<polygon stroke-linejoin="round" stroke-linecap="round" stroke-width="0.0800" fill="currentColor" stroke="currentColor" points="21.2745 -0.2000 21.2745 0.2000 0.0400 0.2000 0.0400 -0.2000"/>
</g>
<g transform="translate(87.1955, 4.3459)">
<rect x="-0.0650" y="-2.8139" width="0.1300" height="5.7505" ry="0.0400" fill="currentColor"/>
</g>
<g transform="translate(81.0323, 4.3459)">
<path transform="scale(0.0040, -0.0040)" d="M218 136c66 0 108 -36 108 -89c0 -89 -113 -183 -218 -183c-66 0 -108 36 -108 89c0 89 113 183 218 183z" fill="currentColor"/>
</g>
<g transform="translate(82.7865, 3.8459)">
<path transform="scale(0.0040, -0.0040)" d="M0 0c0 31 25 56 56 56s56 -25 56 -56s-25 -56 -56 -56s-56 25 -56 56z" fill="currentColor"/>
</g>
<g transform="translate(81.0973, 4.3459)">
<rect x="-0.0650" y="0.1861" width="0.1300" height="2.8132" ry="0.0400" fill="currentColor"/>
</g>
<g transform="translate(79.5823, 4.3459)">
<path transform="scale(0.0040, -0.0040)" d="M0 119c0 8 5 15 13 18l46 17v158c0 10 8 19 18 19s19 -9 19 -19v-145l83 31v158c0 10 9 19 19 19s18 -9 18 -19v-145l32 12c2 1 5 1 7 1c11 0 20 -9 20 -20v-60c0 -8 -5 -16 -13 -19l-46 -16v-160l32 11c2 1 5 1 7 1c11 0 20 -9 20 -20v-60c0 -8 -5 -15 -13 -18l-46 -17
v-158c0 -10 -8 -19 -18 -19s-19 9 -19 19v145l-83 -31v-158c0 -10 -9 -19 -19 -19s-18 9 -18 19v145l-32 -12c-2 -1 -5 -1 -7 -1c-11 0 -20 9 -20 20v60c0 8 5 16 13 19l46 16v160l-32 -11c-2 -1 -5 -1 -7 -1c-11 0 -20 9 -20 20v60zM179 95l-83 -30v-160l83 30v160z" fill="currentColor"/>
</g>
<g transform="translate(87.1305, 1.3459)">
<path transform="scale(0.0040, -0.0040)" d="M218 136c66 0 108 -36 108 -89c0 -89 -113 -183 -218 -183c-66 0 -108 36 -108 89c0 89 113 183 218 183z" fill="currentColor"/>
</g>
<g transform="translate(90.1926, 1.8459)">
<path transform="scale(0.0040, -0.0040)" d="M218 136c66 0 108 -36 108 -89c0 -89 -113 -183 -218 -183c-66 0 -108 36 -108 89c0 89 113 183 218 183z" fill="currentColor"/>
</g>
<g transform="translate(90.2576, 4.3459)">
<rect x="-0.0650" y="-2.3139" width="0.1300" height="5.2190" ry="0.0400" fill="currentColor"/>
</g>
<g transform="translate(93.2547, 2.3459)">
<path transform="scale(0.0040, -0.0040)" d="M218 136c66 0 108 -36 108 -89c0 -89 -113 -183 -218 -183c-66 0 -108 36 -108 89c0 89 113 183 218 183z" fill="currentColor"/>
</g>
<g transform="translate(93.3197, 4.3459)">
<rect x="-0.0650" y="-1.8139" width="0.1300" height="4.6875" ry="0.0400" fill="currentColor"/>
</g>
<g transform="translate(18.4362, 4.3459)">
<path transform="scale(0.0040, -0.0040)" d="M218 136c66 0 108 -36 108 -89c0 -89 -113 -183 -218 -183c-66 0 -108 36 -108 89c0 89 113 183 218 183z" fill="currentColor"/>
</g>
<g transform="translate(18.5012, 4.3459)">
<rect x="-0.0650" y="0.1861" width="0.1300" height="2.8778" ry="0.0400" fill="currentColor"/>
</g>
<g transform="translate(21.4983, 4.3459)">
<path transform="scale(0.0040, -0.0040)" d="M218 136c66 0 108 -36 108 -89c0 -89 -113 -183 -218 -183c-66 0 -108 36 -108 89c0 89 113 183 218 183z" fill="currentColor"/>
</g>
<g transform="translate(21.5633, 4.3459)">
<rect x="-0.0650" y="0.1861" width="0.1300" height="3.2500" ry="0.0400" fill="currentColor"/>
</g>
<g transform="translate(15.6891, 4.3459)">
<rect x="-0.0650" y="-1.3139" width="0.1300" height="4.0359" ry="0.0400" fill="currentColor"/>
</g>
<g transform="translate(24.3104, 5.3459)">
<path transform="scale(0.0040, -0.0040)" d="M218 136c66 0 108 -36 108 -89c0 -89 -113 -183 -218 -183c-66 0 -108 36 -108 89c0 89 113 183 218 183z" fill="currentColor"/>
</g>
<g transform="translate(24.3754, 4.3459)">
<rect x="-0.0650" y="1.1861" width="0.1300" height="2.5919" ry="0.0400" fill="currentColor"/>
</g>
<g transform="translate(27.4375, 4.3459)">
<rect x="-0.0650" y="1.1861" width="0.1300" height="2.9641" ry="0.0400" fill="currentColor"/>
</g>
<g transform="translate(9.7500, 1.8459)">
<path transform="scale(0.0040, -0.0040)" d="M218 136c66 0 108 -36 108 -89c0 -89 -113 -183 -218 -183c-66 0 -108 36 -108 89c0 89 113 183 218 183z" fill="currentColor"/>
</g>
<g color="rgb(100.0000%, 100.0000%, 100.0000%)">
<g transform="translate(0.0000, 4.3459)">
<rect x="0.0000" y="-2.0812" width="3.7500" height="4.1625" ry="0.0000" fill="currentColor"/>
</g>
</g>
<g transform="translate(0.6000, 4.3459)">
<path transform="scale(0.0040, -0.0040)" d="M0 0c0 31 25 56 56 56s56 -25 56 -56s-25 -56 -56 -56s-56 25 -56 56z" fill="currentColor"/>
</g>
<g transform="translate(1.6500, 4.3459)">
<path transform="scale(0.0040, -0.0040)" d="M0 0c0 31 25 56 56 56s56 -25 56 -56s-25 -56 -56 -56s-56 25 -56 56z" fill="currentColor"/>
</g>
<g transform="translate(2.7000, 4.3459)">
<path transform="scale(0.0040, -0.0040)" d="M0 0c0 31 25 56 56 56s56 -25 56 -56s-25 -56 -56 -56s-56 25 -56 56z" fill="currentColor"/>
</g>
<g transform="translate(4.7500, 3.3459)">
<path transform="scale(0.0040, -0.0040)" d="M557 -125c0 28 23 51 51 51s51 -23 51 -51s-23 -51 -51 -51s-51 23 -51 51zM557 125c0 28 23 51 51 51s51 -23 51 -51s-23 -51 -51 -51s-51 23 -51 51zM232 263c172 0 293 -88 293 -251c0 -263 -263 -414 -516 -521c-3 -3 -6 -4 -9 -4c-7 0 -13 6 -13 13c0 3 1 6 4 9
c202 118 412 265 412 493c0 120 -63 235 -171 235c-74 0 -129 -54 -154 -126c11 5 22 8 34 8c55 0 100 -45 100 -100c0 -58 -44 -106 -100 -106c-60 0 -112 47 -112 106c0 133 102 244 232 244z" fill="currentColor"/>
</g>
<g transform="translate(9.8150, 4.3459)">
<rect x="-0.0650" y="-2.3139" width="0.1300" height="4.3218" ry="0.0400" fill="currentColor"/>
</g>
<g transform="translate(27.3725, 5.3459)">
<path transform="scale(0.0040, -0.0040)" d="M218 136c66 0 108 -36 108 -89c0 -89 -113 -183 -218 -183c-66 0 -108 36 -108 89c0 89 113 183 218 183z" fill="currentColor"/>
</g>
<g transform="translate(-1.1267, 1.2959)">
<text font-family="serif" font-size="1.7459" text-anchor="start" fill="currentColor">
<tspan>4</tspan>
</text>
</g>
<g transform="translate(12.5621, 2.8459)">
<path transform="scale(0.0040, -0.0040)" d="M218 136c66 0 108 -36 108 -89c0 -89 -113 -183 -218 -183c-66 0 -108 36 -108 89c0 89 113 183 218 183z" fill="currentColor"/>
</g>
<g transform="translate(12.6271, 4.3459)">
<rect x="-0.0650" y="-1.3139" width="0.1300" height="3.6637" ry="0.0400" fill="currentColor"/>
</g>
<g transform="translate(15.6241, 2.8459)">
<path transform="scale(0.0040, -0.0040)" d="M218 136c66 0 108 -36 108 -89c0 -89 -113 -183 -218 -183c-66 0 -108 36 -108 89c0 89 113 183 218 183z" fill="currentColor"/>
</g>
<g transform="translate(42.4719, 4.3459)">
<rect x="-0.0650" y="-2.8139" width="0.1300" height="6.4701" ry="0.0400" fill="currentColor"/>
</g>
<g transform="translate(39.3448, 1.8459)">
<path transform="scale(0.0040, -0.0040)" d="M218 136c66 0 108 -36 108 -89c0 -89 -113 -183 -218 -183c-66 0 -108 36 -108 89c0 89 113 183 218 183z" fill="currentColor"/>
</g>
<g transform="translate(39.4098, 4.3459)">
<rect x="-0.0650" y="-2.3139" width="0.1300" height="6.2502" ry="0.0400" fill="currentColor"/>
</g>
<g transform="translate(48.5961, 4.3459)">
<rect x="-0.0650" y="-1.8139" width="0.1300" height="4.9099" ry="0.0400" fill="currentColor"/>
</g>
<g transform="translate(42.4069, 1.3459)">
<path transform="scale(0.0040, -0.0040)" d="M218 136c66 0 108 -36 108 -89c0 -89 -113 -183 -218 -183c-66 0 -108 36 -108 89c0 89 113 183 218 183z" fill="currentColor"/>
</g>
<g transform="translate(30.1845, 6.3459)">
<path transform="scale(0.0040, -0.0040)" d="M218 136c66 0 108 -36 108 -89c0 -89 -113 -183 -218 -183c-66 0 -108 36 -108 89c0 89 113 183 218 183z" fill="currentColor"/>
</g>
<g transform="translate(48.5311, 2.3459)">
<path transform="scale(0.0040, -0.0040)" d="M218 136c66 0 108 -36 108 -89c0 -89 -113 -183 -218 -183c-66 0 -108 36 -108 89c0 89 113 183 218 183z" fill="currentColor"/>
</g>
<g transform="translate(45.4690, 1.8459)">
<path transform="scale(0.0040, -0.0040)" d="M218 136c66 0 108 -36 108 -89c0 -89 -113 -183 -218 -183c-66 0 -108 36 -108 89c0 89 113 183 218 183z" fill="currentColor"/>
</g>
<g transform="translate(45.5340, 4.3459)">
<rect x="-0.0650" y="-2.3139" width="0.1300" height="5.6900" ry="0.0400" fill="currentColor"/>
</g>
<g transform="translate(33.3116, 4.3459)">
<rect x="-0.0650" y="2.1861" width="0.1300" height="2.3079" ry="0.0400" fill="currentColor"/>
</g>
<g transform="translate(33.2466, 6.3459)">
<path transform="scale(0.0040, -0.0040)" d="M218 136c66 0 108 -36 108 -89c0 -89 -113 -183 -218 -183c-66 0 -108 36 -108 89c0 89 113 183 218 183z" fill="currentColor"/>
</g>
<g transform="translate(35.0008, 5.8459)">
<path transform="scale(0.0040, -0.0040)" d="M0 0c0 31 25 56 56 56s56 -25 56 -56s-25 -56 -56 -56s-56 25 -56 56z" fill="currentColor"/>
</g>
<g transform="translate(51.6582, 4.3459)">
<rect x="-0.0650" y="-1.3139" width="0.1300" height="4.1298" ry="0.0400" fill="currentColor"/>
</g>
<g transform="translate(51.5932, 2.8459)">
<path transform="scale(0.0040, -0.0040)" d="M218 136c66 0 108 -36 108 -89c0 -89 -113 -183 -218 -183c-66 0 -108 36 -108 89c0 89 113 183 218 183z" fill="currentColor"/>
</g>
<g transform="translate(30.2495, 4.3459)">
<rect x="-0.0650" y="2.1861" width="0.1300" height="2.3060" ry="0.0400" fill="currentColor"/>
</g>
<g transform="translate(0.0000, 17.1359)">
<rect x="26.6077" y="-0.1000" width="1.9563" height="0.2000" ry="0.1000" fill="currentColor"/>
</g>
<g transform="translate(0.0000, 17.1359)">
<rect x="24.1034" y="-0.1000" width="1.9563" height="0.2000" ry="0.1000" fill="currentColor"/>
</g>
<g transform="translate(0.0000, 16.1359)">
<line stroke-linejoin="round" stroke-linecap="round" stroke-width="0.1000" stroke="currentColor" x1="0.0500" y1="0" x2="45.0009" y2="0"/>
</g>
<g transform="translate(0.0000, 15.1359)">
<line stroke-linejoin="round" stroke-linecap="round" stroke-width="0.1000" stroke="currentColor" x1="0.0500" y1="0" x2="45.0009" y2="0"/>
</g>
<g transform="translate(0.0000, 14.1359)">
<line stroke-linejoin="round" stroke-linecap="round" stroke-width="0.1000" stroke="currentColor" x1="0.0500" y1="0" x2="45.0009" y2="0"/>
</g>
<g transform="translate(0.0000, 13.1359)">
<line stroke-linejoin="round" stroke-linecap="round" stroke-width="0.1000" stroke="currentColor" x1="0.0500" y1="0" x2="45.0009" y2="0"/>
</g>
<g transform="translate(0.0000, 12.1359)">
<line stroke-linejoin="round" stroke-linecap="round" stroke-width="0.1000" stroke="currentColor" x1="0.0500" y1="0" x2="45.0009" y2="0"/>
</g>
<g transform="translate(44.8609, 14.1359)">
<rect x="0.0000" y="-2.0000" width="0.1900" height="4.0000" ry="0.0000" fill="currentColor"/>
</g>
<g transform="translate(31.5899, 15.1359)">
<path transform="scale(0.0040, -0.0040)" d="M218 136c66 0 108 -36 108 -89c0 -89 -113 -183 -218 -183c-66 0 -108 36 -108 89c0 89 113 183 218 183z" fill="currentColor"/>
</g>
<g transform="translate(32.8291, 14.1359)">
<rect x="-0.0650" y="-2.9853" width="0.1300" height="3.7992" ry="0.0400" fill="currentColor"/>
</g>
<g transform="translate(34.3441, 13.6359)">
<path transform="scale(0.0040, -0.0040)" d="M218 136c66 0 108 -36 108 -89c0 -89 -113 -183 -218 -183c-66 0 -108 36 -108 89c0 89 113 183 218 183z" fill="currentColor"/>
</g>
<g transform="translate(35.5833, 14.1359)">
<rect x="-0.0650" y="-3.4493" width="0.1300" height="2.7632" ry="0.0400" fill="currentColor"/>
</g>
<g transform="translate(28.1729, 14.1359)">
<rect x="-0.0650" y="-2.2009" width="0.1300" height="5.0148" ry="0.0400" fill="currentColor"/>
</g>
<g transform="translate(28.6879, 16.6359)">
<path transform="scale(0.0040, -0.0040)" d="M0 0c0 31 25 56 56 56s56 -25 56 -56s-25 -56 -56 -56s-56 25 -56 56z" fill="currentColor"/>
</g>
<g transform="translate(26.9337, 17.1359)">
<path transform="scale(0.0040, -0.0040)" d="M218 136c66 0 108 -36 108 -89c0 -89 -113 -183 -218 -183c-66 0 -108 36 -108 89c0 89 113 183 218 183z" fill="currentColor"/>
</g>
<g transform="translate(25.6687, 14.1359)">
<rect x="-0.0650" y="-1.8193" width="0.1300" height="4.6332" ry="0.0400" fill="currentColor"/>
</g>
<g transform="translate(24.4295, 17.1359)">
<path transform="scale(0.0040, -0.0040)" d="M218 136c66 0 108 -36 108 -89c0 -89 -113 -183 -218 -183c-66 0 -108 36 -108 89c0 89 113 183 218 183z" fill="currentColor"/>
</g>
<g transform="translate(28.1079, 11.9459)">
<polygon stroke-linejoin="round" stroke-linecap="round" stroke-width="0.0800" fill="currentColor" stroke="currentColor" points="15.5130 -2.8200 15.5130 -2.4200 0.0400 0.2000 0.0400 -0.2000"/>
</g>
<g transform="translate(32.7641, 11.9716)">
<polygon stroke-linejoin="round" stroke-linecap="round" stroke-width="0.0800" fill="currentColor" stroke="currentColor" points="10.8568 -2.0356 10.8568 -1.6356 0.0400 0.2000 0.0400 -0.2000"/>
</g>
<g transform="translate(9.0742, 9.9459)">
<polygon stroke-linejoin="round" stroke-linecap="round" stroke-width="0.0800" fill="currentColor" stroke="currentColor" points="16.6195 2.1800 16.6195 2.5800 0.0400 0.2000 0.0400 -0.2000"/>
</g>
<g transform="translate(9.0742, 10.7559)">
<polygon stroke-linejoin="round" stroke-linecap="round" stroke-width="0.0800" fill="currentColor" stroke="currentColor" points="16.6195 2.1800 16.6195 2.5800 0.0400 0.2000 0.0400 -0.2000"/>
</g>
<g transform="translate(37.0983, 12.6359)">
<path transform="scale(0.0040, -0.0040)" d="M218 136c66 0 108 -36 108 -89c0 -89 -113 -183 -218 -183c-66 0 -108 36 -108 89c0 89 113 183 218 183z" fill="currentColor"/>
</g>
<g transform="translate(43.5959, 14.1359)">
<rect x="-0.0650" y="-4.7991" width="0.1300" height="2.6129" ry="0.0400" fill="currentColor"/>
</g>
<g transform="translate(42.3567, 12.1359)">
<path transform="scale(0.0040, -0.0040)" d="M218 136c66 0 108 -36 108 -89c0 -89 -113 -183 -218 -183c-66 0 -108 36 -108 89c0 89 113 183 218 183z" fill="currentColor"/>
</g>
<g transform="translate(40.8417, 14.1359)">
<rect x="-0.0650" y="-4.3351" width="0.1300" height="3.1490" ry="0.0400" fill="currentColor"/>
</g>
<g transform="translate(39.6025, 13.1359)">
<path transform="scale(0.0040, -0.0040)" d="M218 136c66 0 108 -36 108 -89c0 -89 -113 -183 -218 -183c-66 0 -108 36 -108 89c0 89 113 183 218 183z" fill="currentColor"/>
</g>
<g transform="translate(38.3375, 14.1359)">
<rect x="-0.0650" y="-3.9132" width="0.1300" height="2.2271" ry="0.0400" fill="currentColor"/>
</g>
<g transform="translate(7.9000, 12.6359)">
<path transform="scale(0.0040, -0.0040)" d="M218 136c66 0 108 -36 108 -89c0 -89 -113 -183 -218 -183c-66 0 -108 36 -108 89c0 89 113 183 218 183z" fill="currentColor"/>
</g>
<g transform="translate(13.8976, 14.1359)">
<rect x="-0.0650" y="-3.5009" width="0.1300" height="2.8148" ry="0.0400" fill="currentColor"/>
</g>
<g transform="translate(12.6584, 13.6359)">
<path transform="scale(0.0040, -0.0040)" d="M218 136c66 0 108 -36 108 -89c0 -89 -113 -183 -218 -183c-66 0 -108 36 -108 89c0 89 113 183 218 183z" fill="currentColor"/>
</g>
<g transform="translate(11.3934, 14.1359)">
<rect x="-0.0650" y="-3.8587" width="0.1300" height="3.1726" ry="0.0400" fill="currentColor"/>
</g>
<g transform="translate(10.1542, 13.6359)">
<path transform="scale(0.0040, -0.0040)" d="M218 136c66 0 108 -36 108 -89c0 -89 -113 -183 -218 -183c-66 0 -108 36 -108 89c0 89 113 183 218 183z" fill="currentColor"/>
</g>
<g transform="translate(9.1392, 14.1359)">
<rect x="-0.0650" y="-4.1807" width="0.1300" height="2.4946" ry="0.0400" fill="currentColor"/>
</g>
<g transform="translate(23.4145, 14.1359)">
<rect x="-0.0650" y="-2.1413" width="0.1300" height="3.9552" ry="0.0400" fill="currentColor"/>
</g>
<g transform="translate(-1.1267, 11.0612)">
<text font-family="serif" font-size="1.7459" text-anchor="start" fill="currentColor">
<tspan>6</tspan>
</text>
</g>
<g transform="translate(4.3000, 13.1359)">
<path transform="scale(0.0040, -0.0040)" d="M0 119c0 8 5 15 13 18l46 17v158c0 10 8 19 18 19s19 -9 19 -19v-145l83 31v158c0 10 9 19 19 19s18 -9 18 -19v-145l32 12c2 1 5 1 7 1c11 0 20 -9 20 -20v-60c0 -8 -5 -16 -13 -19l-46 -16v-160l32 11c2 1 5 1 7 1c11 0 20 -9 20 -20v-60c0 -8 -5 -15 -13 -18l-46 -17
v-158c0 -10 -8 -19 -18 -19s-19 9 -19 19v145l-83 -31v-158c0 -10 -9 -19 -19 -19s-18 9 -18 19v145l-32 -12c-2 -1 -5 -1 -7 -1c-11 0 -20 9 -20 20v60c0 8 5 16 13 19l46 16v160l-32 -11c-2 -1 -5 -1 -7 -1c-11 0 -20 9 -20 20v60zM179 95l-83 -30v-160l83 30v160z" fill="currentColor"/>
</g>
<g transform="translate(0.8000, 13.1359)">
<path transform="scale(0.0040, -0.0040)" d="M557 -125c0 28 23 51 51 51s51 -23 51 -51s-23 -51 -51 -51s-51 23 -51 51zM557 125c0 28 23 51 51 51s51 -23 51 -51s-23 -51 -51 -51s-51 23 -51 51zM232 263c172 0 293 -88 293 -251c0 -263 -263 -414 -516 -521c-3 -3 -6 -4 -9 -4c-7 0 -13 6 -13 13c0 3 1 6 4 9
c202 118 412 265 412 493c0 120 -63 235 -171 235c-74 0 -129 -54 -154 -126c11 5 22 8 34 8c55 0 100 -45 100 -100c0 -58 -44 -106 -100 -106c-60 0 -112 47 -112 106c0 133 102 244 232 244z" fill="currentColor"/>
</g>
<g transform="translate(22.1753, 16.1359)">
<path transform="scale(0.0040, -0.0040)" d="M218 136c66 0 108 -36 108 -89c0 -89 -113 -183 -218 -183c-66 0 -108 36 -108 89c0 89 113 183 218 183z" fill="currentColor"/>
</g>
<g transform="translate(20.9103, 14.1359)">
<rect x="-0.0650" y="-2.4991" width="0.1300" height="4.3130" ry="0.0400" fill="currentColor"/>
</g>
<g transform="translate(19.6711, 16.1359)">
<path transform="scale(0.0040, -0.0040)" d="M218 136c66 0 108 -36 108 -89c0 -89 -113 -183 -218 -183c-66 0 -108 36 -108 89c0 89 113 183 218 183z" fill="currentColor"/>
</g>
<g transform="translate(18.6561, 14.1359)">
<rect x="-0.0650" y="-2.8211" width="0.1300" height="3.6350" ry="0.0400" fill="currentColor"/>
</g>
<g transform="translate(17.4169, 15.1359)">
<path transform="scale(0.0040, -0.0040)" d="M218 136c66 0 108 -36 108 -89c0 -89 -113 -183 -218 -183c-66 0 -108 36 -108 89c0 89 113 183 218 183z" fill="currentColor"/>
</g>
<g transform="translate(16.1519, 14.1359)">
<rect x="-0.0650" y="-3.1789" width="0.1300" height="3.9928" ry="0.0400" fill="currentColor"/>
</g>
<g transform="translate(14.9126, 15.1359)">
<path transform="scale(0.0040, -0.0040)" d="M218 136c66 0 108 -36 108 -89c0 -89 -113 -183 -218 -183c-66 0 -108 36 -108 89c0 89 113 183 218 183z" fill="currentColor"/>
</g>
</svg>
